<?xml version="1.0" encoding="UTF-8"?>
<svg id="Capa_1" data-name="Capa 1" xmlns="http://www.w3.org/2000/svg" viewBox="0 0 1500 929.6">
  <defs>
    <style>
      .cls-1 {
        fill: #fff;
      }

      .cls-2 {
        fill: #7f4d2e;
      }

      .cls-3 {
        fill: #9779b1;
      }

      .cls-4 {
        fill: #945835;
      }

      .cls-5 {
        fill: #8ba748;
      }

      .cls-6 {
        fill: #c1e5f5;
      }

      .cls-7 {
        fill: #a3c254;
      }

      .cls-8 {
        fill: #949ac9;
      }

      .cls-9 {
        fill: #a37458;
      }

      .cls-10 {
        fill: #765ba0;
      }
    </style>
  </defs>
  <rect class="cls-10" x="-118.93" y="0" width="1659.44" height="1027.15"/>
  <polygon class="cls-3" points="1540.51 790.6 1540.51 236.54 1528.53 236.54 1528.53 281.35 1506.19 281.35 1506.19 236.54 1470.1 236.54 1470.1 265.9 1411.66 265.9 1411.66 310.71 1360.1 310.71 1360.1 236.54 1318.85 236.54 1318.85 279.8 1262.14 279.8 1262.14 236.54 1222.61 236.54 1222.61 276.72 1174.48 276.72 1174.48 236.54 1117.77 236.54 1117.77 255.08 1038.71 255.08 1038.71 236.54 990.59 236.54 990.59 290.62 944.18 290.62 944.18 236.54 908.09 236.54 908.09 265.9 841.06 265.9 841.06 301.44 777.47 301.44 777.47 251.99 734.5 251.99 734.5 278.26 696.69 278.26 696.69 247.36 643.41 247.36 643.41 284.44 564.35 284.44 564.35 236.54 500.76 236.54 500.76 259.72 447.48 259.72 447.48 236.54 399.36 236.54 399.36 258.18 327.18 258.18 327.18 296.8 280.78 296.8 280.78 236.54 239.52 236.54 239.52 268.99 181.09 268.99 181.09 236.54 151.87 236.54 151.87 256.63 62.5 256.63 62.5 306.07 21.26 306.07 21.26 236.54 -40.62 236.54 -40.62 264.35 -118.93 264.35 -118.93 790.6 1540.51 790.6"/>
  <polygon class="cls-8" points="1540.51 1027.15 1540.51 473.09 1528.53 473.09 1528.53 517.89 1506.19 517.89 1506.19 473.09 1470.1 473.09 1470.1 502.44 1411.66 502.44 1411.66 547.25 1360.1 547.25 1360.1 473.09 1318.85 473.09 1318.85 516.35 1262.14 516.35 1262.14 473.09 1222.61 473.09 1222.61 513.26 1174.48 513.26 1174.48 473.09 1117.77 473.09 1117.77 491.63 1038.71 491.63 1038.71 473.09 990.59 473.09 990.59 527.17 944.18 527.17 944.18 473.09 908.09 473.09 908.09 502.44 841.06 502.44 841.06 537.98 777.47 537.98 777.47 488.54 734.5 488.54 734.5 514.81 696.69 514.81 696.69 483.9 643.41 483.9 643.41 520.98 564.35 520.98 564.35 473.09 500.76 473.09 500.76 496.26 447.48 496.26 447.48 473.09 399.36 473.09 399.36 494.72 327.18 494.72 327.18 533.34 280.78 533.34 280.78 473.09 239.52 473.09 239.52 505.54 181.09 505.54 181.09 473.09 151.87 473.09 151.87 493.17 62.5 493.17 62.5 542.62 21.26 542.62 21.26 473.09 -40.62 473.09 -40.62 500.9 -118.93 500.9 -118.93 1027.15 1540.51 1027.15"/>
  <g>
    <g>
      <rect class="cls-7" x="678.23" y="716.74" width="324.29" height="144.12"/>
      <polygon class="cls-5" points="1002.52 741.4 978.02 741.4 978.02 770.96 928.78 770.96 928.78 791.29 857.31 791.29 857.31 843.03 825.55 843.03 825.55 770.96 784.25 770.96 784.25 796.83 730.25 796.83 730.25 833.79 678.23 833.79 678.23 860.86 1002.52 860.86 1002.52 741.4"/>
      <rect class="cls-2" x="678.23" y="860.86" width="324.29" height="166.29"/>
      <polygon class="cls-4" points="1002.52 988.99 1002.52 909.54 995.49 909.54 995.49 937.26 955.78 937.26 955.78 905.85 919.25 905.85 919.25 879.98 904.96 879.98 904.96 900.3 892.25 900.3 892.25 929.87 865.25 929.87 865.25 900.3 830.31 900.3 830.31 937.26 803.31 937.26 803.31 889.22 752.49 889.22 752.49 909.54 709.61 909.54 709.61 942.8 678.23 942.8 678.23 976.06 715.96 976.06 715.96 1027.15 736.61 1027.15 736.61 959.43 766.78 959.43 766.78 992.69 789.02 992.69 789.02 970.52 838.25 970.52 838.25 1000.08 862.08 1000.08 862.08 972.37 908.14 972.37 908.14 1005.62 943.08 1005.62 943.08 981.6 973.25 981.6 973.25 988.99 1002.52 988.99"/>
    </g>
    <rect class="cls-2" x="751.96" y="907.97" width="21.05" height="24.02"/>
    <rect class="cls-2" x="897.02" y="838.69" width="25.41" height="24.02"/>
    <rect class="cls-2" x="774.72" y="848.85" width="25.41" height="24.02"/>
    <rect class="cls-5" x="871.61" y="850.7" width="25.41" height="24.02"/>
    <rect class="cls-5" x="947.05" y="849.49" width="25.41" height="24.02"/>
    <rect class="cls-5" x="818.4" y="855.78" width="25.41" height="24.02"/>
    <rect class="cls-5" x="719.14" y="848.85" width="25.41" height="24.02"/>
  </g>
  <g>
    <g>
      <rect class="cls-7" x="-118.93" y="716.74" width="817.11" height="144.12"/>
      <polygon class="cls-5" points="674.8 754.33 674.8 776.51 658.92 776.51 658.92 798.68 622.39 798.68 622.39 817.16 587.45 817.16 587.45 785.75 571.56 785.75 571.56 776.51 539.8 776.51 539.8 765.42 511.21 765.42 511.21 793.14 496.92 793.14 496.92 833.79 481.03 833.79 481.03 793.14 455.63 793.14 455.63 756.18 438.15 756.18 438.15 807.92 380.98 807.92 380.98 758.03 328.56 758.03 328.56 794.98 299.97 794.98 299.97 813.46 263.45 813.46 263.45 789.44 250.74 789.44 250.74 800.53 214.21 800.53 214.21 741.4 180.85 741.4 180.85 770.96 131.62 770.96 131.62 791.29 60.15 791.29 60.15 843.03 28.38 843.03 28.38 770.96 -12.91 770.96 -12.91 796.83 -66.91 796.83 -66.91 833.79 -118.93 833.79 -118.93 860.86 698.18 860.86 698.18 754.33 674.8 754.33"/>
      <rect class="cls-2" x="-118.93" y="860.86" width="817.11" height="166.29"/>
      <polygon class="cls-4" points="671.62 946.5 698.18 946.5 698.18 929.87 681.15 929.87 681.15 878.13 636.69 878.13 636.69 907.7 587.45 907.7 587.45 860.86 569.98 860.86 569.98 900.3 547.74 900.3 547.74 915.08 519.15 915.08 519.15 900.3 476.27 900.3 476.27 922.48 434.98 922.48 434.98 860.86 427.03 860.86 427.03 896.61 377.8 896.61 377.8 935.41 317.45 935.41 317.45 905.85 277.74 905.85 277.74 889.22 265.03 889.22 265.03 946.5 220.56 946.5 220.56 909.54 198.33 909.54 198.33 937.26 158.62 937.26 158.62 905.85 122.09 905.85 122.09 879.98 107.8 879.98 107.8 900.3 95.09 900.3 95.09 929.87 68.09 929.87 68.09 900.3 33.15 900.3 33.15 937.26 6.15 937.26 6.15 889.22 -44.67 889.22 -44.67 909.54 -87.56 909.54 -87.56 942.8 -118.93 942.8 -118.93 976.06 -81.2 976.06 -81.2 1027.15 -60.56 1027.15 -60.56 959.43 -30.38 959.43 -30.38 992.69 -8.15 992.69 -8.15 970.52 41.09 970.52 41.09 1000.08 64.91 1000.08 64.91 972.37 110.97 972.37 110.97 1005.62 145.91 1005.62 145.91 981.6 176.09 981.6 176.09 988.99 220.56 988.99 220.56 970.52 298.39 970.52 298.39 959.43 395.27 959.43 395.27 1000.08 409.56 1000.08 409.56 977.91 487.39 977.91 487.39 1027.15 517.56 1027.15 517.56 946.5 549.33 946.5 549.33 985.3 573.15 985.3 573.15 957.58 628.74 957.58 628.74 1013.02 666.86 1013.02 666.86 988.99 671.62 988.99 671.62 946.5"/>
    </g>
    <path class="cls-9" d="M668.09,892.26h7.85v-.42c-2.62,.09-5.24,.24-7.85,.42Z"/>
    <rect class="cls-2" x="595.39" y="838.69" width="25.41" height="24.02"/>
    <rect class="cls-2" x="342.86" y="838.69" width="25.41" height="24.02"/>
    <rect class="cls-2" x="209.44" y="838.69" width="25.41" height="24.02"/>
    <rect class="cls-2" x="282.64" y="917.52" width="21.04" height="24.02"/>
    <rect class="cls-2" x="340.47" y="925.22" width="21.05" height="24.02"/>
    <rect class="cls-2" x="489.37" y="913.21" width="21.04" height="24.02"/>
    <rect class="cls-2" x="543.97" y="921.52" width="21.05" height="24.02"/>
    <rect class="cls-2" x="628.68" y="913.21" width="21.04" height="24.02"/>
    <rect class="cls-2" x="99.86" y="838.69" width="25.41" height="24.02"/>
    <rect class="cls-2" x="419.09" y="849.49" width="25.41" height="24.02"/>
    <rect class="cls-2" x="502.11" y="848.85" width="25.41" height="24.02"/>
    <rect class="cls-2" x="-22.44" y="848.85" width="25.41" height="24.02"/>
    <rect class="cls-5" x="74.44" y="850.7" width="25.41" height="24.02"/>
    <rect class="cls-5" x="149.89" y="849.49" width="25.41" height="24.02"/>
    <rect class="cls-5" x="249.15" y="855.78" width="25.41" height="24.02"/>
    <rect class="cls-5" x="300.77" y="849.49" width="25.41" height="24.02"/>
    <rect class="cls-5" x="393.68" y="855.78" width="25.41" height="24.02"/>
    <rect class="cls-5" x="463.96" y="855.78" width="25.41" height="24.02"/>
    <rect class="cls-5" x="541.78" y="855.78" width="25.41" height="24.02"/>
    <rect class="cls-5" x="635.49" y="841.46" width="25.41" height="24.02"/>
    <rect class="cls-5" x="21.24" y="855.78" width="25.41" height="24.02"/>
  </g>
  <g>
    <g>
      <rect class="cls-7" x="875.47" y="716.74" width="817.11" height="144.12"/>
      <polygon class="cls-5" points="898.84 754.33 898.84 776.51 914.73 776.51 914.73 798.68 951.26 798.68 951.26 817.16 986.2 817.16 986.2 785.75 1002.08 785.75 1002.08 776.51 1033.85 776.51 1033.85 765.42 1062.44 765.42 1062.44 793.14 1076.73 793.14 1076.73 833.79 1092.61 833.79 1092.61 793.14 1118.02 793.14 1118.02 756.18 1135.49 756.18 1135.49 807.92 1192.67 807.92 1192.67 758.03 1245.08 758.03 1245.08 794.98 1273.67 794.98 1273.67 813.46 1310.2 813.46 1310.2 789.44 1322.91 789.44 1322.91 800.53 1359.44 800.53 1359.44 741.4 1392.79 741.4 1392.79 770.96 1442.03 770.96 1442.03 791.29 1513.5 791.29 1513.5 843.03 1545.26 843.03 1545.26 770.96 1586.56 770.96 1586.56 796.83 1640.56 796.83 1640.56 833.79 1692.58 833.79 1692.58 860.86 875.47 860.86 875.47 754.33 898.84 754.33"/>
      <rect class="cls-2" x="875.47" y="860.86" width="817.11" height="166.29"/>
      <polygon class="cls-4" points="902.02 946.5 875.47 946.5 875.47 929.87 892.49 929.87 892.49 878.13 936.96 878.13 936.96 907.7 986.2 907.7 986.2 860.86 1003.67 860.86 1003.67 900.3 1025.91 900.3 1025.91 915.08 1054.5 915.08 1054.5 900.3 1097.38 900.3 1097.38 922.48 1138.67 922.48 1138.67 860.86 1146.61 860.86 1146.61 896.61 1195.85 896.61 1195.85 935.41 1256.2 935.41 1256.2 905.85 1295.91 905.85 1295.91 889.22 1308.61 889.22 1308.61 946.5 1353.09 946.5 1353.09 909.54 1375.32 909.54 1375.32 937.26 1415.03 937.26 1415.03 905.85 1451.56 905.85 1451.56 879.98 1465.85 879.98 1465.85 900.3 1478.56 900.3 1478.56 929.87 1505.56 929.87 1505.56 900.3 1540.5 900.3 1540.5 937.26 1567.5 937.26 1567.5 889.22 1618.32 889.22 1618.32 909.54 1661.2 909.54 1661.2 942.8 1692.58 942.8 1692.58 976.06 1654.85 976.06 1654.85 1027.15 1634.21 1027.15 1634.21 959.43 1604.03 959.43 1604.03 992.69 1581.79 992.69 1581.79 970.52 1532.56 970.52 1532.56 1000.08 1508.73 1000.08 1508.73 972.37 1462.67 972.37 1462.67 1005.62 1427.73 1005.62 1427.73 981.6 1397.55 981.6 1397.55 988.99 1353.09 988.99 1353.09 970.52 1275.26 970.52 1275.26 959.43 1178.38 959.43 1178.38 1000.08 1164.08 1000.08 1164.08 977.91 1086.26 977.91 1086.26 1027.15 1056.08 1027.15 1056.08 946.5 1024.32 946.5 1024.32 985.3 1000.49 985.3 1000.49 957.58 944.91 957.58 944.91 1013.02 906.79 1013.02 906.79 988.99 902.02 988.99 902.02 946.5"/>
    </g>
    <path class="cls-9" d="M905.56,892.26h-7.85v-.42c2.62,.09,5.24,.24,7.85,.42Z"/>
    <rect class="cls-2" x="952.85" y="838.69" width="25.41" height="24.02"/>
    <rect class="cls-2" x="1205.38" y="838.69" width="25.41" height="24.02"/>
    <rect class="cls-2" x="1338.79" y="838.69" width="25.41" height="24.02"/>
    <rect class="cls-2" x="1269.97" y="917.52" width="21.04" height="24.02"/>
    <rect class="cls-2" x="1212.13" y="925.22" width="21.05" height="24.02"/>
    <rect class="cls-2" x="1063.23" y="913.21" width="21.04" height="24.02"/>
    <rect class="cls-2" x="1008.63" y="921.52" width="21.05" height="24.02"/>
    <rect class="cls-2" x="923.93" y="913.21" width="21.04" height="24.02"/>
    <rect class="cls-2" x="1448.38" y="838.69" width="25.41" height="24.02"/>
    <rect class="cls-2" x="1129.14" y="849.49" width="25.41" height="24.02"/>
    <rect class="cls-2" x="1046.12" y="848.85" width="25.41" height="24.02"/>
    <rect class="cls-5" x="1473.79" y="850.7" width="25.41" height="24.02"/>
    <rect class="cls-5" x="1398.35" y="849.49" width="25.41" height="24.02"/>
    <rect class="cls-5" x="1299.08" y="855.78" width="25.41" height="24.02"/>
    <rect class="cls-5" x="1247.47" y="849.49" width="25.41" height="24.02"/>
    <rect class="cls-5" x="1154.55" y="855.78" width="25.41" height="24.02"/>
    <rect class="cls-5" x="1084.27" y="855.78" width="25.41" height="24.02"/>
    <rect class="cls-5" x="1006.45" y="855.78" width="25.41" height="24.02"/>
    <rect class="cls-5" x="912.74" y="841.46" width="25.41" height="24.02"/>
  </g>
  <g>
    <polygon class="cls-6" points="521.37 201.93 521.37 197.63 516.32 197.63 516.32 193.34 511.28 193.34 511.28 189.04 511.28 184.75 506.24 184.75 506.24 180.45 506.24 176.16 506.24 171.86 506.24 167.57 506.24 163.27 506.24 158.98 506.24 154.68 501.19 154.68 501.19 158.98 496.15 158.98 496.15 163.27 491.11 163.27 486.06 163.27 481.02 163.27 475.98 163.27 470.93 163.27 465.89 163.27 465.89 158.98 460.85 158.98 460.85 154.68 455.8 154.68 455.8 150.39 450.76 150.39 450.76 154.68 445.72 154.68 445.72 158.98 445.72 163.27 440.67 163.27 440.67 167.57 435.63 167.57 435.63 171.86 430.58 171.86 430.58 176.16 425.54 176.16 420.5 176.16 420.5 180.45 415.45 180.45 410.41 180.45 405.37 180.45 400.32 180.45 395.28 180.45 390.24 180.45 385.2 180.45 380.15 180.45 380.15 176.16 375.11 176.16 370.06 176.16 370.06 171.86 365.02 171.86 365.02 167.57 359.98 167.57 359.98 163.27 354.93 163.27 349.89 163.27 349.89 167.57 344.85 167.57 344.85 171.86 339.8 171.86 334.76 171.86 329.72 171.86 324.67 171.86 319.63 171.86 314.59 171.86 314.59 167.57 309.54 167.57 309.54 163.27 304.5 163.27 304.5 158.98 304.5 154.68 299.46 154.68 299.46 150.39 299.46 146.09 299.46 141.79 299.46 137.5 294.41 137.5 294.41 141.79 294.41 146.09 294.41 150.39 289.37 150.39 289.37 154.68 289.37 158.98 289.37 163.27 289.37 167.57 289.37 171.86 289.37 176.16 294.41 176.16 294.41 180.45 294.41 184.75 294.41 189.04 299.46 189.04 299.46 193.34 299.46 197.63 304.5 197.63 304.5 201.93 309.54 201.93 309.54 206.23 314.59 206.23 319.63 206.23 319.63 210.52 324.67 210.52 329.72 210.52 334.76 210.52 339.8 210.52 344.85 210.52 349.89 210.52 354.93 210.52 359.98 210.52 365.02 210.52 370.06 210.52 375.11 210.52 380.15 210.52 385.2 210.52 390.24 210.52 395.28 210.52 400.32 210.52 405.37 210.52 410.41 210.52 415.45 210.52 420.5 210.52 425.54 210.52 430.58 210.52 435.63 210.52 440.67 210.52 445.72 210.52 450.76 210.52 455.8 210.52 460.85 210.52 465.89 210.52 470.93 210.52 475.98 210.52 481.02 210.52 486.06 210.52 491.11 210.52 496.15 210.52 501.19 210.52 506.24 210.52 511.28 210.52 516.32 210.52 521.37 210.52 521.37 206.23 526.41 206.23 526.41 201.93 521.37 201.93"/>
    <polygon class="cls-1" points="536.5 163.27 536.5 158.98 536.5 154.68 531.45 154.68 531.45 150.39 526.41 150.39 526.41 146.09 521.37 146.09 521.37 141.79 516.32 141.79 511.28 141.79 506.24 141.79 506.24 137.5 506.24 133.2 506.24 128.91 501.19 128.91 501.19 124.61 501.19 120.32 501.19 116.02 496.15 116.02 496.15 111.73 491.11 111.73 491.11 107.43 486.06 107.43 486.06 103.14 481.02 103.14 481.02 98.84 475.98 98.84 470.93 98.84 465.89 98.84 460.85 98.84 455.8 98.84 450.76 98.84 445.72 98.84 440.67 98.84 440.67 103.14 435.63 103.14 435.63 98.84 435.63 94.55 430.58 94.55 430.58 90.25 425.54 90.25 420.5 90.25 420.5 85.96 415.45 85.96 415.45 81.66 410.41 81.66 405.37 81.66 400.32 81.66 395.28 81.66 390.24 81.66 385.2 81.66 385.2 85.96 380.15 85.96 375.11 85.96 375.11 90.25 370.06 90.25 370.06 94.55 365.02 94.55 365.02 98.84 359.98 98.84 359.98 103.14 354.93 103.14 354.93 107.43 354.93 111.73 354.93 116.02 349.89 116.02 344.85 116.02 339.8 116.02 334.76 116.02 329.72 116.02 324.67 116.02 319.63 116.02 319.63 120.32 314.59 120.32 309.54 120.32 309.54 124.61 304.5 124.61 304.5 128.91 299.46 128.91 299.46 133.2 299.46 137.5 299.46 141.79 299.46 146.09 299.46 150.39 299.46 154.68 304.5 154.68 304.5 158.98 304.5 163.27 309.54 163.27 309.54 167.57 314.59 167.57 314.59 171.86 319.63 171.86 324.67 171.86 329.72 171.86 334.76 171.86 339.8 171.86 344.85 171.86 344.85 167.57 349.89 167.57 349.89 163.27 354.93 163.27 359.98 163.27 359.98 167.57 365.02 167.57 365.02 171.86 370.06 171.86 370.06 176.16 375.11 176.16 380.15 176.16 380.15 180.45 385.2 180.45 390.24 180.45 395.28 180.45 400.32 180.45 405.37 180.45 410.41 180.45 415.45 180.45 420.5 180.45 420.5 176.16 425.54 176.16 430.58 176.16 430.58 171.86 435.63 171.86 435.63 167.57 440.67 167.57 440.67 163.27 445.72 163.27 445.72 158.98 445.72 154.68 450.76 154.68 450.76 150.39 455.8 150.39 455.8 154.68 460.85 154.68 460.85 158.98 465.89 158.98 465.89 163.27 470.93 163.27 475.98 163.27 481.02 163.27 486.06 163.27 491.11 163.27 496.15 163.27 496.15 158.98 501.19 158.98 501.19 154.68 506.24 154.68 506.24 158.98 506.24 163.27 506.24 167.57 506.24 171.86 506.24 176.16 506.24 180.45 506.24 184.75 511.28 184.75 511.28 189.04 511.28 193.34 516.32 193.34 516.32 197.63 521.37 197.63 521.37 201.93 526.41 201.93 526.41 206.23 531.45 206.23 531.45 201.93 531.45 197.63 536.5 197.63 536.5 193.34 541.54 193.34 541.54 189.04 541.54 184.75 541.54 180.45 541.54 176.16 541.54 171.86 541.54 167.57 541.54 163.27 536.5 163.27"/>
  </g>
  <g>
    <polygon class="cls-6" points="1052.51 277.75 1052.51 273.17 1047.14 273.17 1047.14 268.59 1041.76 268.59 1041.76 264.02 1041.76 259.43 1036.39 259.43 1036.39 254.86 1036.39 250.28 1036.39 245.7 1036.39 241.12 1036.39 236.55 1036.39 231.97 1036.39 227.39 1031.01 227.39 1031.01 231.97 1025.64 231.97 1025.64 236.55 1020.26 236.55 1014.88 236.55 1009.51 236.55 1004.13 236.55 998.76 236.55 993.38 236.55 993.38 231.97 988 231.97 988 227.39 982.63 227.39 982.63 222.81 977.25 222.81 977.25 227.39 971.88 227.39 971.88 231.97 971.88 236.55 966.5 236.55 966.5 241.12 961.12 241.12 961.12 245.7 955.75 245.7 955.75 250.28 950.37 250.28 945 250.28 945 254.86 939.62 254.86 934.24 254.86 928.87 254.86 923.49 254.86 918.12 254.86 912.74 254.86 907.37 254.86 901.99 254.86 901.99 250.28 896.62 250.28 891.24 250.28 891.24 245.7 885.87 245.7 885.87 241.12 880.49 241.12 880.49 236.55 875.11 236.55 869.74 236.55 869.74 241.12 864.36 241.12 864.36 245.7 858.99 245.7 853.61 245.7 848.23 245.7 842.86 245.7 837.48 245.7 832.1 245.7 832.1 241.12 826.73 241.12 826.73 236.55 821.36 236.55 821.36 231.97 821.36 227.39 815.98 227.39 815.98 222.81 815.98 218.23 815.98 213.65 815.98 209.08 810.6 209.08 810.6 213.65 810.6 218.23 810.6 222.81 805.23 222.81 805.23 227.39 805.23 231.97 805.23 236.55 805.23 241.12 805.23 245.7 805.23 250.28 810.6 250.28 810.6 254.86 810.6 259.43 810.6 264.02 815.98 264.02 815.98 268.59 815.98 273.17 821.36 273.17 821.36 277.75 826.73 277.75 826.73 282.33 832.1 282.33 837.48 282.33 837.48 286.9 842.86 286.9 848.23 286.9 853.61 286.9 858.99 286.9 864.36 286.9 869.74 286.9 875.11 286.9 880.49 286.9 885.87 286.9 891.24 286.9 896.62 286.9 901.99 286.9 907.37 286.9 912.74 286.9 918.12 286.9 923.49 286.9 928.87 286.9 934.24 286.9 939.62 286.9 945 286.9 950.37 286.9 955.75 286.9 961.12 286.9 966.5 286.9 971.88 286.9 977.25 286.9 982.63 286.9 988 286.9 993.38 286.9 998.76 286.9 1004.13 286.9 1009.51 286.9 1014.88 286.9 1020.26 286.9 1025.64 286.9 1031.01 286.9 1036.39 286.9 1041.76 286.9 1047.14 286.9 1052.51 286.9 1052.51 282.33 1057.89 282.33 1057.89 277.75 1052.51 277.75"/>
    <polygon class="cls-1" points="1068.64 236.55 1068.64 231.97 1068.64 227.39 1063.26 227.39 1063.26 222.81 1057.89 222.81 1057.89 218.23 1052.51 218.23 1052.51 213.65 1047.14 213.65 1041.76 213.65 1036.39 213.65 1036.39 209.08 1036.39 204.5 1036.39 199.92 1031.01 199.92 1031.01 195.34 1031.01 190.76 1031.01 186.18 1025.64 186.18 1025.64 181.6 1020.26 181.6 1020.26 177.03 1014.88 177.03 1014.88 172.45 1009.51 172.45 1009.51 167.87 1004.13 167.87 998.76 167.87 993.38 167.87 988 167.87 982.63 167.87 977.25 167.87 971.88 167.87 966.5 167.87 966.5 172.45 961.12 172.45 961.12 167.87 961.12 163.29 955.75 163.29 955.75 158.71 950.37 158.71 945 158.71 945 154.14 939.62 154.14 939.62 149.56 934.24 149.56 928.87 149.56 923.49 149.56 918.12 149.56 912.74 149.56 907.37 149.56 907.37 154.14 901.99 154.14 896.62 154.14 896.62 158.71 891.24 158.71 891.24 163.29 885.87 163.29 885.87 167.87 880.49 167.87 880.49 172.45 875.11 172.45 875.11 177.03 875.11 181.6 875.11 186.18 869.74 186.18 864.36 186.18 858.99 186.18 853.61 186.18 848.23 186.18 842.86 186.18 837.48 186.18 837.48 190.76 832.1 190.76 826.73 190.76 826.73 195.34 821.36 195.34 821.36 199.92 815.98 199.92 815.98 204.5 815.98 209.08 815.98 213.65 815.98 218.23 815.98 222.81 815.98 227.39 821.36 227.39 821.36 231.97 821.36 236.55 826.73 236.55 826.73 241.12 832.1 241.12 832.1 245.7 837.48 245.7 842.86 245.7 848.23 245.7 853.61 245.7 858.99 245.7 864.36 245.7 864.36 241.12 869.74 241.12 869.74 236.55 875.11 236.55 880.49 236.55 880.49 241.12 885.87 241.12 885.87 245.7 891.24 245.7 891.24 250.28 896.62 250.28 901.99 250.28 901.99 254.86 907.37 254.86 912.74 254.86 918.12 254.86 923.49 254.86 928.87 254.86 934.24 254.86 939.62 254.86 945 254.86 945 250.28 950.37 250.28 955.75 250.28 955.75 245.7 961.12 245.7 961.12 241.12 966.5 241.12 966.5 236.55 971.88 236.55 971.88 231.97 971.88 227.39 977.25 227.39 977.25 222.81 982.63 222.81 982.63 227.39 988 227.39 988 231.97 993.38 231.97 993.38 236.55 998.76 236.55 1004.13 236.55 1009.51 236.55 1014.88 236.55 1020.26 236.55 1025.64 236.55 1025.64 231.97 1031.01 231.97 1031.01 227.39 1036.39 227.39 1036.39 231.97 1036.39 236.55 1036.39 241.12 1036.39 245.7 1036.39 250.28 1036.39 254.86 1036.39 259.43 1041.76 259.43 1041.76 264.02 1041.76 268.59 1047.14 268.59 1047.14 273.17 1052.51 273.17 1052.51 277.75 1057.89 277.75 1057.89 282.33 1063.26 282.33 1063.26 277.75 1063.26 273.17 1068.64 273.17 1068.64 268.59 1074.01 268.59 1074.01 264.02 1074.01 259.43 1074.01 254.86 1074.01 250.28 1074.01 245.7 1074.01 241.12 1074.01 236.55 1068.64 236.55"/>
  </g>
  <g>
    <polygon class="cls-6" points="1330.97 486.09 1330.97 481.51 1325.6 481.51 1325.6 476.94 1320.22 476.94 1320.22 472.36 1320.22 467.78 1314.85 467.78 1314.85 463.2 1314.85 458.63 1314.85 454.05 1314.85 449.47 1314.85 444.89 1314.85 440.31 1314.85 435.73 1309.47 435.73 1309.47 440.31 1304.1 440.31 1304.1 444.89 1298.72 444.89 1293.34 444.89 1287.97 444.89 1282.59 444.89 1277.22 444.89 1271.84 444.89 1271.84 440.31 1266.47 440.31 1266.47 435.73 1261.09 435.73 1261.09 431.16 1255.71 431.16 1255.71 435.73 1250.34 435.73 1250.34 440.31 1250.34 444.89 1244.96 444.89 1244.96 449.47 1239.59 449.47 1239.59 454.05 1234.21 454.05 1234.21 458.63 1228.83 458.63 1223.46 458.63 1223.46 463.2 1218.08 463.2 1212.71 463.2 1207.33 463.2 1201.95 463.2 1196.58 463.2 1191.21 463.2 1185.83 463.2 1180.45 463.2 1180.45 458.63 1175.08 458.63 1169.7 458.63 1169.7 454.05 1164.33 454.05 1164.33 449.47 1158.95 449.47 1158.95 444.89 1153.57 444.89 1148.2 444.89 1148.2 449.47 1142.82 449.47 1142.82 454.05 1137.45 454.05 1132.07 454.05 1126.7 454.05 1121.32 454.05 1115.94 454.05 1110.57 454.05 1110.57 449.47 1105.2 449.47 1105.2 444.89 1099.82 444.89 1099.82 440.31 1099.82 435.73 1094.44 435.73 1094.44 431.16 1094.44 426.58 1094.44 422 1094.44 417.42 1089.07 417.42 1089.07 422 1089.07 426.58 1089.07 431.16 1083.69 431.16 1083.69 435.73 1083.69 440.31 1083.69 444.89 1083.69 449.47 1083.69 454.05 1083.69 458.63 1089.07 458.63 1089.07 463.2 1089.07 467.78 1089.07 472.36 1094.44 472.36 1094.44 476.94 1094.44 481.51 1099.82 481.51 1099.82 486.09 1105.2 486.09 1105.2 490.67 1110.57 490.67 1115.94 490.67 1115.94 495.25 1121.32 495.25 1126.7 495.25 1132.07 495.25 1137.45 495.25 1142.82 495.25 1148.2 495.25 1153.57 495.25 1158.95 495.25 1164.33 495.25 1169.7 495.25 1175.08 495.25 1180.45 495.25 1185.83 495.25 1191.21 495.25 1196.58 495.25 1201.95 495.25 1207.33 495.25 1212.71 495.25 1218.08 495.25 1223.46 495.25 1228.83 495.25 1234.21 495.25 1239.59 495.25 1244.96 495.25 1250.34 495.25 1255.71 495.25 1261.09 495.25 1266.47 495.25 1271.84 495.25 1277.22 495.25 1282.59 495.25 1287.97 495.25 1293.34 495.25 1298.72 495.25 1304.1 495.25 1309.47 495.25 1314.85 495.25 1320.22 495.25 1325.6 495.25 1330.97 495.25 1330.97 490.67 1336.35 490.67 1336.35 486.09 1330.97 486.09"/>
    <polygon class="cls-1" points="1347.1 444.89 1347.1 440.31 1347.1 435.73 1341.73 435.73 1341.73 431.16 1336.35 431.16 1336.35 426.58 1330.97 426.58 1330.97 422 1325.6 422 1320.22 422 1314.85 422 1314.85 417.42 1314.85 412.84 1314.85 408.26 1309.47 408.26 1309.47 403.69 1309.47 399.11 1309.47 394.53 1304.1 394.53 1304.1 389.95 1298.72 389.95 1298.72 385.37 1293.34 385.37 1293.34 380.79 1287.97 380.79 1287.97 376.22 1282.59 376.22 1277.22 376.22 1271.84 376.22 1266.47 376.22 1261.09 376.22 1255.71 376.22 1250.34 376.22 1244.96 376.22 1244.96 380.79 1239.59 380.79 1239.59 376.22 1239.59 371.64 1234.21 371.64 1234.21 367.06 1228.83 367.06 1223.46 367.06 1223.46 362.48 1218.08 362.48 1218.08 357.9 1212.71 357.9 1207.33 357.9 1201.95 357.9 1196.58 357.9 1191.21 357.9 1185.83 357.9 1185.83 362.48 1180.45 362.48 1175.08 362.48 1175.08 367.06 1169.7 367.06 1169.7 371.64 1164.33 371.64 1164.33 376.22 1158.95 376.22 1158.95 380.79 1153.57 380.79 1153.57 385.37 1153.57 389.95 1153.57 394.53 1148.2 394.53 1142.82 394.53 1137.45 394.53 1132.07 394.53 1126.7 394.53 1121.32 394.53 1115.94 394.53 1115.94 399.11 1110.57 399.11 1105.2 399.11 1105.2 403.69 1099.82 403.69 1099.82 408.26 1094.44 408.26 1094.44 412.84 1094.44 417.42 1094.44 422 1094.44 426.58 1094.44 431.16 1094.44 435.73 1099.82 435.73 1099.82 440.31 1099.82 444.89 1105.2 444.89 1105.2 449.47 1110.57 449.47 1110.57 454.05 1115.94 454.05 1121.32 454.05 1126.7 454.05 1132.07 454.05 1137.45 454.05 1142.82 454.05 1142.82 449.47 1148.2 449.47 1148.2 444.89 1153.57 444.89 1158.95 444.89 1158.95 449.47 1164.33 449.47 1164.33 454.05 1169.7 454.05 1169.7 458.63 1175.08 458.63 1180.45 458.63 1180.45 463.2 1185.83 463.2 1191.21 463.2 1196.58 463.2 1201.95 463.2 1207.33 463.2 1212.71 463.2 1218.08 463.2 1223.46 463.2 1223.46 458.63 1228.83 458.63 1234.21 458.63 1234.21 454.05 1239.59 454.05 1239.59 449.47 1244.96 449.47 1244.96 444.89 1250.34 444.89 1250.34 440.31 1250.34 435.73 1255.71 435.73 1255.71 431.16 1261.09 431.16 1261.09 435.73 1266.47 435.73 1266.47 440.31 1271.84 440.31 1271.84 444.89 1277.22 444.89 1282.59 444.89 1287.97 444.89 1293.34 444.89 1298.72 444.89 1304.1 444.89 1304.1 440.31 1309.47 440.31 1309.47 435.73 1314.85 435.73 1314.85 440.31 1314.85 444.89 1314.85 449.47 1314.85 454.05 1314.85 458.63 1314.85 463.2 1314.85 467.78 1320.22 467.78 1320.22 472.36 1320.22 476.94 1325.6 476.94 1325.6 481.51 1330.97 481.51 1330.97 486.09 1336.35 486.09 1336.35 490.67 1341.73 490.67 1341.73 486.09 1341.73 481.51 1347.1 481.51 1347.1 476.94 1352.48 476.94 1352.48 472.36 1352.48 467.78 1352.48 463.2 1352.48 458.63 1352.48 454.05 1352.48 449.47 1352.48 444.89 1347.1 444.89"/>
  </g>
  <g>
    <polygon class="cls-6" points="1437.39 164.85 1437.39 160.27 1432.01 160.27 1432.01 155.7 1426.64 155.7 1426.64 151.12 1426.64 146.54 1421.26 146.54 1421.26 141.96 1421.26 137.38 1421.26 132.8 1421.26 128.23 1421.26 123.65 1421.26 119.07 1421.26 114.49 1415.89 114.49 1415.89 119.07 1410.51 119.07 1410.51 123.65 1405.13 123.65 1399.76 123.65 1394.38 123.65 1389.01 123.65 1383.63 123.65 1378.25 123.65 1378.25 119.07 1372.88 119.07 1372.88 114.49 1367.5 114.49 1367.5 109.92 1362.13 109.92 1362.13 114.49 1356.75 114.49 1356.75 119.07 1356.75 123.65 1351.38 123.65 1351.38 128.23 1346 128.23 1346 132.8 1340.62 132.8 1340.62 137.38 1335.25 137.38 1329.87 137.38 1329.87 141.96 1324.5 141.96 1319.12 141.96 1313.74 141.96 1308.37 141.96 1302.99 141.96 1297.62 141.96 1292.24 141.96 1286.87 141.96 1286.87 137.38 1281.49 137.38 1276.11 137.38 1276.11 132.8 1270.74 132.8 1270.74 128.23 1265.36 128.23 1265.36 123.65 1259.99 123.65 1254.61 123.65 1254.61 128.23 1249.24 128.23 1249.24 132.8 1243.86 132.8 1238.49 132.8 1233.11 132.8 1227.73 132.8 1222.36 132.8 1216.98 132.8 1216.98 128.23 1211.61 128.23 1211.61 123.65 1206.23 123.65 1206.23 119.07 1206.23 114.49 1200.86 114.49 1200.86 109.92 1200.86 105.34 1200.86 100.76 1200.86 96.18 1195.48 96.18 1195.48 100.76 1195.48 105.34 1195.48 109.92 1190.1 109.92 1190.1 114.49 1190.1 119.07 1190.1 123.65 1190.1 128.23 1190.1 132.8 1190.1 137.38 1195.48 137.38 1195.48 141.96 1195.48 146.54 1195.48 151.12 1200.86 151.12 1200.86 155.7 1200.86 160.27 1206.23 160.27 1206.23 164.85 1211.61 164.85 1211.61 169.43 1216.98 169.43 1222.36 169.43 1222.36 174.01 1227.73 174.01 1233.11 174.01 1238.49 174.01 1243.86 174.01 1249.24 174.01 1254.61 174.01 1259.99 174.01 1265.36 174.01 1270.74 174.01 1276.11 174.01 1281.49 174.01 1286.87 174.01 1292.24 174.01 1297.62 174.01 1302.99 174.01 1308.37 174.01 1313.74 174.01 1319.12 174.01 1324.5 174.01 1329.87 174.01 1335.25 174.01 1340.62 174.01 1346 174.01 1351.38 174.01 1356.75 174.01 1362.13 174.01 1367.5 174.01 1372.88 174.01 1378.25 174.01 1383.63 174.01 1389.01 174.01 1394.38 174.01 1399.76 174.01 1405.13 174.01 1410.51 174.01 1415.89 174.01 1421.26 174.01 1426.64 174.01 1432.01 174.01 1437.39 174.01 1437.39 169.43 1442.76 169.43 1442.76 164.85 1437.39 164.85"/>
    <polygon class="cls-1" points="1453.52 123.65 1453.52 119.07 1453.52 114.49 1448.14 114.49 1448.14 109.92 1442.76 109.92 1442.76 105.34 1437.39 105.34 1437.39 100.76 1432.01 100.76 1426.64 100.76 1421.26 100.76 1421.26 96.18 1421.26 91.6 1421.26 87.02 1415.89 87.02 1415.89 82.44 1415.89 77.87 1415.89 73.29 1410.51 73.29 1410.51 68.71 1405.13 68.71 1405.13 64.13 1399.76 64.13 1399.76 59.55 1394.38 59.55 1394.38 54.97 1389.01 54.97 1383.63 54.97 1378.25 54.97 1372.88 54.97 1367.5 54.97 1362.13 54.97 1356.75 54.97 1351.38 54.97 1351.38 59.55 1346 59.55 1346 54.97 1346 50.4 1340.62 50.4 1340.62 45.82 1335.25 45.82 1329.87 45.82 1329.87 41.24 1324.5 41.24 1324.5 36.66 1319.12 36.66 1313.74 36.66 1308.37 36.66 1302.99 36.66 1297.62 36.66 1292.24 36.66 1292.24 41.24 1286.87 41.24 1281.49 41.24 1281.49 45.82 1276.11 45.82 1276.11 50.4 1270.74 50.4 1270.74 54.97 1265.36 54.97 1265.36 59.55 1259.99 59.55 1259.99 64.13 1259.99 68.71 1259.99 73.29 1254.61 73.29 1249.24 73.29 1243.86 73.29 1238.49 73.29 1233.11 73.29 1227.73 73.29 1222.36 73.29 1222.36 77.87 1216.98 77.87 1211.61 77.87 1211.61 82.44 1206.23 82.44 1206.23 87.02 1200.86 87.02 1200.86 91.6 1200.86 96.18 1200.86 100.76 1200.86 105.34 1200.86 109.92 1200.86 114.49 1206.23 114.49 1206.23 119.07 1206.23 123.65 1211.61 123.65 1211.61 128.23 1216.98 128.23 1216.98 132.8 1222.36 132.8 1227.73 132.8 1233.11 132.8 1238.49 132.8 1243.86 132.8 1249.24 132.8 1249.24 128.23 1254.61 128.23 1254.61 123.65 1259.99 123.65 1265.36 123.65 1265.36 128.23 1270.74 128.23 1270.74 132.8 1276.11 132.8 1276.11 137.38 1281.49 137.38 1286.87 137.38 1286.87 141.96 1292.24 141.96 1297.62 141.96 1302.99 141.96 1308.37 141.96 1313.74 141.96 1319.12 141.96 1324.5 141.96 1329.87 141.96 1329.87 137.38 1335.25 137.38 1340.62 137.38 1340.62 132.8 1346 132.8 1346 128.23 1351.38 128.23 1351.38 123.65 1356.75 123.65 1356.75 119.07 1356.75 114.49 1362.13 114.49 1362.13 109.92 1367.5 109.92 1367.5 114.49 1372.88 114.49 1372.88 119.07 1378.25 119.07 1378.25 123.65 1383.63 123.65 1389.01 123.65 1394.38 123.65 1399.76 123.65 1405.13 123.65 1410.51 123.65 1410.51 119.07 1415.89 119.07 1415.89 114.49 1421.26 114.49 1421.26 119.07 1421.26 123.65 1421.26 128.23 1421.26 132.8 1421.26 137.38 1421.26 141.96 1421.26 146.54 1426.64 146.54 1426.64 151.12 1426.64 155.7 1432.01 155.7 1432.01 160.27 1437.39 160.27 1437.39 164.85 1442.76 164.85 1442.76 169.43 1448.14 169.43 1448.14 164.85 1448.14 160.27 1453.52 160.27 1453.52 155.7 1458.89 155.7 1458.89 151.12 1458.89 146.54 1458.89 141.96 1458.89 137.38 1458.89 132.8 1458.89 128.23 1458.89 123.65 1453.52 123.65"/>
  </g>
  <g>
    <polygon class="cls-6" points="286.23 387.66 286.23 383.08 280.86 383.08 280.86 378.51 275.49 378.51 275.49 373.93 275.49 369.35 270.11 369.35 270.11 364.77 270.11 360.19 270.11 355.61 270.11 351.04 270.11 346.46 270.11 341.88 270.11 337.3 264.73 337.3 264.73 341.88 259.36 341.88 259.36 346.46 253.98 346.46 248.6 346.46 243.23 346.46 237.85 346.46 232.48 346.46 227.1 346.46 227.1 341.88 221.73 341.88 221.73 337.3 216.35 337.3 216.35 332.73 210.97 332.73 210.97 337.3 205.6 337.3 205.6 341.88 205.6 346.46 200.22 346.46 200.22 351.04 194.85 351.04 194.85 355.61 189.47 355.61 189.47 360.19 184.09 360.19 178.72 360.19 178.72 364.77 173.34 364.77 167.97 364.77 162.59 364.77 157.21 364.77 151.84 364.77 146.47 364.77 141.09 364.77 135.71 364.77 135.71 360.19 130.34 360.19 124.96 360.19 124.96 355.61 119.59 355.61 119.59 351.04 114.21 351.04 114.21 346.46 108.84 346.46 103.46 346.46 103.46 351.04 98.08 351.04 98.08 355.61 92.71 355.61 87.33 355.61 81.96 355.61 76.58 355.61 71.2 355.61 65.83 355.61 65.83 351.04 60.45 351.04 60.45 346.46 55.08 346.46 55.08 341.88 55.08 337.3 49.7 337.3 49.7 332.73 49.7 328.14 49.7 323.57 49.7 318.99 44.33 318.99 44.33 323.57 44.33 328.14 44.33 332.73 38.95 332.73 38.95 337.3 38.95 341.88 38.95 346.46 38.95 351.04 38.95 355.61 38.95 360.19 44.33 360.19 44.33 364.77 44.33 369.35 44.33 373.93 49.7 373.93 49.7 378.51 49.7 383.08 55.08 383.08 55.08 387.66 60.45 387.66 60.45 392.24 65.83 392.24 71.2 392.24 71.2 396.82 76.58 396.82 81.96 396.82 87.33 396.82 92.71 396.82 98.08 396.82 103.46 396.82 108.84 396.82 114.21 396.82 119.59 396.82 124.96 396.82 130.34 396.82 135.71 396.82 141.09 396.82 146.47 396.82 151.84 396.82 157.21 396.82 162.59 396.82 167.97 396.82 173.34 396.82 178.72 396.82 184.09 396.82 189.47 396.82 194.85 396.82 200.22 396.82 205.6 396.82 210.97 396.82 216.35 396.82 221.73 396.82 227.1 396.82 232.48 396.82 237.85 396.82 243.23 396.82 248.6 396.82 253.98 396.82 259.36 396.82 264.73 396.82 270.11 396.82 275.49 396.82 280.86 396.82 286.23 396.82 286.23 392.24 291.61 392.24 291.61 387.66 286.23 387.66"/>
    <polygon class="cls-1" points="302.36 346.46 302.36 341.88 302.36 337.3 296.99 337.3 296.99 332.73 291.61 332.73 291.61 328.14 286.23 328.14 286.23 323.57 280.86 323.57 275.49 323.57 270.11 323.57 270.11 318.99 270.11 314.41 270.11 309.83 264.73 309.83 264.73 305.25 264.73 300.68 264.73 296.1 259.36 296.1 259.36 291.52 253.98 291.52 253.98 286.94 248.6 286.94 248.6 282.36 243.23 282.36 243.23 277.78 237.85 277.78 232.48 277.78 227.1 277.78 221.73 277.78 216.35 277.78 210.97 277.78 205.6 277.78 200.22 277.78 200.22 282.36 194.85 282.36 194.85 277.78 194.85 273.21 189.47 273.21 189.47 268.63 184.09 268.63 178.72 268.63 178.72 264.05 173.34 264.05 173.34 259.47 167.97 259.47 162.59 259.47 157.21 259.47 151.84 259.47 146.47 259.47 141.09 259.47 141.09 264.05 135.71 264.05 130.34 264.05 130.34 268.63 124.96 268.63 124.96 273.21 119.59 273.21 119.59 277.78 114.21 277.78 114.21 282.36 108.84 282.36 108.84 286.94 108.84 291.52 108.84 296.1 103.46 296.1 98.08 296.1 92.71 296.1 87.33 296.1 81.96 296.1 76.58 296.1 71.2 296.1 71.2 300.68 65.83 300.68 60.45 300.68 60.45 305.25 55.08 305.25 55.08 309.83 49.7 309.83 49.7 314.41 49.7 318.99 49.7 323.57 49.7 328.14 49.7 332.73 49.7 337.3 55.08 337.3 55.08 341.88 55.08 346.46 60.45 346.46 60.45 351.04 65.83 351.04 65.83 355.61 71.2 355.61 76.58 355.61 81.96 355.61 87.33 355.61 92.71 355.61 98.08 355.61 98.08 351.04 103.46 351.04 103.46 346.46 108.84 346.46 114.21 346.46 114.21 351.04 119.59 351.04 119.59 355.61 124.96 355.61 124.96 360.19 130.34 360.19 135.71 360.19 135.71 364.77 141.09 364.77 146.47 364.77 151.84 364.77 157.21 364.77 162.59 364.77 167.97 364.77 173.34 364.77 178.72 364.77 178.72 360.19 184.09 360.19 189.47 360.19 189.47 355.61 194.85 355.61 194.85 351.04 200.22 351.04 200.22 346.46 205.6 346.46 205.6 341.88 205.6 337.3 210.97 337.3 210.97 332.73 216.35 332.73 216.35 337.3 221.73 337.3 221.73 341.88 227.1 341.88 227.1 346.46 232.48 346.46 237.85 346.46 243.23 346.46 248.6 346.46 253.98 346.46 259.36 346.46 259.36 341.88 264.73 341.88 264.73 337.3 270.11 337.3 270.11 341.88 270.11 346.46 270.11 351.04 270.11 355.61 270.11 360.19 270.11 364.77 270.11 369.35 275.49 369.35 275.49 373.93 275.49 378.51 280.86 378.51 280.86 383.08 286.23 383.08 286.23 387.66 291.61 387.66 291.61 392.24 296.99 392.24 296.99 387.66 296.99 383.08 302.36 383.08 302.36 378.51 307.74 378.51 307.74 373.93 307.74 369.35 307.74 364.77 307.74 360.19 307.74 355.61 307.74 351.04 307.74 346.46 302.36 346.46"/>
  </g>
</svg>