<svg width="254" height="250" viewBox="0 0 254 250" fill="none" xmlns="http://www.w3.org/2000/svg">
<path d="M252.434 241.695L132 3.25482C131.986 3.22401 131.963 3.20161 131.949 3.1708C131.871 3.01956 131.775 2.87952 131.683 2.73668C131.605 2.61344 131.529 2.4874 131.442 2.37257C131.35 2.25214 131.243 2.14291 131.14 2.03087C131.033 1.91324 130.932 1.79281 130.818 1.68637C130.708 1.58555 130.588 1.49872 130.47 1.40629C130.347 1.30827 130.227 1.20464 130.095 1.11781C129.969 1.03379 129.832 0.966569 129.7 0.893749C129.563 0.818127 129.428 0.736904 129.286 0.672485C129.151 0.613669 129.008 0.568856 128.868 0.518441C128.711 0.462425 128.557 0.403609 128.398 0.361597C128.364 0.353194 128.333 0.336389 128.3 0.327987C128.188 0.30278 128.078 0.297178 127.966 0.277573C127.798 0.249565 127.633 0.215955 127.462 0.201951C127.314 0.190748 127.171 0.193549 127.023 0.193549C126.854 0.193549 126.689 0.190748 126.521 0.204752C126.37 0.218756 126.224 0.246764 126.076 0.271971C125.95 0.294377 125.824 0.297178 125.698 0.327987C125.659 0.336389 125.625 0.355995 125.586 0.364397C125.448 0.400808 125.317 0.451222 125.18 0.498836C125.017 0.554852 124.852 0.605266 124.695 0.675286C124.577 0.728501 124.471 0.795721 124.359 0.854537C124.199 0.941362 124.037 1.02259 123.886 1.12341C123.779 1.19343 123.681 1.28026 123.58 1.35868C123.44 1.46791 123.297 1.57154 123.169 1.69198C123.068 1.7844 122.981 1.89083 122.889 1.99166C122.774 2.1177 122.653 2.24093 122.55 2.37537C122.468 2.4846 122.398 2.60224 122.323 2.71707C122.225 2.86551 122.127 3.01115 122.045 3.168C122.031 3.19601 122.009 3.22121 121.995 3.25202L1.56067 241.693C0.485164 243.821 0.874476 246.398 2.53535 248.112C3.61926 249.229 5.08128 249.82 6.5657 249.82C7.36393 249.82 8.16496 249.65 8.92117 249.299L127 194.544L245.076 249.302C245.832 249.652 246.636 249.823 247.432 249.823C248.919 249.823 250.384 249.232 251.459 248.118C253.117 246.401 253.509 243.824 252.434 241.695ZM121.399 29.2967V184.791L18.8332 232.355L121.399 29.2967Z" fill="white"/>
</svg>
