<?xml version="1.0"?>
<svg xmlns="http://www.w3.org/2000/svg" xmlns:xlink="http://www.w3.org/1999/xlink" xmlns:svgjs="http://svgjs.com/svgjs" version="1.1" width="512" height="512" x="0" y="0" viewBox="0 0 511.838 511.838" style="enable-background:new 0 0 512 512" xml:space="preserve" class=""><g><path xmlns="http://www.w3.org/2000/svg" d="m415.418 192.735v-96.368h-96.368v-96.367h-126.367v96.367h-96.315v96.368h-96.315v126.367h96.315v96.368h96.315v96.367h126.367v-96.367h96.368v-96.368h96.367v-126.367zm-30-66.368v66.368h-66.368v-66.368zm0 162.736h-66.368v-66.367h66.368zm-96.368 96.368h-66.314v-66.368h66.314zm-162.63-162.736h66.262v66.367h-66.262zm162.63-30h-66.314v-66.368h66.314zm-66.315 96.368v-66.367h66.314v66.367zm-.052-259.103h66.367v66.367h-66.314-.053zm-96.315 96.367h66.315v66.368h-66.263-.053v-66.368zm-96.315 162.736v-66.367h66.315v66.367zm96.315 96.368v-66.368h.053 66.262v66.368zm162.682 96.367h-66.367v-66.367h.053 66.314zm96.368-96.367h-66.368v-66.368h66.368zm96.367-96.368h-66.367v-66.367h66.367z" fill="#04fc0e" data-original="#000000" class=""/></g></svg>
