<?xml version="1.0"?>
<svg xmlns="http://www.w3.org/2000/svg" xmlns:xlink="http://www.w3.org/1999/xlink" xmlns:svgjs="http://svgjs.com/svgjs" version="1.1" width="512" height="512" x="0" y="0" viewBox="0 0 511.961 511.961" style="enable-background:new 0 0 512 512" xml:space="preserve" class=""><g><g xmlns="http://www.w3.org/2000/svg"><path d="m295.117 0h-78.392v78.392h.059 78.333z" fill="#04fc0e" data-original="#000000"/><path d="m216.784 108.392h78.333v78.393h-78.333z" fill="#04fc0e" data-original="#000000"/><path d="m325.117 108.392h78.393v78.393h-78.393z" fill="#04fc0e" data-original="#000000"/><path d="m325.117 216.784h78.393v78.393h-78.393z" fill="#04fc0e" data-original="#000000"/><path d="m433.51 216.784h78.393v78.393h-78.393z" fill="#04fc0e" data-original="#000000"/><path d="m216.784 216.784h78.333v78.393h-78.333z" fill="#04fc0e" data-original="#000000"/><path d="m186.725 216.784h-78.274v78.393h78.274.059v-78.393z" fill="#04fc0e" data-original="#000000"/><path d="m216.784 325.177h78.333v78.393h-78.333z" fill="#04fc0e" data-original="#000000"/><path d="m216.725 433.569v78.392h78.392v-78.392h-78.333z" fill="#04fc0e" data-original="#000000"/><path d="m325.117 325.177h78.393v78.393h-78.393z" fill="#04fc0e" data-original="#000000"/><path d="m108.392 403.569h78.333.059v-78.392h-.059-78.274-.059z" fill="#04fc0e" data-original="#000000"/><path d="m.059 216.784v78.393h78.333.059v-78.393h-.059z" fill="#04fc0e" data-original="#000000"/><path d="m186.725 186.784h.059v-78.392h-.059-78.333v78.392h.059z" fill="#04fc0e" data-original="#000000"/></g></g></svg>
