<?xml version="1.0" encoding="UTF-8"?>
<svg id="Layer_6" data-name="Layer 6" xmlns="http://www.w3.org/2000/svg" viewBox="0 0 515.1 436.87">
  <defs>
    <style>
      .cls-1 {
        fill: #9e9ea0;
      }

      .cls-2 {
        fill: #303130;
      }

      .cls-3 {
        fill: #c4c2c3;
      }

      .cls-4 {
        fill: #dbdbda;
      }

      .cls-5 {
        fill: #111;
      }

      .cls-6 {
        fill: #9b9c9d;
      }

      .cls-7 {
        fill: #973a34;
      }

      .cls-8 {
        fill: #464949;
      }

      .cls-9 {
        fill: #562020;
      }

      .cls-10 {
        fill: #2b2d2d;
      }

      .cls-11 {
        fill: #343134;
      }

      .cls-12 {
        fill: #777979;
      }

      .cls-13 {
        fill: #7a7c7c;
      }

      .cls-14 {
        font-family: Silom, Silom;
        font-size: 12.4px;
      }
    </style>
  </defs>
  <path class="cls-1" d="M327.96,382.77c.03,2.22-.11,4.1-.81,5.58-1.23,2.59-4.13,3.99-10.7,3.94-43.26-.34-86.54-.32-129.8-.02-6.57,.05-9.94-1.21-11.5-3.89-.9-1.52-1.22-3.49-1.21-5.95,.01-3.81,.7-6.56,3.23-8.18,0,0,.01-.02,.02-.02,0,1.46-.01,2.91-.01,4.36-.01,3.26-.02,6.53-.02,9.79,49.35-.01,98.71-.03,148.06-.04,0-3.26-.02-6.51-.03-9.77-.01-1.48-.01-2.96-.02-4.44,.01,0,.02,.01,.03,.02,2.65,1.8,2.7,4.92,2.76,8.62Z"/>
  <path class="cls-8" d="M486.57,386.99c.14-11.18,.39-22.36,.4-33.54,.05-52.74,.02-105.48,.06-158.22,0-3.45-.62-6.21-.47-9.66,15.27,.44,15.48-2.93,15.48,13.83-.02,69.69,0,139.38-.01,209.08q0,12.05-12.91,12.05c-154.3,0-308.61,0-462.91,0-16.58,0-14.55,1.04-14.76-14.29,2.49-.11,4.98-.31,7.48-.31,114.12,0,228.25,.04,342.37-.01,41.37-.02,82.73-.25,124.1-.38l1.24-1.03c.67-5.84,.69-11.68-.04-17.51Z"/>
  <path class="cls-12" d="M489.26,185.9c-2.18-1.19-5.83-1.2-12.26-1.27-62.84-.6-125.71,1.46-188.54-1.27-2.76,1.5-5.77,1.46-8.78,1.46-21.83-.05-43.66-.08-65.49-.11-64.51-.02-129.02-.03-193.52-.05q-10.98,0-10.99,11.37c-.01,66.66-.02,133.32,.01,199.98,0,2.94,.19,5.88,.34,8.81,.05,1.02,.89,1.82,1.91,1.82,146.68,0,293.35,0,440.03,0h40.3c.14-11.46,.39-22.92,.4-34.37,.05-54.05,.02-108.1,.05-162.15,.01-3.53,.28-7.07,.42-10.61-.71-8.45-1.02-12.05-3.88-13.62Zm-162.11,202.45c-.64-.01-1.29-.01-1.93-.01-49.35,.01-98.71,.03-148.06,.04h-2.01c-46.87,.11-93.73,.13-140.6,.42-6.71,.04-6.59-3.83-6.58-8.5,.05-44.51,.03-89.03,.02-133.54,0-2.18-.16-4.36-.24-6.54,.1-9.85,.4-19.69,.21-29.53-.1-5.56,1.82-8.04,7.61-7.75,6.28,.32,12.59,.05,18.89,.05,136.06,.01,272.12,.01,408.18,.02q11.62,0,11.67,11.79c.06,8.47,.19,16.95,.3,25.42-.1,45.4-.18,90.8-.28,136.2-.03,12.29-.05,12.34-12.02,12.31-45.06-.11-90.1-.25-135.16-.38Z"/>
  <path class="cls-2" d="M288.46,183.36c-2.76,1.5-5.76,1.46-8.78,1.45-21.83-.05-43.66-.07-65.5-.11,.08-1.91,.22-3.82,.24-5.73,.12-12.18,.09-12.45,12.49-13.14,5.57-.31,6.46-3.37,5.85-7.54-1.18-8.03,1.89-11.87,10.11-11.32,1.12,.04,2.24,.08,3.36,.12,3.83,.03,7.66,.05,11.49,.08,.84-.06,1.68-.11,2.51-.17,7.09,.49,10.69,3.67,9.3,11.31-1.16,6.4,1.92,8.96,8.23,8.08,2.65-.37,5.34-.5,8.01-.74,5.03,5.27,2.02,11.76,2.67,17.69Z"/>
  <path class="cls-10" d="M246.97,138.2c1.34-1.54,2.74-3.03,4.21-4.46-.2-1.57-.38-3.14-.18-4.66,.89-6.96-1.31-9.58-8.87-9.24-14.75,.66-29.54,.19-44.32,.2-18.05,0-18.1,0-16.66,17.91,4.9,.13,9.79,.27,14.69,.4,15.22-.13,30.46,.19,45.65-.56,2.21-.11,4.03,.02,5.49,.41Z"/>
  <path class="cls-10" d="M260.31,149.51l-2.07,1.8c-4.36-.81-8.73-.72-13.1-.13l-1.75-1.07c-.1-.36-.34-.64-.72-.83,0-1.34,0-2.69,0-4.03q-.03-12.09,12.16-11.81c1.91-.07,3.5,.65,4.13,1.18,.39,.33,.93,.42,.95,.93l.41,13.94Z"/>
  <path class="cls-3" d="M27.75,240.22c.08,2.18,.24,4.36,.24,6.54,.01,44.51,.03,89.03-.02,133.54-.01,4.67-.13,8.54,6.58,8.5,46.87-.29,93.73-.31,140.6-.42h2.01c0-3.26,.01-6.53,.02-9.79,0-1.45,.01-2.9,.01-4.36,.03-5.3,.05-10.6,.04-15.9-.01-5.85-.05-11.7-.16-17.55-.01-.33-.01-.64,.01-.95v-.03c.11-4.89,1.93-6.9,6.83-7.15,.37,0,.76-.02,1.16-.02,44.06,.18,88.13,.18,132.19,0,.4,0,.79,.01,1.15,.02,4.89,.24,6.76,2.2,6.87,7.13v.02c.02,.31,.02,.62,.01,.95-.11,5.65-.15,11.32-.16,16.97,0,5.47,.02,10.94,.04,16.41,.01,1.48,.01,2.96,.02,4.44,.01,3.26,.03,6.51,.03,9.77,.64,0,1.29,0,1.93,.01,45.06,.13,90.1,.27,135.16,.38,11.97,.03,11.99-.02,12.02-12.31,.1-45.4,.18-90.8,.28-136.2H27.75Zm117.51,65.76c-.21,5.72-.21,11.45-.01,17.17,.15,4.18-1.65,5.59-5.68,5.51-7.41-.14-14.84,.05-22.26,.1-.08,7.8-.29,15.6-.17,23.39,.06,4-1.3,5.78-5.48,5.64-6.11-.22-12.24-.21-18.35,0-4.2,.15-5.52-1.69-5.46-5.67,.12-7.79-.09-15.59-.17-23.39-7.58-.05-15.16-.15-22.74-.11-3.24,.02-5.26-.9-5.21-4.6,.09-6.31,.09-12.63,0-18.94-.05-3.67,1.92-4.66,5.19-4.64,7.58,.05,15.16-.06,22.74-.1,.09-7.4,.36-14.81,.2-22.2-.1-4.74,1.39-7.13,6.52-6.9,5.7,.27,11.43,.22,17.14,.02,4.07-.14,5.68,1.42,5.62,5.55-.12,7.81,.13,15.64,.22,23.46,7.42,.07,14.84,.28,22.26,.15,4.06-.08,5.78,1.42,5.64,5.56Zm235.78,42.86c.07,3-2.77,2.84-4.92,2.86-8.98,.05-17.95-.03-26.92,.08-3.7,.04-5.94-1.37-5.33-5.23,.7-4.53-2.44-9.87,2.73-13.49,.48-.04,.73-.18,1.19-.05,10.08,0,20.15,0,30.22,0,.49,0,.79,.27,1.08,.48,3.74,4.85,1.83,10.1,1.95,15.34Zm-28.65-52.33c-7.5,.08-9.26-3.07-9.25-9.84,.01-6.7,1.58-10.12,9.17-9.92,15.58,.42,31.19,.13,46.79,.13,15.87,.01,31.76,.4,47.61-.14,8.34-.29,8.39,4.21,8.46,10.27,.07,6.11-.86,9.6-8.37,9.52-31.47-.34-62.95-.32-94.41-.02Zm95.06,55.35c-5.95-.55-12-.1-18-.1-10.47-.01-14.24-5.6-11-15.87,.93-2.94,3-2.78,5.12-2.81,4.63-.09,9.27-.03,13.91-.03,2.46-.03,4.91-.03,7.37-.03,10.57,0,9.23,.59,10.62,10.5,.87,6.15-1.3,8.96-8.02,8.34Z"/>
  <path class="cls-2" d="M474.61,240.22c-148.95,0-297.9,0-446.85,0,.1-9.84,.4-19.69,.21-29.53-.11-5.56,1.82-8.04,7.61-7.75,6.28,.32,12.59,.05,18.89,.05,136.06,0,272.12,0,408.18,.02q11.62,0,11.67,11.79c.06,8.47,.19,16.95,.29,25.42Z"/>
  <path class="cls-6" d="M318.41,332.65c4.89,.24,6.76,2.2,6.87,7.13,0-.15,.01-.31,.01-.46,.1-4.64-1.68-6.47-6.88-6.67Zm6.72,25.07c0,5.47,.02,10.94,.04,16.41,.01,1.48,.01,2.96,.02,4.44h.03c0-1.47,0-2.95-.02-4.42-.01-5.48-.06-10.96-.07-16.43Zm-140.06-25.09c44.06,.18,88.13,.18,132.19,0-44.06,.15-88.13,.15-132.19,0Zm-7.91,45.96h.02c0-1.45,.01-2.9,.01-4.36,.03-5.3,.05-10.6,.04-15.9-.01,5.31-.05,10.61-.06,15.92-.01,1.45-.01,2.89-.01,4.34Zm-.09-39.24c0,.15,.01,.3,.01,.45,.11-4.89,1.93-6.9,6.83-7.15-5.21,.21-6.94,2.08-6.84,6.7Z"/>
  <path class="cls-1" d="M325.28,339.78c-.11-4.93-1.98-6.89-6.87-7.13-.36,0-.75-.02-1.15-.02-44.06,.18-88.13,.18-132.19,0-.4,0-.79,.01-1.16,.02-4.9,.25-6.72,2.26-6.83,7.15v.03c.14,6.17,.16,12.33,.15,18.5,.01,5.3-.01,10.6-.04,15.9,0,1.46-.01,2.91-.01,4.36-.01,3.26-.02,6.53-.02,9.79,49.35-.01,98.71-.03,148.06-.04,0-3.26-.02-6.51-.03-9.77-.01-1.48-.01-2.96-.02-4.44-.02-5.47-.04-10.94-.04-16.41-.01-5.98,.02-11.95,.15-17.92v-.02Zm-49.71,11.01c4.61-.14,9.25-.03,13.87-.03v-.03c2.72,0,5.48,.21,8.15-.04,7.75-.74,9.54,1.79,9.69,6.93,.17,5.71-2.7,7.48-10.4,7.05-7.03-.4-14.14-.22-21.21-.06-5.94,.14-6.76-2.38-6.33-5.61,.44-3.33-2.15-7.95,6.23-8.21Zm-71.23-.13c7.3,.39,14.68,.08,22.02,.12,8.34,.04,6.36,4.47,6.69,7.91,.34,3.44-.36,6.19-6.76,5.89-4.06-.19-8.16-.04-12.24-.04-2.99,.01-6.03-.22-8.96,.06-8.21,.78-10.06-1.94-9.98-7.26,.09-4.89,1.82-7.08,9.23-6.68Z"/>
  <path class="cls-12" d="M491.1,425.64c.32-.45,.73-.8,1.22-1.05-.41,.35-.81,.7-1.22,1.05Z"/>
  <path class="cls-11" d="M184.27,123c-1.69,3.56-4.97,2.69-7.86,2.75-10.06,.21-20.11,.34-30.17,.5-5.05-2.03-11.39,2.35-15.74-3.16,.34-4.49,.68-8.99,1.02-13.48l-.15-.45c4.81-2.23,9.99-.21,14.9-1.33,12.61,.17,25.22,.33,37.83,.5,0,0-.15-.16-.15-.16,.1,4.94,.21,9.88,.31,14.83Z"/>
  <path class="cls-11" d="M169.08-1.7c2.75,1.69,2.07,4.97,2.12,7.86,.16,10.06,.26,20.11,.39,30.17-1.57,5.05,1.81,11.39-2.43,15.74-3.46-.34-6.93-.68-10.39-1.02l-.35,.15c-1.72-4.81-.17-9.99-1.02-14.9,.13-12.61,.26-25.22,.38-37.83,0,0-.12,.15-.12,.15,3.81-.1,7.62-.21,11.43-.31Z"/>
  <path class="cls-10" d="M134.51,112.6s.15,.45,.15,.45c-.97-.88-2.01-1.51-3.4-1.07q-14.48-1.07-14.49-15.55c0-1.35,0-2.71,0-4.06q-.02-17.69,17.96-15.11s-.23-.12-.23-.12c.06,.56,.12,1.12,.17,1.68,.01,4.38,.02,8.75,.04,13.13-.06,6.88-.13,13.76-.19,20.64Z"/>
  <path class="cls-2" d="M133.03,78.63c-.16-1.6-.44-3.19-.47-4.79q-.3-14.87,15.13-12.92c.55,.4,1.09,.8,1.64,1.2l.45,13.11c-1.51,.21-2.17,1.24-2.5,2.59l-.11,.41s.41,.13,.41,.13c-4.35-.02-8.71-.03-13.06-.05-.57,.07-1.15,.13-1.72,.2,0,0,.23,.12,.23,.12Z"/>
  <path class="cls-10" d="M164.39,61.64c-.7,.59-1.41,1.19-2.11,1.78-4.37-.81-8.75-.71-13.13-.11-.54-.22-1.09-.45-1.63-.67,0-.57-.26-.98-.77-1.23,0-1.34,0-2.69,0-4.03q-.03-12.09,12.16-11.81c1.3,1.95,3.35,.92,5.06,1.26,.14,4.94,.29,9.87,.43,14.81Z"/>
  <path class="cls-1" d="M399.1,276.88c15.87,0,31.76,.39,47.61-.15,8.33-.28,8.38,4.21,8.45,10.27,.07,6.11-.86,9.6-8.37,9.52-31.47-.34-62.94-.31-94.41-.01-7.5,.07-9.26-3.07-9.24-9.85,.01-6.7,1.58-10.12,9.16-9.92,15.59,.42,31.2,.13,46.79,.13Z"/>
  <path class="cls-1" d="M251.13,304.77c21,0,42.01,.39,62.98-.15,11.02-.28,11.09,4.21,11.18,10.27,.1,6.11-1.13,9.6-11.07,9.52-41.62-.34-83.26-.31-124.88-.01-9.92,.07-12.25-3.07-12.23-9.85,.02-6.7,2.08-10.12,12.12-9.92,20.62,.42,41.26,.13,61.9,.13Z"/>
  <path class="cls-1" d="M251.11,276.74c21,0,42.01,.39,62.98-.15,11.02-.28,11.09,4.21,11.18,10.27,.1,6.11-1.13,9.6-11.07,9.52-41.62-.34-83.26-.31-124.88-.01-9.92,.07-12.25-3.07-12.23-9.85,.02-6.7,2.08-10.12,12.12-9.92,20.62,.42,41.26,.13,61.9,.13Z"/>
  <path class="cls-1" d="M251.11,248.71c21,0,42.01,.39,62.98-.15,11.02-.28,11.09,4.21,11.18,10.27,.1,6.11-1.13,9.6-11.07,9.52-41.62-.34-83.26-.31-124.88-.01-9.92,.07-12.25-3.07-12.23-9.85,.02-6.7,2.08-10.12,12.12-9.92,20.62,.42,41.26,.13,61.9,.13Z"/>
  <g>
    <g>
      <path class="cls-9" d="M437.48,333.43c2.46-.01,4.91-.01,7.37-.01,10.57,0,10.22,.01,10.62,10.49,.24,6.21-1.31,8.96-8.03,8.34-5.95-.55-12-.1-18-.1-10.47,0-14.24-5.6-11-15.87,.93-2.95,3-2.78,5.11-2.82,4.64-.09,9.28-.03,13.92-.04Z"/>
      <path class="cls-7" d="M436.75,332.65c2.46-.01,4.91-.01,7.37-.01,10.57,0,10.22,.01,10.62,10.49,.24,6.21-1.31,8.96-8.03,8.34-5.95-.55-12-.1-18-.1-10.47,0-14.24-5.6-11-15.87,.93-2.95,3-2.78,5.11-2.82,4.64-.09,9.28-.03,13.92-.04Z"/>
    </g>
    <g>
      <path class="cls-9" d="M379.6,333.69c3.74,4.85,1.57,10.4,1.69,15.64,.07,3-2.77,2.85-4.92,2.86-8.97,.05-17.95-.02-26.92,.08-3.7,.04-5.93-1.36-5.33-5.23,.71-4.53-2.44-9.87,2.73-13.48,0,0,.61,.19,.61,.19l.59-.24c10.07,0,20.15,0,30.21,.01,0,0,.83-.01,.83-.01l.51,.19Z"/>
      <path class="cls-7" d="M378.61,332.81c3.74,4.85,1.57,10.4,1.69,15.64,.07,3-2.77,2.85-4.92,2.86-8.97,.05-17.95-.02-26.92,.08-3.7,.04-5.93-1.36-5.33-5.23,.71-4.53-2.44-9.87,2.73-13.48,0,0,.6-.05,.6-.05h.6c10.07,0,20.15,0,30.21,.01,0,0,.72-.01,.72-.01l.62,.19Z"/>
    </g>
  </g>
  <g>
    <path class="cls-4" d="M100.16,380.69c-7.57,0-15.14-.11-22.71,.05-3.66,.08-4.99-1.42-4.95-4.95,.12-9.86-.07-19.72,.09-29.58,.06-3.8-1.4-5.21-5.19-5.15-9.39,.15-18.78-.06-28.17,.1-3.65,.06-4.97-1.33-4.94-4.91,.11-15,.12-30,0-45-.03-3.63,1.33-4.91,4.95-4.85,9.25,.16,18.5,.08,27.75,.04,4.91-.02,5.54-.67,5.54-5.54,.01-9.17,.12-18.34-.05-27.5-.07-3.81,1.41-5.14,5.21-5.1,14.86,.14,29.72,.16,44.57-.01,4.09-.05,5.39,1.45,5.29,5.39-.22,8.47-.07,16.94-.07,25.42,0,7.16,.21,7.36,7.64,7.36,9.11,0,18.22,.11,27.33-.05,3.67-.07,4.94,1.29,4.9,4.89-.13,15-.12,30,0,45,.03,3.61-1.35,4.92-4.98,4.87-9.81-.15-19.62,.05-29.43-.1-3.96-.06-5.57,1.41-5.51,5.38,.15,9.72-.07,19.45,.11,29.17,.07,3.75-1.21,5.27-5.1,5.16-7.42-.2-14.86-.06-22.29-.06Zm-61.47-66.88c0,6.39,.19,12.79-.08,19.16-.14,3.25,.99,3.9,4.04,3.85,10.37-.18,20.75,.09,31.11-.16,3.46-.08,4.14,1.07,4.09,4.22-.19,10.41,.03,20.83-.13,31.25-.04,2.89,.78,3.8,3.75,3.77,12.89-.15,25.79-.14,38.68,0,2.89,.03,3.84-.72,3.79-3.69-.18-10.55,.07-21.11-.15-31.66-.07-3.24,1-3.9,4.04-3.85,10.51,.18,21.02-.04,31.53,.14,2.98,.05,3.76-.87,3.73-3.74-.14-12.78-.18-25.56,.02-38.33,.05-3.31-1.11-3.86-4.1-3.81-10.65,.17-21.3-.02-31.95,.13-2.63,.04-3.28-.74-3.25-3.28,.14-10.69-.03-21.39,.12-32.08,.04-2.84-.68-3.83-3.7-3.79-12.89,.16-25.79,.19-38.68-.02-3.37-.05-3.88,1.19-3.84,4.11,.16,10.41-.09,20.83,.15,31.25,.07,3.24-.94,3.87-3.98,3.82-10.65-.19-21.3,.01-31.95-.13-2.63-.04-3.35,.76-3.29,3.29,.16,6.52,.05,13.05,.05,19.58Z"/>
    <path class="cls-2" d="M38.69,313.81c0-6.53,.11-13.06-.05-19.58-.06-2.53,.66-3.33,3.29-3.29,10.65,.15,21.31-.05,31.95,.13,3.04,.05,4.06-.58,3.98-3.82-.24-10.41,0-20.83-.15-31.25-.04-2.92,.47-4.16,3.84-4.11,12.89,.2,25.79,.17,38.68,.02,3.02-.04,3.74,.95,3.7,3.79-.15,10.69,.02,21.39-.12,32.08-.03,2.54,.62,3.32,3.25,3.28,10.65-.15,21.3,.04,31.95-.13,2.98-.05,4.15,.5,4.1,3.81-.21,12.77-.16,25.55-.02,38.33,.03,2.87-.75,3.79-3.73,3.74-10.51-.17-21.02,.04-31.53-.14-3.04-.05-4.11,.61-4.04,3.85,.22,10.55-.02,21.11,.15,31.66,.05,2.97-.91,3.72-3.79,3.69-12.89-.14-25.79-.15-38.68,0-2.97,.03-3.79-.88-3.75-3.77,.16-10.41-.05-20.83,.13-31.25,.06-3.15-.63-4.3-4.09-4.22-10.37,.24-20.74-.03-31.11,.16-3.04,.05-4.18-.6-4.04-3.85,.27-6.38,.08-12.77,.08-19.16Z"/>
  </g>
  <g>
    <g>
      <path class="cls-5" d="M214.73,365.93c-2.99,0-6.03-.25-8.97,.05-8.21,.85-10.06-2.11-9.97-7.9,.08-5.32,1.82-7.69,9.23-7.26,7.3,.42,14.68,.09,22.02,.13,8.34,.04,6.36,4.87,6.69,8.6,.34,3.74-.36,6.73-6.77,6.41-4.06-.2-8.16-.04-12.24-.03Z"/>
      <path class="cls-13" d="M213.8,364.62c-2.99,0-6.03-.25-8.97,.05-8.21,.85-10.06-2.11-9.97-7.9,.08-5.32,1.82-7.69,9.23-7.26,7.3,.42,14.68,.09,22.02,.13,8.34,.04,6.36,4.87,6.69,8.6,.34,3.74-.36,6.73-6.77,6.41-4.06-.2-8.16-.04-12.24-.03Z"/>
    </g>
    <g>
      <path class="cls-5" d="M290.12,350.92c2.72,0,5.48,.23,8.15-.04,7.75-.8,9.53,1.94,9.68,7.51,.17,6.2-2.7,8.12-10.4,7.65-7.03-.43-14.14-.24-21.21-.06-5.94,.15-6.76-2.58-6.33-6.08,.44-3.61-2.15-8.62,6.23-8.9,4.62-.16,9.25-.03,13.87-.03,0-.01,0-.03,0-.04Z"/>
      <path class="cls-13" d="M289.18,349.64c2.72,0,5.48,.23,8.15-.04,7.75-.8,9.53,1.94,9.68,7.51,.17,6.2-2.7,8.12-10.4,7.65-7.03-.43-14.14-.24-21.21-.06-5.94,.15-6.76-2.58-6.33-6.08,.44-3.61-2.15-8.62,6.23-8.9,4.62-.16,9.25-.03,13.87-.03,0-.01,0-.03,0-.04Z"/>
    </g>
  </g>
  <text class="cls-14" transform="translate(370.63 368.21) scale(1.57 1)"><tspan x="0" y="0">A</tspan></text>
  <text class="cls-14" transform="translate(447.05 368.21) scale(1.57 1)"><tspan x="0" y="0">B</tspan></text>
</svg>