<?xml version="1.0" encoding="UTF-8"?>
<svg id="Crack" xmlns="http://www.w3.org/2000/svg" viewBox="0 0 550.62 446.82">
  <defs>
    <style>
      .cls-1 {
        fill: #060606;
      }

      .cls-2 {
        fill: #0094c5;
      }

      .cls-3 {
        fill: #9c9c99;
      }

      .cls-4 {
        fill: #d22128;
      }

      .cls-5 {
        fill: #dbdbda;
      }

      .cls-6 {
        fill: #231f20;
      }
    </style>
  </defs>
  <path class="cls-1" d="M246.98,296.61c-2.4-10.79-6.03-21.13-11.77-30.62-13.99-23.14-34.8-33.96-61.59-33.9-9.2,.02-18.22,1.48-27.21,3.31-11.78,2.41-23.62,2.98-35.43,.22-12.45-2.91-21.85-7.66-29.83-17.87,1.69-1.35,2.19-3.94,3.89-5.29,7.23,9.26,16.84,14.61,28.18,17.05,11.02,2.37,22.01,1.6,32.93-.7,11.94-2.51,27.94-3.56,40.15-2.4,29.58,2.79,46.05,17.96,58.8,44.34,3.31,6.84,5.65,14.02,7.49,21.37-1.87,1.49-3.74,2.98-5.6,4.47Z"/>
  <path class="cls-1" d="M143.29,158.13c2.3-3.2,4.51-6.62,6.62-10.29,6.11-10.63,10.3-21.83,13.78-33.23,3.18-10.43,7.44-20.51,13.86-29.73,6.61-9.49,14.48-16.64,23.98-20.55-.19-1.89-.57-3.24-1.94-4.95-10.48,4.32-17.85,11.44-25.26,21.8-7.04,9.83-11.8,20.61-15.28,31.84-2.65,8.57-5.58,17.06-9.58,25.33-3.06,6.33-6.46,12.06-10.2,17.21,1.35,.84,2.68,1.7,4.01,2.57Z"/>
  <path class="cls-1" d="M208.92,39.75c1.65-17.5-1.85-32.23-11.2-43.79-1.11,1.49-2.19,3-3.27,4.52,6.51,8.52,9.86,19.23,9.8,32.27-.04,9,4.54,23.93-4.65,26.63l1.94,4.95c13.03-7.86,6.8-18.39,7.38-24.57Z"/>
  <path class="cls-1" d="M111.13,271.1c6.76-2.92,13.07-6.59,18.56-11.53,13.39-12.05,17.87-27.02,14.48-44.54-1.17-6.02-3.24-11.74-5.57-17.39-3.05-7.41-4.9-15.08-4.58-23.15,.35-8.51,2.28-15.26,7.96-21.75,1.09,.94,2.85,.94,3.95,1.88-5.16,5.89-7.45,12.85-7.63,20.57-.17,7.5,1.71,14.6,4.57,21.45,3.13,7.5,5.62,15.17,6.4,23.3,1.88,19.7-5.79,35.04-21.46,46.68-4.06,3.02-8.47,5.45-13.05,7.58-1.21-1.04-2.42-2.07-3.63-3.11Z"/>
  <path class="cls-1" d="M81.15,217.75c-2.61-3.27-6.13-6.38-10.79-7.89-11.36-3.69-19.3,5.81-26.29,28.17-2.4,7.68-4.28,16.16-6.02,24.86-2.28,11.41-5.19,21.65-9.19,29.66-4.22,8.44-8.99,13.3-14.47,13.17l-.02-6.91c4.97,.12,9.27-4.35,13.04-12.17,3.67-7.6,6.29-17.28,8.38-27.89,2.29-11.61,4.93-22.62,8.51-32.03,8.67-22.8,19.22-29.47,31.33-22.6,3.14,1.78,5.56,3.53,9.4,8.34,0,2.54-1.44,5.09-3.89,5.29Z"/>
  <path class="cls-1" d="M14.02,299.1c-5.55-.85-4.39-3.62-4.22-8.51,.42-11.93,14.9-17.36,38.31-16.29,8.04,.37,16.65,1.5,25.42,2.84,11.5,1.75,19.57,2.76,28.46,1.74,9.38-1.08,14.8-5.54,19.44-8.1-2.16-.79-2.37-1.6-4.53-2.39-4.88,2.33-9.38,4.84-18.02,5.72-8.4,.85-17.78,1.16-28.47-.5-11.69-1.82-22.94-3.1-33.01-2.95-24.39,.35-34.27,7.99-31.95,21.72,.6,3.56-2.19,8.9,8.59,13.64q2.07-3.44-.02-6.91Z"/>
  <path class="cls-5" d="M536.42,436.38c-.16,.07-.32,.14-.48,.21-.18,.07-.36,.14-.55,.21-.31,.1-.63,.2-.94,.3-.75-.04-1.49-.11-2.24-.11-56.93-.2-113.85,.11-170.78-.31-55.43-.41-110.87-.14-166.31-.17-19.31-.01-38.62,0-57.93-.03-6.29-.01-8.35-2.06-8.34-8.13,.06-40.52-.16-81.04,.37-121.55,.17-12.98,.04-25.96,.05-38.95,0-4.76,1.9-6.64,6.66-6.64,29.47,0,58.93,.01,88.4,.03,5.3,0,4.99-.47,4.9,4.76-.02,1.35,.2,2.22,1.87,2.2,5.58-.06,11.15-.05,16.73,0,1.42,.01,1.97-.57,1.87-1.93-.04-.58,.06-1.17-.02-1.75-.33-2.46,.58-3.35,3.17-3.32,26.79,.32,53.58,.07,80.38,.31,32.36,.3,64.74,.27,97.11-.16,34.29-.45,68.59-.16,102.88-.16,3.56,0,5.68,2.2,5.73,5.81,.14,9.89,.26,19.79,.34,29.68,.28,32.29,.17,64.58,.23,96.87,0,1.04-.37,2.18,.5,3.1,0,5.82,0,11.64,.01,17.46-.33,5.48-.23,10.97-.04,16.45-.03,.34-.06,.67-.09,1.01-.48,.38-.53,.89-.44,1.44-.46,1.34-1.42,2.28-2.52,3.09-.17,.1-.35,.2-.52,.29Zm-202.59-148.37c-62.5,0-125.01,0-187.51,0-4.81,0-5.91,1.07-5.91,5.82,0,42.27,0,84.54,0,126.81,0,4.92,1.05,5.95,6.04,5.95,124.76,0,249.52,0,374.28,0,5.07,0,6.34-1.26,6.34-6.33,0-42.1,0-84.21,0-126.31,0-5.02-.92-5.94-5.97-5.94-62.42,0-124.84,0-187.27,0Z"/>
  <path class="cls-3" d="M540.01,396.63c-.86-.92-.5-2.06-.5-3.1-.06-32.29,.06-64.58-.23-96.87-.09-9.89-.2-19.79-.34-29.68-.05-3.61-2.17-5.81-5.73-5.81-34.29,0-68.59-.29-102.88,.16-32.37,.43-64.74,.45-97.11,.16-26.79-.24-53.59,0-80.38-.31-2.59-.03-3.5,.87-3.17,3.32,.08,.57-.03,1.17,.02,1.75,.11,1.37-.45,1.95-1.87,1.93-5.58-.05-11.15-.06-16.73,0-1.67,.02-1.89-.85-1.87-2.2,.09-5.23,.4-4.76-4.9-4.76-29.47-.02-58.93-.02-88.4-.03-4.76,0-6.65,1.88-6.66,6.64-.02,12.98,.12,25.97-.05,38.95-.53,40.52-.31,81.04-.37,121.55,0,6.07,2.05,8.12,8.34,8.13,19.31,.03,38.62,.02,57.93,.03,55.44,.03,110.87-.24,166.31,.17,56.93,.42,113.85,.11,170.78,.31,.75,0,1.49,.07,2.24,.11-1.09,.6-2.28,.31-3.43,.31-65.56,.02-131.12-.28-196.67,.12-65.8,.41-131.6,.22-197.41,.39-1.5,0-2.99-.02-4.49-.04,0,0-.04,.05-.04,.05-.23-.41-.63-.49-1.05-.53-3.32-1.94-4.33-4.93-4.33-8.63,.03-52.98,0-105.97-.02-158.95,0-8.74,2.25-10.95,11.11-10.96,32.7-.01,65.39-.02,98.09-.04,1.08,0,2.16-.07,3.24-.11,2.39,0,4.78,0,7.17,0,1.25,.04,2.49,.12,3.74,.12,90.19,.04,180.38,.06,270.57,.12,4.4,0,8.82-.26,13.21,.34,4.1,.56,6.62,3.32,6.61,7.38-.04,22.21,.14,44.42-.23,66.63-.33,20.04-.11,40.09-.27,60.13,0,1.07-.16,2.14-.24,3.21Z"/>
  <path class="cls-3" d="M539.98,430.54c-.18-5.48-.29-10.97,.04-16.45,.36,5.48,.42,10.97-.04,16.45Z"/>
  <path class="cls-3" d="M539.46,432.99c-.09-.55-.05-1.06,.44-1.44,0,.33,.02,.66,.03,.99-.15,.15-.31,.3-.46,.45Z"/>
  <path class="cls-2" d="M131.37,437.41c.42,.03,.82,.12,1.05,.53-.45,.03-.83-.1-1.05-.53Z"/>
  <path class="cls-3" d="M536.42,436.38c.17-.1,.35-.2,.52-.29-.17,.1-.35,.2-.52,.29Z"/>
  <path class="cls-3" d="M535.39,436.8c.18-.07,.36-.14,.55-.21-.18,.07-.36,.14-.55,.21Z"/>
  <path class="cls-1" d="M333.82,288c62.42,0,124.84,0,187.27,0,5.04,0,5.97,.92,5.97,5.94,0,42.1,0,84.21,0,126.31,0,5.06-1.27,6.32-6.34,6.33-124.76,0-249.52,0-374.28,0-4.99,0-6.04-1.03-6.04-5.95,0-42.27,0-84.54,0-126.81,0-4.75,1.1-5.82,5.91-5.82,62.5,0,125.01,0,187.51,0Zm-12.07,118.91c16.81,0,33.63,0,50.44,0,4.35,0,5.83-1.5,5.84-5.87,.01-8.99,.01-17.97,0-26.96,0-4.36-1.53-5.9-5.83-5.9-33.54,0-67.09,0-100.63,0-4.08,0-5.74,1.66-5.75,5.76-.02,8.9-.01,17.81,0,26.71,0,4.81,1.44,6.25,6.24,6.26,16.56,0,33.13,0,49.69,0Zm-.12-91.56h-4.24c-15.64,0-31.27,0-46.91,0-5.81,0-6.94,1.15-6.95,7.06,0,2.25,0,4.49,0,6.74,0,5.52,1.24,6.76,6.74,6.76,27.53,0,55.06,0,82.6,0,6.9,0,13.81,0,20.71,0,4.96,0,6.31-1.39,6.32-6.43,0-2.49,0-4.99,0-7.48,0-5.36-1.26-6.63-6.61-6.63-17.22,0-34.44,0-51.65,0Zm-.37-26.37c-18.55,0-37.09,.02-55.64-.04-1.91,0-2.66,.45-2.56,2.48,.16,3.49,.03,6.98,.05,10.48,.03,4.32,1.92,6.21,6.28,6.21,34.85,0,69.7,0,104.55,0,3.89,0,5.39-1.48,5.46-5.44,.06-3.66-.12-7.32,.07-10.97,.12-2.25-.64-2.77-2.8-2.76-18.46,.08-36.93,.05-55.39,.05Zm.44,73.25c17.38,0,34.76,0,52.14,0,4.67,0,6.03-1.39,6.05-6.14,0-2.66,0-5.32,0-7.98-.01-4.98-1.4-6.37-6.39-6.37-17.71,0-35.43,0-53.14,0-17.05,0-34.1,0-51.15,0-4.03,0-5.61,1.6-5.64,5.58-.02,2.99-.01,5.99,0,8.98,.02,4.54,1.4,5.91,5.99,5.92,17.38,0,34.76,0,52.14,0Zm.41,62.51h2.99c17.47,0,34.94,0,52.4-.02,.88,0,1.94,.4,2.6-.42,2.08-2.61-.49-8.99-3.82-9.54-.81-.13-1.66-.1-2.49-.1-34.52,0-69.04,0-103.56,0-.67,0-1.33-.03-2,.03-2.65,.24-4.06,1.67-4.22,4.34-.06,.99,.09,2.01-.05,2.99-.31,2.21,.53,2.79,2.74,2.77,18.47-.09,36.93-.05,55.4-.05Zm-123.46-17.35c4.41,0,8.82-.09,13.23,.03,2.31,.06,3.07-.85,3.03-3.09-.1-5.82,.03-11.65-.06-17.47-.04-2.38,.93-3.26,3.27-3.22,5.82,.09,11.65-.03,17.47,.06,2.15,.03,2.97-.75,2.95-2.92-.07-8.98-.07-17.97,0-26.95,.02-2.15-.74-2.97-2.91-2.93-5.41,.1-10.82,.03-16.22,.03-4.42,0-4.54-.12-4.54-4.41,0-5.07-.09-10.15,.04-15.22,.06-2.36-.71-3.26-3.14-3.23-8.82,.1-17.64,.09-26.46,0-2.26-.02-3.14,.77-3.1,3.06,.1,5.49,.04,10.98,.03,16.47,0,2.92-.38,3.31-3.29,3.32-5.49,.02-10.98,.07-16.47-.03-2.15-.04-2.96,.73-2.94,2.9,.08,8.98,.07,17.97,0,26.95-.02,2.14,.77,2.98,2.93,2.94,5.57-.09,11.15,.03,16.72-.06,2.25-.04,3.12,.81,3.08,3.09-.1,5.9,.01,11.81-.06,17.72-.02,2.12,.77,3.01,2.94,2.97,4.49-.09,8.99-.03,13.48-.03Zm221.07-41.41c-5.66,0-11.32-.01-16.97,0-3.3,.01-4.21,.88-4.21,4.1-.02,11.4-.02,22.79,0,34.19,0,3.23,.96,4.22,4.13,4.23,11.4,.02,22.8,.02,34.2,0,3.03,0,4.1-1.06,4.11-4.02,.02-11.48,.02-22.96,0-34.44,0-3.02-1.02-4.05-4.03-4.06-5.74-.03-11.48,0-17.22,0Zm30.78,21.18c0,5.66-.01,11.31,0,16.97,.01,3.36,.98,4.38,4.25,4.39,11.31,.02,22.63,.02,33.94,0,3.28,0,4.26-1.01,4.27-4.37,.02-11.31,.02-22.62,0-33.93,0-3.21-.99-4.22-4.13-4.22-11.4-.02-22.79-.02-34.19,0-3.15,0-4.13,1-4.14,4.21-.02,5.65,0,11.31,0,16.97Zm-37.11-67.74l.66-.24c1.18,1.76,2.41,3.5,3.51,5.31,.63,1.03,1.48,1.31,2.53,1.04,1.03-.27,.69-1.21,.7-1.89,.04-2.41,.02-4.83,.01-7.24,0-.87,0-1.74-1.26-1.67-1.12,.06-1.01,.9-1.02,1.64-.02,1.52,0,3.03,0,4.55-1.78-1.61-2.96-3.3-4.04-5.05-.62-1.01-1.44-1.35-2.52-1.12-1.21,.26-.83,1.28-.85,2.04-.05,2.25-.05,4.49,0,6.74,.02,.82-.4,2,1.09,2.05,1.51,.06,1.15-1.11,1.17-1.95,.04-1.4,.01-2.81,.01-4.21Zm56.86,.45h-.01c0-1.49-.01-2.98,0-4.47,.01-.95-.41-1.31-1.36-1.29-.95,.02-1.12,.59-1.04,1.31,.19,1.76-.31,2.45-2.3,2.34-2.05-.12-3.33,1.77-3.3,4.16,.03,2.26,1.22,3.76,3.06,3.84q4.95,.21,4.95-4.88c0-.33,0-.66,0-.99Zm-17.06,1.93c0,.75-.01,1.5,0,2.24,.01,.75-.04,1.51,1.09,1.56,1.23,.06,1.33-.66,1.32-1.58,0-.91-.02-1.83,.03-2.74,.05-.9,.38-1.7,1.45-1.66,1.01,.04,1.06,.9,1.08,1.66,.04,1.08,.02,2.16,.04,3.24,0,.69,.33,1.08,1.06,1.06,.58-.02,1.29,.08,1.28-.77-.02-2.05,.6-4.23-.5-6.11-.98-1.68-2.58-.99-4.02-.54-.19,.06-.46-.1-.69-.18-1.72-.58-2.3,.16-2.16,1.81,.06,.66,0,1.33,.01,1.99Zm23.3-4.13c-2.67,0-4.26,1.55-4.24,4.11,.02,2.43,1.61,3.96,4.1,3.96,2.64,0,4.24-1.56,4.23-4.11,0-2.43-1.6-3.96-4.1-3.95Zm-48.36,3.96c0,.83,0,1.66,0,2.5,0,.82,.13,1.48,1.2,1.47,1.09,0,1.16-.69,1.17-1.49,.01-1.08,0-2.17,.1-3.24,.07-.71,.52-1.25,1.31-1.25,.85,0,1.12,.62,1.16,1.34,.05,1,.04,2,.05,2.99,0,.88,.02,1.68,1.28,1.65,1.12-.03,1.11-.77,1.11-1.54,0-.92,0-1.83,0-2.75,0-1.34,.13-3.04-1.45-3.34-1.78-.33-3.69-.03-5.53,.09-.16,.01-.36,.7-.38,1.08-.06,.83-.02,1.66-.02,2.49Zm6.49,94.34s-.05,0-.08,0c.09,1.14-.24,2.69,.38,3.33,1.07,1.12,2.81,.74,4.15,.14,1.15-.51,1.72-1.55,.97-2.86-.27-.48-.79-.82-.46-1.53,1.07-2.25-.36-2.7-2.15-2.95-2.05-.28-3.22,.29-2.82,2.62,.07,.4,0,.82,0,1.24Zm14.58-91.94c-.99,.06-2.41,.21-2.43-.97-.03-1.23,1.43-.47,2.21-.69,.15-.04,.33-.02,.49,0,1.84,.16,2.12-.81,1.69-2.31-.38-1.32-1.26-2.14-2.62-2.33-1.71-.24-3.17,.26-3.99,1.85-.91,1.75-.92,3.56,.47,5.09,1.36,1.5,3.14,1.22,4.87,.82,.52-.12,.85-.58,.72-1.14-.23-.98-.9-.32-1.41-.31Zm-8.16,1.68c.3-.13,1.01,.21,1.32-.48,.37-.81-.39-1.01-.79-1.5-1.08-1.34-1.45-2.91,.22-4.14,1.01-.75,.95-1.26-.1-1.75-.4-.19-.78-.36-.8-.83-.06-1.09-.64-1.72-1.55-1.03-1.01,.76-2.62,2.31-1.89,3.07,1.29,1.36,.86,2.7,.99,4.07,.15,1.5,.65,2.58,2.6,2.6Zm53.11,92.82c-.62-1.69-1.13-3.84-2.17-5.7-.72-1.3-1.96-1.05-2.55,.45-.67,1.7-1.27,3.42-1.88,5.14-.15,.44-.5,.99,.14,1.29,.47,.22,.96,.11,1.31-.38,1.21-1.67,2.4-1.88,3.61,.03,.3,.48,.84,.54,1.34,.34,.35-.13,.41-.48,.2-1.17Zm-70.74-96.87c0,.74-.02,1.48,0,2.22,.03,.79-.16,1.76,1.16,1.69,1.26-.07,1.08-1.01,1.1-1.8,.03-1.23,.05-2.47,0-3.7-.04-.83,.3-2.02-1.09-2.06-1.66-.05-1.03,1.32-1.16,2.17-.07,.48-.01,.98-.01,1.48Zm2.46-6.39c-.12-.78-.64-1.08-1.37-1.04-.75,.04-1.25,.42-1.19,1.22,.06,.77,.58,1.14,1.33,1.09,.74-.06,1.16-.49,1.23-1.26Z"/>
  <path class="cls-5" d="M321.76,406.91c-16.56,0-33.13,0-49.69,0-4.8,0-6.24-1.44-6.24-6.26,0-8.9-.01-17.81,0-26.71,0-4.1,1.66-5.76,5.75-5.76,33.54,0,67.09,0,100.63,0,4.3,0,5.82,1.55,5.83,5.9,.01,8.99,.01,17.97,0,26.96,0,4.37-1.48,5.86-5.84,5.87-16.81,0-33.63,0-50.44,0Zm-35.56-13.85c7.64,.41,15.28,.35,22.89-.33,2.96-.26,4.83-3.13,4.66-6.39-.15-2.89-2.05-4.98-4.8-5.29-.23-.08-.47-.22-.7-.23-7.54-.09-15.07-.18-22.61-.22-1.85-.01-3.38,.8-4.53,2.23-1.52,1.89-1.87,4.02-.99,6.3,1.07,2.76,3.34,3.72,6.08,3.93Zm50.94,0c5.03,.51,10.07,.05,15.1,.12,2.56,.03,5.14,.09,7.67-.4,2.76-.53,4.75-2.98,4.82-5.84,.07-2.87-1.75-5.22-4.55-5.9-8.09-.62-16.2-.47-24.31-.35-2.44,.04-4.11,1.7-4.99,3.93-1.63,4.16,1.1,7.8,6.25,8.44Z"/>
  <path class="cls-3" d="M321.63,315.35c17.22,0,34.44,0,51.65,0,5.35,0,6.61,1.28,6.61,6.63,0,2.49,0,4.99,0,7.48,0,5.04-1.35,6.42-6.32,6.43-6.9,0-13.81,0-20.71,0-27.53,0-55.06,0-82.6,0-5.5,0-6.74-1.24-6.74-6.76,0-2.25,0-4.49,0-6.74,0-5.9,1.13-7.06,6.95-7.06,15.64,0,31.27,0,46.91,0,1.41,0,2.83,0,4.24,0Z"/>
  <path class="cls-3" d="M321.26,288.98c18.46,0,36.93,.04,55.39-.05,2.16,0,2.92,.52,2.8,2.76-.19,3.65,0,7.32-.07,10.97-.06,3.96-1.57,5.44-5.46,5.44-34.85,0-69.7,0-104.55,0-4.36,0-6.25-1.89-6.28-6.21-.02-3.49,.11-6.99-.05-10.48-.09-2.04,.66-2.49,2.56-2.48,18.55,.06,37.09,.04,55.64,.04Z"/>
  <path class="cls-3" d="M321.7,362.23c-17.38,0-34.76,0-52.14,0-4.59,0-5.97-1.37-5.99-5.92-.01-2.99-.02-5.99,0-8.98,.03-3.98,1.61-5.58,5.64-5.58,17.05-.02,34.1,0,51.15,0,17.71,0,35.43,0,53.14,0,4.99,0,6.38,1.39,6.39,6.37,0,2.66,0,5.32,0,7.98-.01,4.74-1.38,6.13-6.05,6.14-17.38,0-34.76,0-52.14,0Zm-21.43-5.92c.55-.27,1.94,.21,1.91-1.09-.03-1.12-1.2-.44-1.84-.51-1.43-.14-2.11-.94-2.13-2.27-.02-1.44,.67-2.45,2.2-2.46,5.07-.04,4.93-.84,4.77,4.14,0,.25,0,.5,.01,.75,.04,.59,.06,1.23,.92,1.16,.66-.05,.73-.58,.75-1.09,.03-.75-.05-1.5,.04-2.24,.12-1.04-.57-2.47,1.23-2.78,.42-.07,.88-.21,.84-.72-.05-.69-.67-.61-1.14-.63-2.55-.14-5.1,.07-7.67-.12-2.23-.16-3.91,1.85-3.87,4.02,.03,2.23,1.54,3.78,3.98,3.84Zm56.88-3.95c0,.66-.05,1.33,.01,1.98,.06,.66-.32,1.64,.85,1.7,.99,.05,.87-.77,.96-1.41,.06-.39,.01-.88,.56-.96,.48-.07,.72,.32,.96,.65,.28,.41,.51,.85,.8,1.25,.39,.55,1.05,.72,1.54,.42,.82-.49-.04-.96-.23-1.41-.33-.79-1.24-1.42-.54-2.45,.66-.97,.94-2.08-.01-2.93-1.23-1.1-2.88-.9-4.26-.49-1.18,.35-.49,1.72-.65,2.63-.05,.32,0,.66,0,.99Zm-1.42,2.56c-.66-1.72-1.23-3.94-2.34-5.85-.61-1.04-1.92-.76-2.44,.63-.61,1.63-1.24,3.26-1.81,4.91-.14,.42-.61,.97-.05,1.33,.53,.35,1.09,.19,1.5-.39,1.15-1.62,2.34-1.75,3.49-.01,.33,.5,.74,.61,1.27,.51,.42-.08,.5-.36,.38-1.13Zm-81.53-.17c-.5,.02-1.27-.58-1.38,.39-.1,.9,.72,1.01,1.37,1.08,1.46,.17,2.96,.1,3.62-1.47,.67-1.63-.57-2.4-1.77-3.07-.49-.27-1.25-.45-1.15-1.13,.14-.9,.99-.66,1.62-.65,.41,0,.89,.09,.99-.45,.13-.65-.37-.87-.88-.96-1.48-.25-2.94-.16-3.65,1.37-.73,1.57,.26,2.46,1.62,3.08,.57,.26,1.47,.41,1.29,1.25-.19,.86-1.05,.55-1.68,.56Zm16.63-2.43c0,4,0,4.01,3.09,3.8,.57-.04,1.52,.31,1.5-.73-.01-.79-.82-.62-1.37-.68-.57-.06-1.26,0-1.29-.8-.04-.82,.63-.82,1.21-.88,.5-.05,1.05-.1,1.03-.78-.02-.54-.5-.56-.9-.61-.54-.08-1.28,.1-1.33-.74-.06-.97,.73-.91,1.38-.99,.5-.05,1.09-.11,1.02-.78-.07-.68-.72-.52-1.18-.58-3.02-.34-3.16-.17-3.16,3.76Zm46.68,2.44c-.29,.03-1.04-.67-1.2,.31-.14,.9,.64,1.05,1.32,1.08,1.41,.07,2.98,.27,3.64-1.38,.65-1.6-.5-2.42-1.73-3.1-.54-.3-1.44-.44-1.18-1.31,.19-.64,.95-.5,1.52-.49,.46,0,1.07,.28,1.14-.49,.08-.83-.63-.9-1.18-.94-1.36-.1-2.77-.04-3.39,1.45-.68,1.63,.44,2.42,1.71,3.06,.56,.28,1.47,.41,1.24,1.27-.22,.83-1.06,.54-1.9,.54Zm-58.26-2.4q0,4.01,3.15,3.76c.54-.04,1.32,.18,1.4-.62,.09-.84-.69-.72-1.24-.8-.54-.07-1.27,.13-1.38-.69-.14-1.03,.69-.92,1.32-.99,.42-.05,.87-.12,.93-.63,.07-.72-.51-.71-.99-.76-.56-.06-1.28,.05-1.28-.79,0-.97,.82-.83,1.44-.94,.59-.11,1.39-.46,.67-1.04-.85-.69-2.07-.31-3.13-.24-.9,.07-.87,.85-.89,1.51-.02,.74,0,1.49,0,2.23Zm90.4-3.13c0-.71-.51-.77-1.03-.78-1.08-.02-2.16-.05-3.24,0-.61,.03-1.5-.23-1.64,.68-.12,.83,.73,.71,1.24,.87,.73,.23,.72,.84,.73,1.42,.03,1-.01,2,.03,2.99,.03,.62-.21,1.51,.73,1.59,1.19,.11,.84-.93,.99-1.6,.36-1.7-1.19-4.19,1.95-4.76,.1-.02,.16-.27,.23-.41Zm-24.38-.65s0,.03,0,.04c-.82,0-1.66-.09-2.47,.03-.66,.09-.78,.89-.26,1,2.85,.61,1.46,2.83,1.8,4.39,.16,.72-.41,1.94,.84,1.95,1.29,.01,.71-1.21,.85-1.93,.06-.32-.01-.66,.01-.99,.11-1.35-.63-3.15,1.75-3.33,.13,0,.33-.37,.34-.58,.02-.38-.28-.57-.64-.58-.74-.02-1.49,0-2.23,0Zm-59.98,3.73s-.02,0-.03,0c0,.41,0,.82,0,1.24,.02,2.39,1.5,3.36,3.83,2.54,.35-.12,.67-.29,.6-.63-.05-.26-.4-.66-.59-.65-2.4,.16-2.03-1.52-2.03-2.97,0-.74,0-1.48-.03-2.23-.02-.54-.22-.97-.86-.97-.63,0-.86,.42-.88,.95-.03,.91,0,1.81,0,2.72Z"/>
  <path class="cls-3" d="M322.12,424.74c-18.47,0-36.93-.04-55.4,.05-2.21,.01-3.05-.57-2.74-2.77,.14-.98-.02-2,.05-2.99,.17-2.66,1.57-4.1,4.22-4.34,.66-.06,1.33-.03,2-.03,34.52,0,69.04,0,103.56,0,.83,0,1.68-.03,2.49,.1,3.34,.55,5.91,6.93,3.82,9.54-.66,.82-1.72,.42-2.6,.42-17.47,.02-34.94,.02-52.4,.02-1,0-2,0-2.99,0Z"/>
  <path class="cls-5" d="M198.66,407.39c-4.49,0-8.99-.07-13.48,.03-2.17,.04-2.96-.85-2.94-2.97,.07-5.91-.04-11.81,.06-17.72,.04-2.27-.83-3.12-3.08-3.09-5.57,.09-11.15-.03-16.72,.06-2.17,.04-2.95-.8-2.93-2.94,.07-8.98,.07-17.97,0-26.95-.02-2.17,.79-2.94,2.94-2.9,5.49,.1,10.98,.05,16.47,.03,2.92-.01,3.29-.4,3.29-3.32,0-5.49,.07-10.98-.03-16.47-.04-2.28,.84-3.08,3.1-3.06,8.82,.08,17.64,.09,26.46,0,2.43-.03,3.2,.87,3.14,3.23-.13,5.07-.04,10.15-.04,15.22,0,4.29,.12,4.41,4.54,4.41,5.41,0,10.82,.07,16.22-.03,2.18-.04,2.93,.78,2.91,2.93-.08,8.98-.07,17.97,0,26.95,.02,2.16-.8,2.95-2.95,2.92-5.82-.09-11.65,.03-17.47-.06-2.35-.04-3.31,.84-3.27,3.22,.09,5.82-.04,11.65,.06,17.47,.04,2.25-.72,3.15-3.03,3.09-4.41-.12-8.82-.03-13.23-.03Zm-36.49-40.05c0,3.83,.11,7.66-.05,11.48-.08,1.95,.59,2.34,2.4,2.3,6.15-.11,12.31,.05,18.47-.09,2.05-.05,2.46,.64,2.43,2.53-.11,6.24,.02,12.48-.08,18.71-.03,1.73,.46,2.28,2.23,2.26,7.65-.09,15.31-.09,22.96,0,1.71,.02,2.28-.43,2.25-2.21-.1-6.32,.04-12.64-.09-18.96-.04-1.94,.59-2.34,2.4-2.31,6.24,.11,12.48-.02,18.72,.08,1.77,.03,2.23-.52,2.21-2.24-.09-7.65-.11-15.31,.01-22.96,.03-1.98-.66-2.31-2.43-2.28-6.32,.1-12.65-.01-18.97,.08-1.56,.02-1.95-.44-1.93-1.96,.09-6.4-.02-12.81,.07-19.21,.02-1.7-.4-2.29-2.2-2.27-7.65,.09-15.31,.11-22.96,0-2-.03-2.31,.71-2.28,2.46,.09,6.24-.05,12.48,.09,18.71,.04,1.94-.56,2.32-2.37,2.29-6.32-.11-12.65,0-18.97-.08-1.56-.02-1.99,.46-1.95,1.97,.1,3.91,.03,7.82,.03,11.73Z"/>
  <path class="cls-5" d="M419.73,365.98c5.74,0,11.48-.02,17.22,0,3.01,.01,4.02,1.04,4.03,4.06,.02,11.48,.02,22.96,0,34.44,0,2.96-1.08,4.01-4.11,4.02-11.4,.02-22.8,.02-34.2,0-3.17,0-4.12-.99-4.13-4.23-.02-11.4-.02-22.79,0-34.19,0-3.22,.91-4.09,4.21-4.1,5.66-.02,11.32,0,16.97,0Zm.41,3.56c-9.72,0-17.53,7.82-17.57,17.59-.04,9.85,7.93,17.86,17.69,17.78,9.72-.08,17.59-7.95,17.64-17.64,.04-9.78-7.92-17.74-17.75-17.74Z"/>
  <path class="cls-5" d="M450.52,387.16c0-5.66-.02-11.31,0-16.97,.01-3.21,.99-4.2,4.14-4.21,11.4-.02,22.79-.02,34.19,0,3.13,0,4.12,1.01,4.13,4.22,.02,11.31,.02,22.62,0,33.93,0,3.36-.99,4.37-4.27,4.37-11.31,.02-22.63,.02-33.94,0-3.27,0-4.24-1.02-4.25-4.39-.02-5.65,0-11.31,0-16.97Zm21.58,18.07c9.76,.04,17.65-7.73,17.78-17.51,.13-9.75-7.92-17.89-17.7-17.9-9.65-.01-17.59,7.96-17.61,17.69-.03,9.8,7.76,17.68,17.53,17.72Z"/>
  <path class="cls-4" d="M413.41,319.42c0,1.4,.03,2.81-.01,4.21-.03,.84,.34,2.01-1.17,1.95-1.49-.06-1.07-1.24-1.09-2.05-.05-2.25-.05-4.49,0-6.74,.02-.75-.36-1.78,.85-2.04,1.08-.23,1.9,.11,2.52,1.12,1.07,1.75,2.25,3.44,4.04,5.05,0-1.52-.01-3.03,0-4.55,0-.73-.1-1.57,1.02-1.64,1.25-.07,1.26,.8,1.26,1.67,0,2.41,.03,4.83-.01,7.24-.01,.68,.33,1.62-.7,1.89-1.05,.27-1.9,0-2.53-1.04-1.11-1.81-2.34-3.54-3.51-5.31l-.66,.24Z"/>
  <path class="cls-4" d="M470.27,319.87c0,.33,0,.66,0,.99q0,5.09-4.95,4.88c-1.84-.08-3.03-1.57-3.06-3.84-.03-2.39,1.25-4.28,3.3-4.16,1.99,.12,2.49-.58,2.3-2.34-.08-.72,.09-1.29,1.04-1.31,.95-.02,1.38,.34,1.36,1.29-.02,1.49,0,2.98,0,4.47h.01Zm-5.59,1.91c.08,1.1,.38,2.16,1.64,2.11,1.38-.06,1.62-1.25,1.63-2.37,.01-.99-.35-1.89-1.49-1.93-1.46-.04-1.65,1.1-1.78,2.19Z"/>
  <path class="cls-4" d="M453.21,321.8c0-.66,.04-1.33-.01-1.99-.14-1.65,.44-2.39,2.16-1.81,.23,.08,.5,.24,.69,.18,1.44-.45,3.04-1.14,4.02,.54,1.1,1.88,.48,4.06,.5,6.11,0,.85-.71,.75-1.28,.77-.73,.02-1.05-.37-1.06-1.06-.02-1.08,0-2.16-.04-3.24-.03-.76-.08-1.61-1.08-1.66-1.06-.04-1.39,.76-1.45,1.66-.05,.91-.04,1.83-.03,2.74,0,.92-.1,1.64-1.32,1.58-1.13-.06-1.07-.81-1.09-1.56-.01-.75,0-1.5,0-2.24Z"/>
  <path class="cls-4" d="M476.51,317.68c2.51,0,4.09,1.52,4.1,3.95,0,2.55-1.59,4.1-4.23,4.11-2.49,0-4.08-1.52-4.1-3.96-.02-2.56,1.56-4.1,4.24-4.11Zm1.62,3.93c-.04-1.08-.33-2.02-1.63-2.03-1.41,0-1.76,1.03-1.8,2.18-.03,1.21,.45,2.2,1.8,2.16,1.41-.03,1.6-1.17,1.62-2.31Z"/>
  <path class="cls-4" d="M428.16,321.64c0-.83-.04-1.67,.02-2.49,.03-.38,.23-1.07,.38-1.08,1.85-.12,3.75-.43,5.53-.09,1.59,.3,1.46,2,1.45,3.34,0,.92,0,1.83,0,2.75,0,.77,.01,1.51-1.11,1.54-1.26,.04-1.27-.77-1.28-1.65,0-1,0-2-.05-2.99-.04-.72-.31-1.34-1.16-1.34-.79,0-1.24,.53-1.31,1.25-.1,1.07-.09,2.16-.1,3.24,0,.81-.08,1.49-1.17,1.49-1.07,0-1.2-.65-1.2-1.47,0-.83,0-1.66,0-2.5Z"/>
  <path class="cls-4" d="M434.64,415.98c0-.41,.06-.83,0-1.24-.39-2.33,.77-2.9,2.82-2.62,1.78,.24,3.21,.69,2.15,2.95-.33,.7,.19,1.05,.46,1.53,.75,1.31,.17,2.35-.97,2.86-1.35,.6-3.09,.99-4.15-.14-.61-.65-.28-2.19-.38-3.33,.03,0,.05,0,.08,0Z"/>
  <path class="cls-4" d="M449.23,324.04c.5-.01,1.17-.67,1.41,.31,.13,.56-.2,1.02-.72,1.14-1.73,.4-3.51,.67-4.87-.82-1.39-1.53-1.37-3.33-.47-5.09,.82-1.59,2.29-2.09,3.99-1.85,1.36,.19,2.23,1.01,2.62,2.33,.43,1.5,.15,2.47-1.69,2.31-.16-.01-.34-.04-.49,0-.77,.22-2.23-.54-2.21,.69,.02,1.18,1.44,1.03,2.43,.97Zm-1.45-3.04c.54-.07,1.24,.06,1.16-.82-.05-.57-.51-.83-1.02-.86-.75-.04-1.31,.38-1.29,1.12,.01,.64,.69,.52,1.16,.56Z"/>
  <path class="cls-4" d="M441.06,325.72c-1.95-.02-2.45-1.09-2.6-2.6-.14-1.37,.3-2.7-.99-4.07-.72-.76,.88-2.32,1.89-3.07,.92-.69,1.5-.05,1.55,1.03,.02,.47,.4,.64,.8,.83,1.05,.49,1.11,1,.1,1.75-1.66,1.23-1.29,2.81-.22,4.14,.4,.49,1.15,.69,.79,1.5-.31,.69-1.02,.35-1.32,.48Z"/>
  <path class="cls-4" d="M494.17,418.54c.21,.69,.14,1.04-.2,1.17-.5,.19-1.03,.14-1.34-.34-1.2-1.91-2.4-1.7-3.61-.03-.35,.48-.84,.6-1.31,.38-.64-.3-.29-.86-.14-1.29,.61-1.72,1.21-3.45,1.88-5.14,.59-1.5,1.83-1.74,2.55-.45,1.03,1.86,1.55,4.01,2.17,5.7Zm-3.43-4.36c-.33,1.04-1.1,1.7-.32,2.51,.12,.13,.57,.15,.68,.04,.8-.77,.22-1.46-.37-2.55Z"/>
  <path class="cls-4" d="M423.43,321.67c0-.49-.06-1,.01-1.48,.13-.86-.5-2.22,1.16-2.17,1.39,.04,1.05,1.22,1.09,2.06,.05,1.23,.04,2.47,0,3.7-.02,.79,.16,1.73-1.1,1.8-1.32,.07-1.13-.89-1.16-1.69-.03-.74,0-1.48,0-2.22Z"/>
  <path class="cls-4" d="M425.89,315.28c-.07,.76-.49,1.2-1.23,1.26-.75,.06-1.28-.31-1.33-1.09-.06-.79,.44-1.18,1.19-1.22,.73-.03,1.25,.26,1.37,1.04Z"/>
  <path class="cls-3" d="M360.18,381.04c2.8,.67,4.62,3.02,4.55,5.9-.07,2.87-2.06,5.32-4.82,5.84-2.53,.48-5.11,.43-7.67,.4-5.03-.06-10.07,.39-15.1-.12-.11-1.23-1.13-.94-1.88-1.15-2.63-.75-3.93-2.99-3.54-6.03,.28-2.16,2.24-3.63,4.75-3.8,7.03-.49,14.07-.39,21.11-.48,.9-.01,1.85,.16,2.6-.55Z"/>
  <path class="cls-3" d="M308.94,381.05c2.75,.3,4.65,2.39,4.8,5.29,.17,3.26-1.7,6.13-4.66,6.39-7.61,.68-15.25,.74-22.89,.33-.11-1.36-1.34-1-2.09-1.31-2.44-1.02-3.79-3.44-3.27-6.01,.44-2.16,2.38-3.49,4.89-3.67,6.86-.5,13.72-.38,20.59-.46,.91-.01,1.83,.04,2.62-.55Z"/>
  <path class="cls-1" d="M360.18,381.04c-.75,.71-1.7,.54-2.6,.55-7.04,.08-14.08-.01-21.11,.48-2.52,.18-4.47,1.64-4.75,3.8-.39,3.04,.91,5.28,3.54,6.03,.74,.21,1.77-.08,1.88,1.15-5.15-.64-7.89-4.27-6.25-8.44,.88-2.23,2.55-3.89,4.99-3.93,8.1-.12,16.21-.27,24.31,.35Z"/>
  <path class="cls-1" d="M308.94,381.05c-.79,.59-1.71,.54-2.62,.55-6.86,.09-13.73-.04-20.59,.46-2.51,.18-4.46,1.52-4.89,3.67-.52,2.56,.83,4.98,3.27,6.01,.75,.32,1.98-.05,2.09,1.31-2.74-.2-5-1.16-6.08-3.93-.88-2.28-.53-4.4,.99-6.3,1.15-1.43,2.68-2.24,4.53-2.23,7.54,.05,15.07,.14,22.61,.22,.24,0,.47,.15,.7,.23Z"/>
  <path class="cls-4" d="M300.28,356.31c-2.43-.06-3.94-1.61-3.98-3.84-.03-2.17,1.64-4.18,3.87-4.02,2.57,.19,5.12-.02,7.67,.12,.47,.03,1.09-.06,1.14,.63,.04,.51-.42,.65-.84,.72-1.8,.31-1.1,1.75-1.23,2.78-.09,.74-.01,1.49-.04,2.24-.02,.51-.09,1.03-.75,1.09-.85,.07-.88-.56-.92-1.16-.02-.25-.02-.5-.01-.75,.16-4.99,.3-4.18-4.77-4.14-1.53,.01-2.22,1.02-2.2,2.46,.02,1.34,.69,2.13,2.13,2.27,.64,.06,1.81-.61,1.84,.51,.03,1.3-1.36,.82-1.91,1.09Z"/>
  <path class="cls-4" d="M357.16,352.36c0-.33-.05-.67,0-.99,.16-.91-.53-2.28,.65-2.63,1.38-.41,3.02-.61,4.26,.49,.96,.85,.68,1.96,.01,2.93-.7,1.03,.21,1.66,.54,2.45,.19,.44,1.04,.91,.23,1.41-.49,.3-1.15,.12-1.54-.42-.29-.4-.52-.85-.8-1.25-.23-.33-.47-.72-.96-.65-.55,.08-.5,.57-.56,.96-.09,.63,.02,1.46-.96,1.41-1.18-.06-.8-1.04-.85-1.7-.06-.66-.01-1.32-.01-1.98Z"/>
  <path class="cls-4" d="M355.74,354.92c.12,.77,.04,1.05-.38,1.13-.53,.1-.93-.01-1.27-.51-1.15-1.74-2.34-1.61-3.49,.01-.41,.57-.97,.74-1.5,.39-.56-.36-.09-.92,.05-1.33,.57-1.65,1.19-3.28,1.81-4.91,.52-1.39,1.83-1.67,2.44-.63,1.11,1.91,1.68,4.13,2.34,5.85Z"/>
  <path class="cls-4" d="M274.21,354.75c.63,0,1.49,.29,1.68-.56,.18-.84-.73-.99-1.29-1.25-1.35-.62-2.35-1.51-1.62-3.08,.71-1.53,2.18-1.62,3.65-1.37,.51,.09,1,.31,.88,.96-.1,.54-.58,.46-.99,.45-.63,0-1.48-.25-1.62,.65-.11,.68,.65,.85,1.15,1.13,1.21,.67,2.45,1.44,1.77,3.07-.65,1.57-2.15,1.64-3.62,1.47-.66-.07-1.48-.18-1.37-1.08,.11-.97,.88-.37,1.38-.39Z"/>
  <path class="cls-4" d="M290.84,352.32c0-3.93,.14-4.1,3.16-3.76,.46,.05,1.11-.1,1.18,.58,.07,.67-.52,.72-1.02,.78-.65,.07-1.44,.02-1.38,.99,.05,.83,.79,.66,1.33,.74,.41,.06,.89,.07,.9,.61,.02,.68-.53,.73-1.03,.78-.58,.06-1.25,.06-1.21,.88,.04,.81,.72,.75,1.29,.8,.55,.06,1.35-.11,1.37,.68,.02,1.04-.93,.69-1.5,.73-3.09,.22-3.09,.2-3.09-3.8Z"/>
  <path class="cls-4" d="M337.53,354.76c.83,0,1.68,.28,1.9-.54,.23-.86-.68-.99-1.24-1.27-1.27-.64-2.39-1.43-1.71-3.06,.62-1.48,2.02-1.55,3.39-1.45,.55,.04,1.26,.11,1.18,.94-.07,.77-.69,.49-1.14,.49-.57,0-1.32-.14-1.52,.49-.26,.87,.64,1.01,1.18,1.31,1.23,.68,2.37,1.49,1.73,3.1-.67,1.65-2.23,1.46-3.64,1.38-.68-.04-1.46-.18-1.32-1.08,.16-.98,.91-.28,1.2-.31Z"/>
  <path class="cls-4" d="M279.26,352.36c0-.74-.01-1.49,0-2.23,.02-.66-.01-1.44,.89-1.51,1.06-.08,2.29-.45,3.13,.24,.71,.58-.08,.93-.67,1.04-.63,.12-1.45-.03-1.44,.94,0,.84,.72,.73,1.28,.79,.49,.05,1.07,.05,.99,.76-.05,.5-.5,.58-.93,.63-.63,.07-1.46-.04-1.32,.99,.11,.82,.84,.62,1.38,.69,.55,.07,1.33-.05,1.24,.8-.08,.8-.87,.58-1.4,.62q-3.16,.26-3.15-3.76Z"/>
  <path class="cls-4" d="M369.67,349.24c-.08,.14-.13,.39-.23,.41-3.14,.58-1.58,3.07-1.95,4.76-.14,.67,.2,1.71-.99,1.6-.94-.08-.7-.98-.73-1.59-.05-1,0-1.99-.03-2.99-.02-.57,0-1.19-.73-1.42-.51-.16-1.37-.04-1.24-.87,.14-.91,1.03-.65,1.64-.68,1.08-.05,2.16-.02,3.24,0,.51,0,1.02,.07,1.03,.78Z"/>
  <path class="cls-4" d="M345.29,348.59c.74,0,1.49-.01,2.23,0,.36,0,.66,.2,.64,.58,0,.21-.21,.57-.34,.58-2.38,.18-1.64,1.98-1.75,3.33-.03,.33,.05,.67-.01,.99-.14,.72,.44,1.94-.85,1.93-1.26-.01-.69-1.23-.84-1.95-.34-1.55,1.05-3.78-1.8-4.39-.52-.11-.4-.91,.26-1,.81-.11,1.65-.03,2.47-.03,0-.01,0-.03,0-.04Z"/>
  <path class="cls-4" d="M285.31,352.32c0-.91-.02-1.81,0-2.72,.02-.53,.25-.96,.88-.95,.63,0,.84,.44,.86,.97,.03,.74,.03,1.48,.03,2.23,0,1.45-.37,3.12,2.03,2.97,.19-.01,.54,.39,.59,.65,.07,.34-.25,.51-.6,.63-2.33,.82-3.81-.15-3.83-2.54,0-.41,0-.82,0-1.24,.01,0,.02,0,.03,0Z"/>
  <path class="cls-1" d="M162.17,367.34c0-3.91,.06-7.82-.03-11.73-.04-1.52,.39-1.99,1.95-1.97,6.32,.09,12.65-.03,18.97,.08,1.81,.03,2.41-.35,2.37-2.29-.14-6.24,0-12.48-.09-18.71-.03-1.75,.28-2.49,2.28-2.46,7.65,.12,15.31,.1,22.96,0,1.79-.02,2.22,.57,2.2,2.27-.09,6.4,.01,12.81-.07,19.21-.02,1.52,.37,1.99,1.93,1.96,6.32-.09,12.65,.02,18.97-.08,1.77-.03,2.46,.3,2.43,2.28-.12,7.65-.1,15.3-.01,22.96,.02,1.72-.44,2.27-2.21,2.24-6.24-.1-12.48,.03-18.72-.08-1.81-.03-2.44,.36-2.4,2.31,.13,6.32-.01,12.64,.09,18.96,.03,1.78-.54,2.23-2.25,2.21-7.65-.08-15.31-.09-22.96,0-1.76,.02-2.25-.53-2.23-2.26,.09-6.24-.03-12.48,.08-18.71,.03-1.89-.37-2.57-2.43-2.53-6.15,.15-12.31-.02-18.47,.09-1.81,.03-2.48-.36-2.4-2.3,.16-3.82,.05-7.65,.05-11.48Z"/>
  <path class="cls-4" d="M420.14,369.55c9.83,0,17.8,7.95,17.75,17.74-.04,9.69-7.92,17.56-17.64,17.64-9.76,.08-17.73-7.94-17.69-17.78,.04-9.77,7.85-17.59,17.57-17.59Z"/>
  <path class="cls-4" d="M472.1,405.23c-9.76-.04-17.55-7.92-17.53-17.72,.03-9.72,7.97-17.7,17.61-17.69,9.78,.01,17.83,8.16,17.7,17.9-.13,9.79-8.02,17.55-17.78,17.51Z"/>
  <path class="cls-1" d="M464.68,321.79c.13-1.09,.32-2.24,1.78-2.19,1.14,.03,1.5,.93,1.49,1.93-.02,1.13-.26,2.32-1.63,2.37-1.26,.05-1.56-1.01-1.64-2.11Z"/>
  <path class="cls-1" d="M478.13,321.61c-.02,1.14-.21,2.28-1.62,2.31-1.34,.03-1.83-.96-1.8-2.16,.03-1.15,.39-2.19,1.8-2.18,1.3,0,1.58,.95,1.62,2.03Z"/>
  <path class="cls-1" d="M447.77,320.99c-.47-.04-1.14,.08-1.15-.56-.02-.74,.54-1.16,1.29-1.12,.5,.03,.96,.29,1.02,.86,.08,.89-.62,.76-1.16,.82Z"/>
  <path class="cls-1" d="M490.74,414.17c.59,1.08,1.16,1.78,.37,2.55-.12,.11-.56,.09-.68-.04-.78-.81,0-1.47,.32-2.51Z"/>
  <path class="cls-1" d="M438.59,414.29c0,.95-1.85,1.65-2.62,.86-.11-.12-.18-1.41-.05-1.53,.81-.78,2.2-.4,2.67,.68Z"/>
  <path class="cls-1" d="M439.19,417.5c0,.95-2.25,1.65-3.19,.86-.14-.12-.21-1.41-.06-1.53,.99-.78,2.68-.4,3.25,.68Z"/>
  <circle class="cls-6" cx="199.05" cy="368.17" r="8.57"/>
</svg>