<?xml version="1.0" encoding="utf-8"?>
<svg width="164" height="164" version="1.1" xmlns="http://www.w3.org/2000/svg">
  <title>10 by 10 orthogonal maze</title>
  <desc>10 by 10 orthogonal maze generated by The Maze Generator Website (https://www.mazegenerator.net/).</desc>
  <g fill="none" stroke="#FFFFFF" stroke-width="2" stroke-linecap="square">
    <line x1="2" y1="2" x2="81.372" y2="2"/>
    <line x1="82" y1="2" x2="162" y2="2"/>
    <path d="M 50.251 17.999 L 98 18"/>
    <line x1="114" y1="18" x2="146" y2="18"/>
    <line x1="66" y1="34" x2="130" y2="34"/>
    <line x1="146" y1="34" x2="162" y2="34"/>
    <line x1="50.024" y1="66.031" x2="50" y2="50"/>
    <line x1="82" y1="50" x2="146" y2="50"/>
    <line x1="50" y1="66" x2="114" y2="66"/>
    <line x1="130" y1="66" x2="162" y2="66"/>
    <line x1="49.856" y1="81.972" x2="66" y2="82"/>
    <line x1="82" y1="82" x2="98" y2="82"/>
    <line x1="114" y1="82" x2="146" y2="82"/>
    <line x1="66" y1="98" x2="82" y2="98"/>
    <line x1="98" y1="98" x2="114" y2="98"/>
    <line x1="130" y1="98" x2="146" y2="98"/>
    <line x1="17.934" y1="113.94" x2="34.027" y2="114.008"/>
    <line x1="82" y1="114" x2="98" y2="114"/>
    <line x1="50" y1="130" x2="82" y2="130"/>
    <line x1="114" y1="130" x2="162" y2="130"/>
    <line x1="34" y1="146" x2="66" y2="146"/>
    <line x1="82" y1="146" x2="146" y2="146"/>
    <line x1="2" y1="162" x2="82" y2="162"/>
    <line x1="82.274" y1="162.065" x2="162" y2="162"/>
    <line x1="2" y1="2" x2="2.226" y2="145.068"/>
    <line x1="18" y1="2" x2="18" y2="34"/>
    <line x1="18" y1="50" x2="18" y2="82"/>
    <line x1="18.096" y1="97.669" x2="18" y2="114"/>
    <line x1="17.957" y1="130.903" x2="17.881" y2="145.002"/>
    <line x1="34" y1="18" x2="34" y2="66"/>
    <line x1="34" y1="82" x2="34" y2="98"/>
    <line x1="34" y1="114" x2="34" y2="146"/>
    <line x1="49.931" y1="18.04" x2="50" y2="50"/>
    <line x1="50" y1="82" x2="49.919" y2="129.867"/>
    <line x1="66" y1="18" x2="66" y2="50"/>
    <line x1="82" y1="66" x2="82" y2="82"/>
    <line x1="82" y1="98" x2="82" y2="114"/>
    <line x1="82" y1="130" x2="82" y2="162"/>
    <line x1="98" y1="82" x2="98" y2="98"/>
    <line x1="98" y1="114" x2="98" y2="146"/>
    <path d="M 113.971 17.972 C 113.971 23.838 114.023 40.713 114.023 30.847"/>
    <line x1="114" y1="66" x2="114" y2="82"/>
    <line x1="114" y1="98" x2="114" y2="130"/>
    <line x1="130" y1="34" x2="130" y2="66"/>
    <line x1="130" y1="114" x2="130" y2="130"/>
    <line x1="146" y1="82" x2="146" y2="114"/>
    <line x1="162.517" y1="17.603" x2="162" y2="162"/>
    <line x1="2.217" y1="114.135" x2="18" y2="114"/>
    <line x1="2.353" y1="145.094" x2="17.881" y2="145.002"/>
    <line x1="34" y1="82" x2="18.107" y2="81.925"/>
    <line x1="33.85" y1="34.067" x2="18" y2="34"/>
  </g>
  <g transform="matrix(0.03019, 0, 0, 0.028854, -0.346778, 143.257126)" style="">
    <path fill="#FFFFFF" d="M 2431.854 223.69 C 2448.37 225.028 2462.677 212.757 2464.014 196.298 C 2465.293 179.84 2453.022 165.534 2436.506 164.138 C 2420.164 162.917 2405.742 175.188 2404.52 191.646 C 2403.124 207.988 2415.395 222.41 2431.853 223.69"/>
    <path fill="#FFFFFF" d="M 2406.554 235.96 C 2412.428 231.831 2419.581 229.098 2427.548 229.796 C 2437.784 230.61 2446.158 236.949 2451.276 244.684 L 2481.401 304.41 L 2522.517 332.732 C 2526.006 335.407 2528.216 339.768 2527.751 344.538 C 2527.169 351.923 2520.714 357.449 2513.328 356.809 C 2511.06 356.692 2509.199 355.762 2507.163 354.831 L 2462.325 323.95 C 2460.93 322.845 2459.825 321.45 2458.894 319.996 L 2447.67 297.606 L 2434.12 357.158 L 2487.1 419.734 C 2488.321 421.653 2489.136 423.921 2489.601 426.189 L 2503.907 501.734 C 2503.791 503.42 2504.023 504.467 2503.907 505.805 C 2503.093 517.087 2493.323 525.229 2482.215 524.415 C 2472.968 523.659 2466.164 516.855 2464.012 508.422 L 2450.52 437.646 L 2407.426 390.54 L 2397.481 436.425 C 2397.132 438.577 2394.283 443.113 2393.468 444.916 L 2352.119 514.587 C 2348.048 520.926 2341.127 524.997 2333.277 524.357 C 2322.053 523.543 2313.737 513.773 2314.667 502.607 C 2314.9 499.466 2316.238 496.152 2317.401 493.883 L 2355.784 429.504 L 2387.828 287.604 L 2366.892 304.527 L 2355.784 355.065 C 2354.272 361.579 2348.398 366.871 2341.478 366.347 C 2333.976 365.766 2328.509 359.311 2329.091 351.808 C 2329.091 351.227 2329.207 350.645 2329.323 349.947 L 2342.466 291.035 C 2343.28 288.535 2344.618 286.267 2346.595 284.522 L 2406.554 235.962 L 2406.554 235.96 Z"/>
  </g>
</svg>