<?xml version="1.0" encoding="UTF-8"?>
<svg id="Crack" xmlns="http://www.w3.org/2000/svg" viewBox="0 0 651.42 528.92">
  <defs>
    <style>
      .cls-1 {
        fill: #e7e2d1;
      }

      .cls-2 {
        fill: #919191;
      }

      .cls-3 {
        fill: #bfc3b2;
      }

      .cls-4 {
        fill: #a4cbd2;
      }

      .cls-5 {
        fill: #414547;
      }

      .cls-6 {
        fill: #636363;
      }

      .cls-7 {
        fill: #777979;
      }

      .cls-8 {
        fill: #61696f;
      }

      .cls-9 {
        stroke-width: 5px;
      }

      .cls-9, .cls-10 {
        fill: none;
        stroke: #231f20;
        stroke-miterlimit: 10;
      }

      .cls-10 {
        stroke-width: 4.2px;
      }
    </style>
  </defs>
  <path class="cls-2" d="M634.3,52.27c0-12.87-6.9-21.27-19.51-24.46-4.83-1.22-9.66-2.02-14.73-2.02-180.4,.08-360.8,.06-541.2,.09-21.89,0-32.21,10.17-32.22,31.69-.02,129.02-.02,258.03,0,387.05,0,22.03,10.44,32.26,32.75,32.28,47.42,.02,94.84,0,142.25,.08,4.14,0,8.68-1.21,12.07,2.58,3.86-2.04,7.92-2.69,12.32-2.69,78.76,.12,157.52,.14,236.28,.18,46.34-.05,92.68-.02,139.03-.18,21.65-.07,32.95-10.03,32.96-29.01,.05-131.87,.04-263.74-.01-395.6Z"/>
  <path class="cls-3" d="M59.98,441.93c-9.66-2.17-9.91-8.95-9.9-16.38,.11-80.27,.09-160.55,.05-240.82-.02-38.66-.19-77.32-.29-115.98,2.16-.7,2.95-2.23,2.98-4.22,2.65-2.33,5.82-3.55,9.45-3.81,4.01,2.4,8.51,1.37,12.78,1.37,165.66,.05,331.32,.05,496.98,.01,7.53,0,15.06-.38,22.59-.58,2.01,.43,4.01,.87,6.02,1.3,.99,2.85,1.99,5.68,5.34,6.96-.05,119.83-.09,239.65-.14,359.48-1.52,1.36-1.73,2.93-.89,4.68-1.58,3.51-4.95,5.43-7.94,7.67-3.55-.24-7.09-.67-10.64-.67-171.54-.03-343.09-.02-514.63,.03-3.92,0-7.85,.61-11.77,.94Z"/>
  <g>
    <path class="cls-6" d="M605.86,429.26c-1.52,1.36-1.73,2.93-.89,4.68-1.58,3.51-4.95,5.43-7.94,7.67-3.55-.24-7.09-.67-10.64-.67-171.54-.03-343.09-.02-514.63,.03-3.92,0-7.85,.61-11.77,.94-9.66-2.17-9.91-8.95-9.9-16.38,.02-14.97,.03-29.95,.04-44.92-8.38,4.96-16.22,9.9-23.49,14.74,0,16.42,0,32.84,0,49.26,0,22.03,10.44,32.26,32.75,32.28,47.42,.02,94.84,0,142.25,.08,4.14,0,8.68-1.21,12.07,2.58,3.86-2.04,7.92-2.69,12.32-2.69,78.76,.12,157.52,.14,236.28,.18,46.34-.05,92.68-.02,139.03-.18,21.65-.07,32.95-10.03,32.96-29.01,0-15.28,0-30.56,0-45.84-8.89-7.21-18.35-14.31-28.44-21.2,0,16.14-.01,32.29-.02,48.43Z"/>
    <path class="cls-1" d="M59.99,441.93c3.92-.33,7.85-.94,11.77-.94,171.55-.05,343.09-.06,514.63-.03,3.55,0,7.09,.43,10.64,.67,2.99-2.25,6.36-4.16,7.94-7.67-.85-1.75-.63-3.32,.89-4.68,0-16.14,.01-32.29,.02-48.43-7.42-5.07-15.16-10.02-23.26-14.82-160.73-95.26-364.28-73.18-506.09,0-9.33,4.82-18.13,9.72-26.41,14.62-.01,14.97-.02,29.95-.04,44.92,0,7.42,.25,14.21,9.9,16.38Z"/>
  </g>
  <path class="cls-8" d="M68.78,435.67c-9.34-2.1-9.59-8.66-9.58-15.84,.1-77.64,.09-155.27,.05-232.91-.02-37.39-.18-74.78-.28-112.17,2.08-.68,2.85-2.16,2.89-4.08,2.57-2.25,5.63-3.43,9.14-3.68,3.88,2.32,8.23,1.32,12.37,1.32,160.22,.05,320.44,.05,480.66,.01,7.28,0,14.56-.37,21.84-.56,1.94,.42,3.88,.84,5.83,1.25,.95,2.75,1.92,5.49,5.17,6.73-.04,115.89-.09,231.78-.13,347.67-1.47,1.32-1.68,2.84-.86,4.53-1.53,3.39-4.79,5.25-7.68,7.42-3.43-.23-6.86-.65-10.29-.65-165.91-.03-331.82-.02-497.73,.03-3.8,0-7.59,.59-11.39,.91Z"/>
  <g>
    <path class="cls-5" d="M106.32,89.59c73.71-.05,147.42-.02,221.13-.02,73.71,0,147.42-.02,221.13,.02,8.13,0,13.1,1,16.11,3.71l29.55-19.57c-1.34-1.39-1.99-3.22-2.62-5.07-1.95-.42-3.89-.84-5.83-1.25-7.28,.19-14.56,.56-21.84,.56-160.22,.04-320.44,.04-480.66-.01-4.13,0-8.48,1-12.37-1.32-3.51,.25-6.57,1.43-9.14,3.68-.02,1.11-.29,2.07-.91,2.82l30.43,20.07c2.99-2.55,7.82-3.61,15.02-3.61Z"/>
    <path class="cls-7" d="M595.32,425.73l-28.72-18.95c-4.07,4.16-11.11,5.73-22.29,5.73-144.38,.02-288.77,.01-433.15,0-9.3,0-15.72-1.84-19.54-5.85l-31.77,21.04c.99,3.57,3.33,6.37,8.86,7.62,3.8-.32,7.59-.91,11.39-.91,165.91-.05,331.82-.06,497.73-.03,3.43,0,6.86,.42,10.29,.65,2.9-2.17,6.16-4.03,7.68-7.42-.31-.65-.47-1.27-.47-1.87Z"/>
  </g>
  <path class="cls-4" d="M571.33,390.41c.24,17.15-6.3,22.46-26.94,22.46-144.38,.02-288.77,.01-433.15,0-16.46,0-23.89-5.76-23.9-19.13-.07-96.2-.05-192.4,.03-288.6,.01-11.23,5.06-15.17,19.03-15.18,73.71-.05,147.42-.02,221.13-.02,73.71,0,147.42-.02,221.13,.02,15.69,.01,19.64,3.67,20.34,16.37,5.25,94.67,1,189.4,2.32,284.09Z"/>
  <path class="cls-9" d="M569.64,390.34c.24,17.15-6.3,22.46-26.94,22.46-144.38,.02-288.77,.01-433.15,0-16.46,0-23.89-5.76-23.9-19.13-.07-96.2-.05-192.4,.03-288.6,.01-11.23,5.06-15.17,19.03-15.18,73.71-.05,147.42-.02,221.13-.02,73.71,0,147.42-.02,221.13,.02,15.69,.01,19.64,3.67,20.34,16.37,5.25,94.67,1,189.4,2.32,284.09Z"/>
  <path class="cls-9" d="M631.37,52.78c0-12.87-6.9-21.27-19.51-24.46-4.83-1.22-9.66-2.02-14.73-2.02-180.4,.08-360.8,.06-541.2,.09-21.89,0-32.21,10.17-32.22,31.69-.02,129.02-.02,258.03,0,387.05,0,22.03,10.44,32.26,32.75,32.28,47.42,.02,94.84,0,142.25,.08,4.14,0,8.68-1.21,12.07,2.58,3.86-2.04,7.92-2.69,12.32-2.69,78.76,.12,157.52,.14,236.28,.18,46.34-.05,92.68-.02,139.03-.18,21.65-.07,32.95-10.03,32.96-29.01,.05-131.87,.04-263.74-.01-395.6Z"/>
  <g>
    <path class="cls-3" d="M398.76,510.92c-32.78,.03-65.57,.06-98.35,.08-2.43-1.47-2.43-3.8-2.41-6.28,.09-9.01,.06-18.01,.07-27.02l3.57-.53c2.22,.1,4.43,.27,6.65,.28,29.12,.06,58.25,.1,87.37,.14,1.04,.34,2.08,.69,3.12,1.03,0,10.77-.02,21.53-.02,32.3Z"/>
    <path class="cls-7" d="M220.26,477.66c15,0,30.01,0,45.01,0-.02,5.39-.26,10.8,.02,16.18,.3,5.71-1.35,11.57,1.13,17.14-15.77,0-31.54,0-47.31,.01,1.37-1.93,1.2-4.15,1.19-6.35-.02-8.99-.03-17.99-.05-26.98Z"/>
    <path class="cls-7" d="M402.01,477.72c15,0,30.01,0,45.01,0-.02,5.39-.26,10.8,.02,16.18,.3,5.71-.81,9.7-1.85,15.88-15.77,0-28.56,1.26-44.33,1.27,1.37-1.93,1.2-4.15,1.19-6.35-.02-8.99-.03-17.99-.05-26.98Z"/>
    <path class="cls-3" d="M266.42,510.99c-2.48-5.57-.83-11.42-1.13-17.14-.28-5.38-.03-10.79-.02-16.18,10.94-.47,21.87-.5,32.8,.03-.01,9.01,.02,18.01-.07,27.02-.02,2.48-.03,4.81,2.41,6.28-11.33,0-22.66-.01-33.99-.02Z"/>
    <path class="cls-3" d="M398.76,510.92c0-10.77,.02-21.53,.02-32.3,.03-.35,.03-.71,0-1.06,6.9,.01,13.8,.03,20.7,.04,.37,.29,.74,.58,1.11,.87,.12,9.7,.16,19.4,.41,29.09,.08,3.09-1.35,3.73-4.04,3.64-6.06-.19-12.13-.2-18.19-.28Z"/>
    <path class="cls-3" d="M220.26,477.66c.01,8.99,.02,17.99,.05,26.98,0,2.2,.18,4.42-1.19,6.35-2.85,0-5.7-.02-8.55-.03-.37-.31-.75-.61-1.12-.92-.41-10.53-.57-21.06,.1-31.59,.34-.27,.68-.54,1.02-.81,3.23,0,6.47,0,9.7,0Z"/>
    <path class="cls-10" d="M209.12,480.7c3.68-2.68,7.55-3.55,11.74-3.54,75.04,.16,150.08,.19,225.11,.24,.01,10.33,.03,20.65,.05,30.98-4.52,2.1-9.11,2.83-13.91,2.83-69.71-.12-139.42-.11-209.13,0-4.79,0-9.4-.59-13.89-2.83,.01-9.22,.02-18.45,.03-27.67Z"/>
  </g>
</svg>