<?xml version="1.0" encoding="utf-8"?>
<svg width="164" height="164" version="1.1" xmlns="http://www.w3.org/2000/svg">
  <title>10 by 10 orthogonal maze</title>
  <desc>10 by 10 orthogonal maze generated by The Maze Generator Website (https://www.mazegenerator.net/).</desc>
  <g fill="none" stroke="#FFFFFF" stroke-width="2" stroke-linecap="square">
    <line x1="2" y1="2" x2="81.372" y2="2"/>
    <line x1="82" y1="2" x2="162" y2="2"/>
    <path d="M 50.251 17.999 L 98 18"/>
    <line x1="114" y1="18" x2="146" y2="18"/>
    <line x1="66" y1="34" x2="130" y2="34"/>
    <line x1="146" y1="34" x2="162" y2="34"/>
    <line x1="50.024" y1="66.031" x2="50" y2="50"/>
    <line x1="82" y1="50" x2="146" y2="50"/>
    <line x1="50" y1="66" x2="114" y2="66"/>
    <line x1="130" y1="66" x2="162" y2="66"/>
    <line x1="49.856" y1="81.972" x2="66" y2="82"/>
    <line x1="82" y1="82" x2="98" y2="82"/>
    <line x1="114" y1="82" x2="146" y2="82"/>
    <line x1="66" y1="98" x2="82" y2="98"/>
    <line x1="98" y1="98" x2="114" y2="98"/>
    <line x1="130" y1="98" x2="146" y2="98"/>
    <line x1="17.934" y1="113.94" x2="34.027" y2="114.008"/>
    <line x1="82" y1="114" x2="98" y2="114"/>
    <line x1="50" y1="130" x2="82" y2="130"/>
    <line x1="114" y1="130" x2="162" y2="130"/>
    <line x1="34" y1="146" x2="66" y2="146"/>
    <line x1="82" y1="146" x2="146" y2="146"/>
    <line x1="2" y1="162" x2="82" y2="162"/>
    <line x1="82.274" y1="162.065" x2="162" y2="162"/>
    <line x1="2" y1="2" x2="2.226" y2="145.068"/>
    <line x1="18" y1="2" x2="18" y2="34"/>
    <line x1="18" y1="50" x2="18" y2="82"/>
    <line x1="18.096" y1="97.669" x2="18" y2="114"/>
    <line x1="17.957" y1="130.903" x2="17.881" y2="145.002"/>
    <line x1="34" y1="18" x2="34" y2="66"/>
    <line x1="34" y1="82" x2="34" y2="98"/>
    <line x1="34" y1="114" x2="34" y2="146"/>
    <line x1="49.931" y1="18.04" x2="50" y2="50"/>
    <line x1="50" y1="82" x2="49.919" y2="129.867"/>
    <line x1="66" y1="18" x2="66" y2="50"/>
    <line x1="82" y1="66" x2="82" y2="82"/>
    <line x1="82" y1="98" x2="82" y2="114"/>
    <line x1="82" y1="130" x2="82" y2="162"/>
    <line x1="98" y1="82" x2="98" y2="98"/>
    <line x1="98" y1="114" x2="98" y2="146"/>
    <path d="M 113.971 17.972 C 113.971 23.838 114.023 40.713 114.023 30.847"/>
    <line x1="114" y1="66" x2="114" y2="82"/>
    <line x1="114" y1="98" x2="114" y2="130"/>
    <line x1="130" y1="34" x2="130" y2="66"/>
    <line x1="130" y1="114" x2="130" y2="130"/>
    <line x1="146" y1="82" x2="146" y2="114"/>
    <line x1="162.517" y1="17.603" x2="162" y2="162"/>
    <line x1="2.217" y1="114.135" x2="18" y2="114"/>
    <line x1="2.353" y1="145.094" x2="17.881" y2="145.002"/>
    <line x1="34" y1="82" x2="18.107" y2="81.925"/>
    <line x1="33.85" y1="34.067" x2="18" y2="34"/>
  </g>
  <g transform="matrix(0.03019, 0, 0, 0.028854, -0.346778, 143.257126)" style="">
    <path fill="#FFFFFF" d="m369.67 209c16.516 1.3376 30.823-10.933 32.16-27.392 1.2794-16.458-10.992-30.764-27.508-32.16-16.342-1.2213-30.764 11.05-31.986 27.508-1.3958 16.342 10.875 30.764 27.333 32.044"/>
    <path fill="#FFFFFF" d="m344.37 221.27c5.8738-4.1291 13.027-6.8624 20.994-6.1645 10.236 0.81418 18.61 7.1532 23.728 14.888l30.125 59.726 41.116 28.322c3.4894 2.6752 5.6993 7.0369 5.234 11.806-0.58157 7.3858-7.0369 12.911-14.423 12.271-2.2681-0.11633-4.1291-1.0468-6.1645-1.9773l-44.838-30.881c-1.3957-1.105-2.5007-2.5007-3.4312-3.9546l-11.224-22.39-13.55 59.552 52.98 62.576c1.2213 1.9192 2.0355 4.1872 2.5007 6.4553l14.306 75.545c-0.11633 1.6865 0.1163 2.7333 0 4.0709-0.81418 11.282-10.584 19.424-21.692 18.61-9.2468-0.75604-16.051-7.5603-18.203-15.993l-13.492-70.776-43.094-47.106-9.9447 45.885c-0.34891 2.1518-3.1986 6.6879-4.0128 8.4908l-41.349 69.671c-4.0709 6.339-10.992 10.41-18.842 9.7702-11.224-0.81418-19.54-10.584-18.61-21.75 0.23262-3.1404 1.5702-6.4553 2.7333-8.7234l38.383-64.379 32.044-141.9-20.936 16.923-11.108 50.538c-1.512 6.5135-7.3858 11.806-14.306 11.282-7.5021-0.58157-12.969-7.0369-12.387-14.539 0-0.58154 0.1163-1.1631 0.2326-1.861l13.143-58.912c0.81418-2.5007 2.1518-4.7688 4.1291-6.5135l59.959-48.56z"/>
  </g>
</svg>