<svg id="Layer_1" data-name="Layer 1" xmlns="http://www.w3.org/2000/svg" viewBox="0 0 353.6 300.05"><path d="M158.91,300.05h-25c-.57-2.66-1.1-5.1-1.74-8.07l-7.59-.94c-.34-2.67-.63-4.92-1-7.65l-7.78-1.16c-.34-2.47-.66-4.72-1-7.5L107,273.2c-.3-2.39-.62-4.88-1-7.62l-7.63-1c-.4-2.52-.79-5-1.23-7.74l-7.52-1c-.44-2.41-.89-4.89-1.41-7.69l-7.32-1-1.55-7.8-15.78-1.79-1.89-6.64L0,229.87V79.31c23.24-2.28,46.33-.4,69.91-1.4l1.93-7.55,7.62-1.14c.33-2.79.63-5.31,1-8.06l7.41-1.06c.73-4.94,1.45-9.78,2.25-15.2l7.55-1.52c.38-2.5.75-5,1.14-7.63l7.47-1c.38-2.69.74-5.19,1.13-8l7.47-.91c.41-2.51.81-5,1.29-8l7.65-.83c.37-2.65.7-4.89,1.1-7.69l7.78-1.38c.31-2.48.61-5,1-7.91h25c.22,3.71.63,7.39.63,11.06q0,141.5-.1,283C159.18,295.76,159,297.48,158.91,300.05Zm-34.33-52.67,7.73-.61c1.69-30.26.94-184.86-.91-193.72H125c-.31,2.67-.61,5.17-.94,8l-7.84.92c-.73,5.4-1.39,10.25-2.09,15.44l-7.22,1.39c-.55,3.06-1,5.55-1.44,7.89l-7.25,1c-.42,3-.77,5.51-1.1,7.85l-7.74,1.32c-.56,3-1,5.45-1.58,8.43H36.34v98c17.61.89,34.8-.77,51.69,1.21.48,2.89.84,5.11,1.23,7.48L97,213l1.57,7.8,7.16.94c.58,3,1.06,5.42,1.5,7.73l7.36,1.14c.43,2.77.81,5.26,1.17,7.6l8,1.41C124,242.06,124.24,244.08,124.58,247.38Z"/><path d="M239.84,140.62l-7.87-.91c-.28-2.51-.52-4.77-.83-7.59l-7.87-1.37c-.37-2.28-.76-4.77-1.24-7.8L214.4,122c-.33-2.68-.61-4.93-1-7.65l-7.79-1.21c-.31-2.51-.58-4.76-.92-7.49l-8-1.27c-.25-2.5-.49-5-.76-7.68l-8-1V70.09c4.09-.13,8.1-.3,12.12-.36s8.17,0,12.71,0l1.81,8.3,7.5,1.1c.34,2.57.64,4.83,1,7.57l7.94,1.24c.27,2.56.54,5.06.83,7.77l7.72.88,1.37,8,7.18.85c.49,2.33,1,4.79,1.64,7.86l7.11.91c.46,2.28,1,4.74,1.58,7.94h16.65c.3-2.36.62-4.83,1-7.45l7.64-1c.4-2.6.79-5.08,1.2-7.78l7.52-1,1.22-7.81,7.44-1c.43-2.32.9-4.8,1.46-7.84l7.57-1.08c.37-2.46.72-4.7,1.14-7.48L319,78.27c.32-2.49.64-5,1-7.93h33.32v16.3l-6.84,1.47c-.34,2.4-.71,4.91-1.14,7.92l-7.77,1.11c-.31,2.54-.58,4.79-.91,7.53l-7.78,1.38-1.13,7.24-7.67,1.58c-.31,2.14-.64,4.39-1,7.14l-7.78,1.64c-.29,2.32-.61,4.81-.94,7.49l-7.7,1.11c-.39,2.34-.81,4.82-1.31,7.81l-7.84,1v17.44l7.65,1.49c.36,2.31.75,4.8,1.22,7.83l7.68.79c.35,2.7.64,5,1,7.75l7.76,1.4,1,7.23,7.78,1.54c.32,2.37.65,4.85,1,7.57l7.66.86c.41,2.49.82,5,1.31,8l7.82.83.84,8.12,7.38,1.19v15.5c-10.74,2.68-21.72,1.58-33.26.79-.48-2.34-1-4.79-1.61-7.79l-7.52-1.3c-.33-2.36-.64-4.61-1-7.35l-7.89-1.36c-.29-2.39-.6-4.88-1-7.88l-7.94-.71c-.3-2.76-.55-5-.85-7.8l-7.72-1.32c-.34-2.31-.68-4.56-1.09-7.31l-7.8-1.51c-.29-2.39-.58-4.87-.89-7.44H258.73c-.43,2.71-.79,5-1.23,7.7L249.76,187c-.27,2.09-.57,4.34-.93,7.09l-7.8,1.66c-.31,2.3-.64,4.79-1,7.5l-7.65,1.13c-.4,2.31-.83,4.79-1.35,7.77l-7.69,1.05c-.33,2.57-.63,4.82-1,7.54l-7.77,1.32-1.07,7.62h-25.7v-25l8.08-1.49c.35-2.37.71-4.85,1.12-7.63l7.44-1c.47-2.33,1-4.8,1.55-7.65l7.14-1.11c.49-2.29,1-4.75,1.65-7.76l7.49-1c.34-2.73.62-5,1-7.74l7.94-1.19c.28-2.62.55-5.11.84-7.8l7.8-.95Z"/></svg>