<svg width="355" height="301" viewBox="0 0 355 301" fill="none" xmlns="http://www.w3.org/2000/svg">
<path d="M0 70.19H80.27V52.89L89.15 52.37V44H98V35.08H106.89V26.5H115.43C115.59 23.5 115.73 20.68 115.9 17.62H124.35V8.73H133.23V0H159.4V300.26H133.4V291.69H124.83V283.15L115.94 282.7V274.23H107V265.63H98.51C98.31 262.63 98.12 259.83 97.92 256.77H89.57V247.88H80.69V239H10.31V230.14H0V70.19ZM36.92 105.33V203.78C53.85 203.78 70.49 203.78 87.13 203.78C88.0094 203.921 88.8688 204.166 89.69 204.51V212.6H107.05V221.48H115.93V238.65H132.93V61.65H124.69C124.54 64.65 124.41 67.42 124.26 70.47H115.71V79H106.83V87.88H98V96.33L89.12 96.8V105.32L36.92 105.33Z" fill="white"/>
<path d="M336.94 79H345.83V96.37H354.62V203.66H346.11V229.83H337.65C336.78 235.75 337.65 241.52 337.07 247.49H328.65V265.16H319.76V274.05H311.19V282.59L302.3 283.1V300.1H267.15V274.2H275.69V256.81H284.22C284.39 253.81 284.54 250.99 284.71 247.92H293.15V239H301.76V221.72L310.61 221.1V186.45L319.43 186.02V114.27H311V79H302.11V61.66H293.57C293.42 58.66 293.27 55.83 293.11 52.77H284.65V43.88H276.05V26.57L267.21 25.97V0.26001H293.13V8.51001H302V17.1H310.53C310.73 20.1 310.9 22.91 311.09 25.98H319.47V34.87H328.35V61.33H336.92L336.94 79Z" fill="white"/>
<path d="M293 203.8H284.74V221.15H275.86V238.82H267V247.4H258.48C258.28 250.4 258.1 253.21 257.9 256.27H249.55V265.07H223.35V239H231.44V230.48L240.29 229.86V212.82L249.17 212.38V195.13H258V168.68H266.73V140.79H258.37V105.56H249.5V87.9H240.63V79H232.05V61.7L223.21 61.15V44H231.58V35.37H249.24V43.48H257.77C257.96 46.48 258.14 49.28 258.34 52.34H266.69V61.23H275.57V78.89H284.15V96.2L292.98 96.77L293 203.8Z" fill="white"/>
<path d="M231.47 140.52H240.29V159.63H231.93V194.85H223.07V212.23H214.56C214.35 215.23 214.15 218.03 213.93 221.07H188.07C187.94 218.61 187.79 215.83 187.62 212.77H177.62V195.11H187.7V186.23H196.27V168.91L205.1 168.41V131.9H196.73V123H187.85V105.65H177.55C177.44 102.58 177.29 99.77 177.24 96.97C177.19 94.17 177.24 91.19 177.24 87.97H187.54C187.69 84.97 187.82 82.16 187.96 79.16H213.96V87.6H222.56V104.89L231.39 105.56L231.47 140.52Z" fill="white"/>
</svg>
