<svg id="Layer_1" data-name="Layer 1" xmlns="http://www.w3.org/2000/svg" viewBox="0 0 354.62 300.26"><path d="M0,70.19H80.27V52.89l8.88-.52V44H98V35.08h8.89V26.5h8.54c.16-3,.3-5.82.47-8.88h8.45V8.73h8.88V0H159.4V300.26h-26v-8.57h-8.57v-8.54l-8.89-.45v-8.47H107v-8.6H98.51c-.2-3-.39-5.8-.59-8.86H89.57v-8.89H80.69V239H10.31v-8.86H0Zm36.92,35.14v98.45c16.93,0,33.57,0,50.21,0a11.18,11.18,0,0,1,2.56.73v8.09h17.36v8.88h8.88v17.17h17v-177h-8.24c-.15,3-.28,5.77-.43,8.82h-8.55V79h-8.88v8.88H98v8.45l-8.88.47v8.52Z"/><path d="M336.94,79h8.89V96.37h8.79V203.66h-8.51v26.17h-8.46c-.87,5.92,0,11.69-.58,17.66h-8.42v17.67h-8.89v8.89h-8.57v8.54l-8.89.51v17H267.15v-25.9h8.54V256.81h8.53c.17-3,.32-5.82.49-8.89h8.44V239h8.61V221.72l8.85-.62V186.45l8.82-.43V114.27H311V79h-8.89V61.66h-8.54c-.15-3-.3-5.83-.46-8.89h-8.46V43.88h-8.6V26.57l-8.84-.6V.26h25.92V8.51H302V17.1h8.53c.2,3,.37,5.81.56,8.88h8.38v8.89h8.88V61.33h8.57Z"/><path d="M293,203.8h-8.26v17.35h-8.88v17.67H267v8.58h-8.52c-.2,3-.38,5.81-.58,8.87h-8.35v8.8h-26.2V239h8.09v-8.52l8.85-.62V212.82l8.88-.44V195.13H258V168.68h8.73V140.79h-8.36V105.56h-8.87V87.9h-8.87V79h-8.58V61.7l-8.84-.55V44h8.37V35.37h17.66v8.11h8.53c.19,3,.37,5.8.57,8.86h8.35v8.89h8.88V78.89h8.58V96.2l8.83.57Z"/><path d="M231.47,140.52h8.82v19.11h-8.36v35.22h-8.86v17.38h-8.51c-.21,3-.41,5.8-.63,8.84H188.07c-.13-2.46-.28-5.24-.45-8.3h-10V195.11h10.08v-8.88h8.57V168.91l8.83-.5V131.9h-8.37V123h-8.88V105.65h-10.3c-.11-3.07-.26-5.88-.31-8.68s0-5.78,0-9h10.3c.15-3,.28-5.81.42-8.81h26v8.44h8.6v17.29l8.83.67Z"/></svg>