<svg width="20" height="20" viewBox="0 0 58 58" fill="none" xmlns="http://www.w3.org/2000/svg">
<path d="M31.5527 2.46875V11H30.416L26.1211 4.41992V11H24.9902V2.46875H26.1211L30.4336 9.06641V2.46875H31.5527Z" fill="#eee"/>
<path d="M52.4102 34.0801V35H47.8926V34.0801H52.4102ZM48.1211 26.4688V35H46.9902V26.4688H48.1211ZM51.8125 30.1367V31.0566H47.8926V30.1367H51.8125ZM52.3516 26.4688V27.3945H47.8926V26.4688H52.3516Z" fill="#eee"/>
<path d="M3.23438 32.4219L4.92773 26.4688H5.74805L5.27344 28.7832L3.45117 35H2.63672L3.23438 32.4219ZM1.48242 26.4688L2.83008 32.3047L3.23438 35H2.42578L0.357422 26.4688H1.48242ZM7.93945 32.2988L9.25781 26.4688H10.3887L8.32617 35H7.51758L7.93945 32.2988ZM5.87109 26.4688L7.51758 32.4219L8.11523 35H7.30078L5.54297 28.7832L5.0625 26.4688H5.87109Z" fill="#eee"/>
<path d="M30.5371 54.8438C30.5371 54.6445 30.5059 54.4688 30.4434 54.3164C30.3848 54.1602 30.2793 54.0195 30.127 53.8945C29.9785 53.7695 29.7715 53.6504 29.5059 53.5371C29.2441 53.4238 28.9121 53.3086 28.5098 53.1914C28.0879 53.0664 27.707 52.9277 27.3672 52.7754C27.0273 52.6191 26.7363 52.4414 26.4941 52.2422C26.252 52.043 26.0664 51.8145 25.9375 51.5566C25.8086 51.2988 25.7441 51.0039 25.7441 50.6719C25.7441 50.3398 25.8125 50.0332 25.9492 49.752C26.0859 49.4707 26.2812 49.2266 26.5352 49.0195C26.793 48.8086 27.0996 48.6445 27.4551 48.5273C27.8105 48.4102 28.207 48.3516 28.6445 48.3516C29.2852 48.3516 29.8281 48.4746 30.2734 48.7207C30.7227 48.9629 31.0645 49.2812 31.2988 49.6758C31.5332 50.0664 31.6504 50.4844 31.6504 50.9297H30.5254C30.5254 50.6094 30.457 50.3262 30.3203 50.0801C30.1836 49.8301 29.9766 49.6348 29.6992 49.4941C29.4219 49.3496 29.0703 49.2773 28.6445 49.2773C28.2422 49.2773 27.9102 49.3379 27.6484 49.459C27.3867 49.5801 27.1914 49.7441 27.0625 49.9512C26.9375 50.1582 26.875 50.3945 26.875 50.6602C26.875 50.8398 26.9121 51.0039 26.9863 51.1523C27.0645 51.2969 27.1836 51.4316 27.3438 51.5566C27.5078 51.6816 27.7148 51.7969 27.9648 51.9023C28.2188 52.0078 28.5215 52.1094 28.873 52.207C29.3574 52.3438 29.7754 52.4961 30.127 52.6641C30.4785 52.832 30.7676 53.0215 30.9941 53.2324C31.2246 53.4395 31.3945 53.6758 31.5039 53.9414C31.6172 54.2031 31.6738 54.5 31.6738 54.832C31.6738 55.1797 31.6035 55.4941 31.4629 55.7754C31.3223 56.0566 31.1211 56.2969 30.8594 56.4961C30.5977 56.6953 30.2832 56.8496 29.916 56.959C29.5527 57.0645 29.1465 57.1172 28.6973 57.1172C28.3027 57.1172 27.9141 57.0625 27.5312 56.9531C27.1523 56.8438 26.8066 56.6797 26.4941 56.4609C26.1855 56.2422 25.9375 55.9727 25.75 55.6523C25.5664 55.3281 25.4746 54.9531 25.4746 54.5273H26.5996C26.5996 54.8203 26.6562 55.0723 26.7695 55.2832C26.8828 55.4902 27.0371 55.6621 27.2324 55.7988C27.4316 55.9355 27.6562 56.0371 27.9062 56.1035C28.1602 56.166 28.4238 56.1973 28.6973 56.1973C29.0918 56.1973 29.4258 56.1426 29.6992 56.0332C29.9727 55.9238 30.1797 55.7676 30.3203 55.5645C30.4648 55.3613 30.5371 55.1211 30.5371 54.8438Z" fill="#eee"/>
<path d="M28.5303 14.4697C28.2374 14.1768 27.7626 14.1768 27.4697 14.4697L22.6967 19.2426C22.4038 19.5355 22.4038 20.0104 22.6967 20.3033C22.9896 20.5962 23.4645 20.5962 23.7574 20.3033L28 16.0607L32.2426 20.3033C32.5355 20.5962 33.0104 20.5962 33.3033 20.3033C33.5962 20.0104 33.5962 19.5355 33.3033 19.2426L28.5303 14.4697ZM28.75 45L28.75 15H27.25L27.25 45H28.75Z" fill="#eee"/>
<path d="M43.5303 31.5303C43.8232 31.2374 43.8232 30.7626 43.5303 30.4697L38.7574 25.6967C38.4645 25.4038 37.9896 25.4038 37.6967 25.6967C37.4038 25.9896 37.4038 26.4645 37.6967 26.7574L41.9393 31L37.6967 35.2426C37.4038 35.5355 37.4038 36.0104 37.6967 36.3033C37.9896 36.5962 38.4645 36.5962 38.7574 36.3033L43.5303 31.5303ZM13 31.75H43V30.25H13V31.75Z" fill="#eee"/>
</svg>
