<svg width="107" height="53" viewBox="0 0 107 53" fill="none" xmlns="http://www.w3.org/2000/svg">
<rect x="1" y="1" width="104.551" height="50.7149" rx="9" fill="#A7E8CE" stroke="black" stroke-width="2"/>
<path d="M16.6484 17.957C17.2799 17.957 17.8626 18.0384 18.3965 18.2012C18.9303 18.3574 19.3926 18.5951 19.7832 18.9141C20.1738 19.2331 20.4766 19.6367 20.6914 20.125C20.9128 20.6133 21.0234 21.1829 21.0234 21.834C21.0234 22.3613 20.9355 22.8431 20.7598 23.2793C20.584 23.7155 20.3366 24.0964 20.0176 24.4219C19.6986 24.7409 19.321 25.0013 18.8848 25.2031C18.4486 25.4049 17.9668 25.5384 17.4395 25.6035L17.4297 25.6328C17.6901 25.7826 17.944 25.9941 18.1914 26.2676C18.4388 26.5345 18.6764 26.8275 18.9043 27.1465C19.1387 27.4655 19.36 27.791 19.5684 28.123C19.7832 28.4551 19.9785 28.7611 20.1543 29.041L22.0879 32H19.0117C18.7839 31.6224 18.5267 31.1927 18.2402 30.7109C17.9603 30.2227 17.6771 29.7376 17.3906 29.2559C17.1107 28.7741 16.8438 28.3281 16.5898 27.918C16.3424 27.5013 16.1406 27.1758 15.9844 26.9414C15.8346 26.7266 15.6947 26.5443 15.5645 26.3945C15.4408 26.2448 15.3138 26.1243 15.1836 26.0332C15.0534 25.9421 14.9134 25.877 14.7637 25.8379C14.6204 25.7988 14.4577 25.776 14.2754 25.7695H14.1973V32H11.4727V17.957H16.6484ZM15.6035 23.8945C16.0267 23.8945 16.401 23.862 16.7266 23.7969C17.0586 23.7253 17.3353 23.6113 17.5566 23.4551C17.7845 23.2923 17.957 23.0807 18.0742 22.8203C18.1914 22.5599 18.25 22.2409 18.25 21.8633C18.25 21.4857 18.1914 21.1667 18.0742 20.9062C17.957 20.6458 17.7845 20.4375 17.5566 20.2812C17.3353 20.1185 17.0586 20.0046 16.7266 19.9395C16.401 19.8678 16.0267 19.832 15.6035 19.832H14.1973V23.8945H15.6035ZM32.8105 17.957V19.959H27.1367V23.1426H31.1504V25.1445H27.1367V29.998H33.0156V32H24.4121V17.957H32.8105ZM35.9941 29.5684C36.5345 29.7767 37.1107 29.9525 37.7227 30.0957C38.3411 30.2324 39.0117 30.3008 39.7344 30.3008C40.2031 30.3008 40.6328 30.2585 41.0234 30.1738C41.4141 30.0892 41.7493 29.9557 42.0293 29.7734C42.3158 29.5911 42.5371 29.36 42.6934 29.0801C42.8561 28.7936 42.9375 28.4518 42.9375 28.0547C42.9375 27.625 42.8496 27.2832 42.6738 27.0293C42.5046 26.7754 42.2637 26.5671 41.9512 26.4043C41.6387 26.2415 41.2611 26.1048 40.8184 25.9941C40.3757 25.8835 39.8841 25.7598 39.3438 25.623C38.7383 25.4668 38.1849 25.2878 37.6836 25.0859C37.1888 24.8841 36.7656 24.6237 36.4141 24.3047C36.0625 23.9857 35.7891 23.5918 35.5938 23.123C35.3984 22.6543 35.3008 22.0749 35.3008 21.3848C35.3008 20.9225 35.3757 20.5091 35.5254 20.1445C35.6816 19.7799 35.89 19.4642 36.1504 19.1973C36.4108 18.9238 36.7103 18.6927 37.0488 18.5039C37.3939 18.3151 37.752 18.1621 38.123 18.0449C38.5007 17.9277 38.8848 17.8431 39.2754 17.791C39.666 17.7389 40.0371 17.7129 40.3887 17.7129C40.6361 17.7129 40.9323 17.7259 41.2773 17.752C41.6289 17.778 42 17.8268 42.3906 17.8984C42.7878 17.9635 43.1947 18.0514 43.6113 18.1621C44.0345 18.2728 44.4414 18.4128 44.832 18.582L44.1387 20.2812C43.6178 20.0924 43.0742 19.9395 42.5078 19.8223C41.9479 19.7051 41.3587 19.6465 40.7402 19.6465C40.3496 19.6465 39.9915 19.679 39.666 19.7441C39.3405 19.8027 39.0573 19.9004 38.8164 20.0371C38.582 20.1738 38.3997 20.3529 38.2695 20.5742C38.1393 20.7956 38.0742 21.0625 38.0742 21.375C38.0742 21.7786 38.1523 22.0944 38.3086 22.3223C38.4714 22.5501 38.7025 22.7357 39.002 22.8789C39.3014 23.0221 39.666 23.1458 40.0957 23.25C40.5319 23.3477 41.0234 23.4681 41.5703 23.6113C42.1693 23.7676 42.7194 23.9531 43.2207 24.168C43.7285 24.3763 44.1647 24.6497 44.5293 24.9883C44.9004 25.3203 45.1901 25.7337 45.3984 26.2285C45.6068 26.7233 45.7109 27.332 45.7109 28.0547C45.7109 28.6927 45.61 29.2396 45.4082 29.6953C45.2064 30.151 44.9427 30.5352 44.6172 30.8477C44.2917 31.1536 43.9206 31.3978 43.5039 31.5801C43.0872 31.7624 42.6641 31.9023 42.2344 32C41.8047 32.0977 41.388 32.1595 40.9844 32.1855C40.5807 32.2181 40.2259 32.2344 39.9199 32.2344C39.6204 32.2279 39.2819 32.2083 38.9043 32.1758C38.5332 32.1432 38.1426 32.0911 37.7324 32.0195C37.3223 31.9479 36.9056 31.8535 36.4824 31.7363C36.0658 31.6126 35.6621 31.4629 35.2715 31.2871L35.9941 29.5684ZM58.543 17.957V19.959H54.4414V32H51.7168V19.959H47.5762V17.957H58.543ZM67.8789 17.957L73.1816 32H70.4277L68.8262 27.6836H64.1973L62.5957 32H59.8418L65.1445 17.957H67.8789ZM66.5117 20.8574L64.9199 25.7207H68.1035L66.5117 20.8574ZM80.5742 17.957C81.2057 17.957 81.7884 18.0384 82.3223 18.2012C82.8561 18.3574 83.3184 18.5951 83.709 18.9141C84.0996 19.2331 84.4023 19.6367 84.6172 20.125C84.8385 20.6133 84.9492 21.1829 84.9492 21.834C84.9492 22.3613 84.8613 22.8431 84.6855 23.2793C84.5098 23.7155 84.2624 24.0964 83.9434 24.4219C83.6243 24.7409 83.2467 25.0013 82.8105 25.2031C82.3743 25.4049 81.8926 25.5384 81.3652 25.6035L81.3555 25.6328C81.6159 25.7826 81.8698 25.9941 82.1172 26.2676C82.3646 26.5345 82.6022 26.8275 82.8301 27.1465C83.0645 27.4655 83.2858 27.791 83.4941 28.123C83.709 28.4551 83.9043 28.7611 84.0801 29.041L86.0137 32H82.9375C82.7096 31.6224 82.4525 31.1927 82.166 30.7109C81.8861 30.2227 81.6029 29.7376 81.3164 29.2559C81.0365 28.7741 80.7695 28.3281 80.5156 27.918C80.2682 27.5013 80.0664 27.1758 79.9102 26.9414C79.7604 26.7266 79.6204 26.5443 79.4902 26.3945C79.3665 26.2448 79.2396 26.1243 79.1094 26.0332C78.9792 25.9421 78.8392 25.877 78.6895 25.8379C78.5462 25.7988 78.3835 25.776 78.2012 25.7695H78.123V32H75.3984V17.957H80.5742ZM79.5293 23.8945C79.9525 23.8945 80.3268 23.862 80.6523 23.7969C80.9844 23.7253 81.2611 23.6113 81.4824 23.4551C81.7103 23.2923 81.8828 23.0807 82 22.8203C82.1172 22.5599 82.1758 22.2409 82.1758 21.8633C82.1758 21.4857 82.1172 21.1667 82 20.9062C81.8828 20.6458 81.7103 20.4375 81.4824 20.2812C81.2611 20.1185 80.9844 20.0046 80.6523 19.9395C80.3268 19.8678 79.9525 19.832 79.5293 19.832H78.123V23.8945H79.5293ZM98.4062 17.957V19.959H94.3047V32H91.5801V19.959H87.4395V17.957H98.4062Z" fill="black"/>
</svg>
