<?xml version="1.0" standalone="no"?>
<!DOCTYPE svg PUBLIC "-//W3C//DTD SVG 20010904//EN"
 "http://www.w3.org/TR/2001/REC-SVG-20010904/DTD/svg10.dtd">
<svg version="1.0" xmlns="http://www.w3.org/2000/svg"
 width="700.000000pt" height="700.000000pt" viewBox="0 0 700.000000 700.000000"
 preserveAspectRatio="xMidYMid meet">
<metadata>
Created by potrace 1.14, written by Peter Selinger 2001-2017
</metadata>
<g transform="translate(0.000000,700.000000) scale(0.100000,-0.100000)"
fill="#000000" stroke="none">
<path d="M3178 6995 c-2 -2 -53 -6 -114 -9 -61 -4 -127 -8 -145 -10 -19 -3
-63 -7 -99 -11 -36 -4 -72 -9 -80 -10 -8 -2 -42 -6 -75 -10 -32 -3 -62 -8 -65
-10 -3 -2 -23 -6 -45 -9 -34 -6 -169 -33 -200 -40 -55 -14 -81 -21 -150 -42
-254 -77 -448 -185 -570 -316 -54 -59 -69 -82 -85 -137 -18 -62 -52 -231 -65
-331 -8 -58 -12 -88 -25 -184 -6 -44 -11 -80 -13 -81 -1 -1 -23 -13 -49 -28
-94 -54 -164 -170 -213 -350 -14 -53 -28 -107 -31 -120 -11 -54 -63 -377 -68
-428 -4 -31 -8 -65 -10 -75 -3 -16 -12 -94 -21 -179 -2 -11 -6 -42 -9 -70 -8
-52 -12 -89 -21 -190 -3 -33 -8 -71 -10 -85 -2 -14 -6 -54 -10 -90 -4 -36 -8
-76 -10 -90 -2 -14 -7 -54 -10 -90 -3 -36 -8 -76 -10 -90 -2 -14 -6 -52 -10
-85 -3 -33 -8 -85 -11 -115 -3 -30 -7 -68 -9 -85 -2 -16 -6 -64 -10 -105 -3
-41 -8 -95 -10 -120 -22 -249 -25 -684 -6 -825 31 -226 91 -376 189 -466 60
-56 128 -95 197 -115 6 -1 34 -8 63 -16 l52 -13 1 -45 c1 -25 3 -54 4 -65 1
-11 5 -51 9 -90 12 -130 17 -170 22 -192 2 -13 -7 -49 -21 -82 -127 -303 -215
-556 -239 -686 -3 -16 -11 -57 -17 -89 -11 -62 -14 -156 -6 -192 25 -106 109
-192 265 -269 68 -33 198 -81 262 -96 19 -4 55 -13 80 -19 54 -14 75 -19 115
-25 17 -3 50 -10 75 -15 85 -18 402 -56 545 -66 55 -3 116 -8 135 -9 267 -26
1381 -26 1710 0 25 2 86 7 135 10 93 6 110 8 210 19 82 9 129 15 205 27 36 6
79 12 96 14 17 3 91 18 165 34 395 87 604 211 654 389 25 86 -14 300 -100 557
-48 143 -141 380 -182 460 -14 28 -18 103 -9 150 2 11 7 54 10 95 9 99 17 174
20 177 2 2 37 12 80 23 253 64 366 204 427 524 36 193 29 700 -16 1121 -2 22
-7 67 -10 100 -7 70 -12 121 -20 190 -3 28 -8 70 -11 95 -2 25 -7 63 -9 85 -3
22 -7 63 -10 90 -3 28 -7 66 -10 85 -3 19 -7 60 -10 90 -3 30 -7 71 -10 90 -2
19 -7 60 -10 90 -4 30 -8 66 -10 80 -2 14 -7 54 -10 90 -4 36 -9 74 -11 85 -2
11 -6 40 -9 65 -9 81 -16 123 -41 275 -13 83 -27 158 -30 167 -3 9 -6 25 -8
35 -22 112 -79 262 -122 324 -36 53 -89 98 -140 121 -46 20 -50 28 -59 98 -15
135 -45 368 -49 385 -2 11 -7 50 -11 88 -6 55 -14 77 -45 121 -86 123 -189
194 -446 312 -70 31 -302 100 -399 119 -117 21 -258 45 -300 50 -27 3 -63 8
-80 10 -16 2 -64 7 -105 10 -41 3 -97 8 -125 11 -56 6 -772 14 -777 9z"/>
</g>
</svg>
