<svg xmlns="http://www.w3.org/2000/svg" xmlns:xlink="http://www.w3.org/1999/xlink" xml:space="preserve" version="1.1" style="shape-rendering:geometricPrecision;text-rendering:geometricPrecision;image-rendering:optimizeQuality;" viewBox="0 0 60000 75000" x="0px" y="0px" fill-rule="evenodd" clip-rule="evenodd"><defs><style type="text/css">
   
    .fil0 {fill:black;fill-rule:nonzero}
   
  </style></defs><g><path class="fil0" d="M30313 27383c245,37 481,104 702,198 2,-4 4,-7 6,-10l1335 -2384c-635,-310 -1336,-505 -2077,-557l36 2721c0,11 0,22 -1,33zm17167 11913c-334,0 -636,135 -855,354 -219,219 -354,521 -354,855 0,334 135,636 354,855 219,219 521,354 855,354 334,0 636,-135 855,-354 219,-219 354,-521 354,-855 0,-334 -135,-636 -354,-855 -219,-219 -521,-354 -855,-354zm-1208 1c309,-309 736,-501 1208,-501 472,0 899,191 1208,501 309,309 501,736 501,1208 0,472 -191,899 -501,1208 -309,309 -736,501 -1208,501 -472,0 -899,-191 -1208,-501 -309,-309 -501,-736 -501,-1208 0,-472 191,-899 501,-1208zm-3166 3659c-414,0 -790,168 -1061,440 -272,272 -440,647 -440,1061 0,414 168,790 440,1061 272,272 647,440 1061,440 414,0 790,-168 1061,-440 272,-272 440,-647 440,-1061 0,-414 -168,-790 -440,-1061 -272,-272 -647,-440 -1061,-440zm-1415 86c362,-362 862,-586 1415,-586 552,0 1053,224 1415,586 362,362 586,862 586,1415 0,552 -224,1053 -586,1415 -362,362 -862,586 -1415,586 -552,0 -1053,-224 -1415,-586 -362,-362 -586,-862 -586,-1415 0,-552 224,-1053 586,-1415zm-4512 3503c-495,0 -943,201 -1267,525 -324,324 -525,772 -525,1267 0,495 201,943 525,1267 324,324 772,525 1267,525 495,0 943,-201 1267,-525 324,-324 525,-772 525,-1267 0,-495 -201,-943 -525,-1267 -324,-324 -772,-525 -1267,-525zm-1621 171c415,-415 988,-671 1621,-671 633,0 1206,257 1621,671 415,415 671,988 671,1621 0,633 -257,1206 -671,1621 -415,415 -988,671 -1621,671 -633,0 -1206,-257 -1621,-671 -415,-415 -671,-988 -671,-1621 0,-633 257,-1206 671,-1621zm-23193 -7920c472,0 899,191 1208,501 309,309 501,736 501,1208 0,472 -191,899 -501,1208 -309,309 -736,501 -1208,501 -472,0 -899,-191 -1208,-501 -309,-309 -501,-736 -501,-1208 0,-472 191,-899 501,-1208 309,-309 736,-501 1208,-501zm855 854c-219,-219 -521,-354 -855,-354 -334,0 -636,135 -855,354 -219,219 -354,521 -354,855 0,334 135,636 354,855 219,219 521,354 855,354 334,0 636,-135 855,-354 219,-219 354,-521 354,-855 0,-334 -135,-636 -354,-855zm3520 2805c552,0 1053,224 1415,586 362,362 586,862 586,1415 0,552 -224,1053 -586,1415 -362,362 -862,586 -1415,586 -552,0 -1053,-224 -1415,-586 -362,-362 -586,-862 -586,-1415 0,-552 224,-1053 586,-1415 362,-362 862,-586 1415,-586zm1061 940c-272,-272 -647,-440 -1061,-440 -414,0 -790,168 -1061,440 -272,272 -440,647 -440,1061 0,414 168,790 440,1061 272,272 647,440 1061,440 414,0 790,-168 1061,-440 272,-272 440,-647 440,-1061 0,-414 -168,-790 -440,-1061zm4866 2649c633,0 1206,257 1621,671 415,415 671,988 671,1621 0,633 -257,1206 -671,1621 -415,415 -988,671 -1621,671 -633,0 -1206,-257 -1621,-671 -415,-415 -671,-988 -671,-1621 0,-633 257,-1206 671,-1621 415,-415 988,-671 1621,-671zm1267 1025c-324,-324 -772,-525 -1267,-525 -495,0 -943,201 -1267,525 -324,324 -525,772 -525,1267 0,495 201,943 525,1267 324,324 772,525 1267,525 495,0 943,-201 1267,-525 324,-324 525,-772 525,-1267 0,-495 -201,-943 -525,-1267zm6279 1415c602,65 1142,336 1548,742 468,468 757,1114 757,1827 0,714 -289,1360 -757,1827 -468,468 -1114,757 -1827,757 -714,0 -1360,-289 -1827,-757 -468,-468 -757,-1114 -757,-1827 0,-714 289,-1360 757,-1827 419,-419 982,-695 1609,-748l-30 -3027c-456,-56 -864,-264 -1173,-572 -294,-294 -497,-679 -564,-1109 -581,-56 -1162,-138 -1742,-247 -570,-107 -1137,-239 -1700,-397 -78,136 -174,260 -283,370 -321,321 -763,519 -1253,519 -489,0 -932,-198 -1253,-519 -321,-321 -519,-763 -519,-1253 0,-115 11,-227 32,-336 -536,-250 -1070,-526 -1601,-825 -543,-306 -1075,-634 -1596,-981 -272,242 -630,390 -1023,390 -425,0 -809,-172 -1087,-450 -278,-278 -450,-663 -450,-1087 0,-237 54,-462 150,-663 -411,-345 -821,-707 -1228,-1088 -422,-394 -839,-805 -1253,-1235 -173,85 -368,133 -574,133 -360,0 -686,-146 -922,-382 -236,-236 -382,-562 -382,-922 0,-256 74,-495 201,-696 -436,-520 -863,-1058 -1283,-1613 -274,-364 -547,-738 -818,-1123 -79,19 -162,29 -247,29 -296,0 -563,-120 -757,-314 -194,-194 -314,-461 -314,-757 0,-296 120,-563 314,-757 194,-194 461,-314 757,-314 76,0 150,8 221,23 308,-438 620,-864 935,-1280l-4856 -1852c-206,-79 -310,-309 -231,-516 79,-206 309,-310 516,-231l5084 1939c558,-704 1128,-1375 1709,-2011l-4181 -3245c-174,-135 -206,-385 -72,-559 135,-174 385,-206 559,-72l4240 3291c682,-714 1379,-1383 2089,-2004 -537,-705 -1157,-1397 -1777,-2089 -706,-788 -1411,-1575 -2000,-2380 -130,-178 -92,-428 86,-558 178,-130 428,-92 558,86 575,785 1263,1553 1950,2321 624,697 1248,1393 1792,2102 271,-225 544,-443 819,-655 575,-443 1159,-856 1749,-1240l-3416 -5712c-113,-189 -51,-434 138,-547 189,-113 434,-51 547,138l3407 5697c948,-575 1914,-1072 2893,-1492l-2861 -6870c-85,-204 12,-437 216,-522 204,-85 437,12 522,216l2863 6875c975,-376 1964,-676 2963,-897l-1844 -8432c-47,-216 91,-428 306,-475 216,-47 428,91 475,306l1847 8444c918,-164 1844,-263 2776,-294 149,-5 297,-8 446,-10l-33 -9982c0,-220 178,-398 398,-398 220,0 398,178 398,398l33 9990c1080,33 2166,156 3255,370l1846 -8437c47,-216 259,-353 475,-306 216,47 353,259 306,475l-1846 8438c982,233 1966,541 2950,926l2878 -6910c85,-204 318,-300 522,-216 204,85 300,318 216,522l-2876 6907c968,416 1935,907 2898,1473l3419 -5716c113,-189 358,-251 547,-138 189,113 251,358 138,547l-3421 5720c264,165 528,336 791,513 609,409 1217,849 1822,1320 534,-691 1142,-1370 1751,-2049 688,-768 1375,-1535 1950,-2321 130,-178 380,-216 558,-86 178,130 216,380 86,558 -589,805 -1295,1593 -2000,2380 -598,668 -1197,1336 -1721,2016 738,602 1471,1251 2200,1948l4073 -3161c174,-135 425,-102 559,72 135,174 102,425 -72,559l-3984 3092c639,635 1273,1306 1903,2015l4692 -1789c206,-79 437,25 516,231 79,206 -25,437 -231,516l-4417 1684c370,431 738,875 1104,1332 30,-3 61,-4 92,-4 296,0 563,120 757,314 194,194 314,461 314,757 0,296 -120,563 -314,757 -194,194 -461,314 -757,314 -33,0 -66,-2 -99,-5 -368,459 -737,905 -1107,1336 -538,626 -1079,1225 -1623,1797 94,180 147,385 147,602 0,360 -146,686 -382,922 -236,236 -562,382 -922,382 -222,0 -430,-55 -613,-153 -417,388 -844,769 -1283,1142 -418,355 -828,689 -1231,1002 66,171 102,357 102,551 0,425 -172,809 -450,1087 -278,278 -663,450 -1087,450 -384,0 -735,-141 -1004,-373 -529,335 -1061,647 -1594,937 -547,298 -1090,569 -1629,815 26,121 40,246 40,374 0,489 -198,932 -519,1253 -321,321 -763,519 -1253,519 -489,0 -932,-198 -1253,-519 -122,-122 -226,-261 -308,-414 -565,160 -1128,294 -1687,403 -558,109 -1120,194 -1687,256 -62,442 -267,837 -568,1138 -307,307 -712,515 -1165,572l30 3033zm1194 1095c-356,-356 -839,-583 -1376,-608l-229 2c-523,33 -994,258 -1342,606 -377,377 -610,898 -610,1474 0,576 233,1097 610,1474 377,377 898,610 1474,610 576,0 1097,-233 1474,-610 377,-377 610,-898 610,-1474 0,-576 -233,-1097 -610,-1474zm12748 -26435c-6,-4 -13,-8 -19,-13 -15,-11 -29,-23 -43,-36 -684,-545 -1371,-1048 -2060,-1511 -4278,-2872 -8638,-4175 -12869,-4032 -4228,143 -8338,1730 -12117,4639 -2515,1936 -4884,4457 -7044,7527 117,172 186,380 186,603 0,214 -63,414 -172,581 263,373 531,741 804,1102 414,548 833,1076 1257,1582 151,-61 317,-95 490,-95 360,0 686,146 922,382 236,236 382,562 382,922 0,223 -56,434 -155,617 401,417 809,818 1222,1204 395,368 796,724 1204,1065 247,-169 546,-268 868,-268 425,0 809,172 1087,450 278,278 450,663 450,1087 0,168 -27,330 -77,481 516,345 1033,664 1548,955 504,285 1016,548 1534,790 50,-66 105,-129 163,-188 321,-321 763,-519 1253,-519 489,0 932,198 1253,519 321,321 519,763 519,1253 0,40 -1,80 -4,119 536,149 1074,275 1615,376 539,101 1083,178 1632,232 90,-357 275,-675 527,-927 363,-363 864,-587 1418,-587 554,0 1055,224 1418,587 246,246 428,555 520,901 521,-58 1048,-139 1582,-243 545,-107 1089,-236 1630,-389 -1,-23 -1,-45 -1,-68 0,-489 198,-932 519,-1253 321,-321 763,-519 1253,-519 489,0 932,198 1253,519 49,49 95,101 139,156 535,-243 1065,-507 1588,-792 509,-277 1018,-576 1527,-897 -55,-158 -85,-328 -85,-505 0,-425 172,-809 450,-1087 278,-278 663,-450 1087,-450 366,0 702,128 966,341 405,-314 800,-635 1186,-963 406,-345 820,-715 1242,-1108 -86,-174 -135,-371 -135,-578 0,-360 146,-686 382,-922 236,-236 562,-382 922,-382 212,0 413,51 590,141 531,-558 1059,-1143 1584,-1755 333,-388 664,-786 993,-1194 -157,-186 -251,-426 -251,-689 0,-264 96,-507 255,-693 -1200,-1489 -2419,-2834 -3652,-4039 -47,-26 -89,-61 -124,-106 -11,-14 -20,-28 -28,-42 -856,-827 -1718,-1587 -2585,-2281zm6934 7156l0 1 1 -1 -1 -1zm-3716 4302c-139,0 -265,56 -356,148 -91,91 -148,217 -148,356 0,139 56,265 148,356 91,91 217,148 356,148 139,0 265,-56 356,-148 91,-91 148,-217 148,-356 0,-139 -56,-265 -148,-356 -91,-91 -217,-148 -356,-148zm-4563 3613c-204,0 -388,83 -522,216 -133,133 -216,318 -216,522 0,204 83,388 216,522 133,133 318,216 522,216 204,0 388,-83 522,-216 133,-133 216,-318 216,-522 0,-204 -83,-388 -216,-522 -133,-133 -318,-216 -522,-216zm-5959 3057c-268,0 -511,109 -687,284 -176,176 -284,419 -284,687 0,268 109,511 284,687 176,176 419,284 687,284 268,0 511,-109 687,-284 176,-176 284,-419 284,-687 0,-268 -109,-511 -284,-687 -176,-176 -419,-284 -687,-284zm-23925 -6832c-91,-91 -217,-148 -356,-148 -139,0 -265,56 -356,148 -91,91 -148,217 -148,356 0,139 56,265 148,356 91,91 217,148 356,148 139,0 265,-56 356,-148 91,-91 148,-217 148,-356 0,-139 -56,-265 -148,-356zm4608 3991c-133,-133 -318,-216 -522,-216 -204,0 -388,83 -522,216 -133,133 -216,318 -216,522 0,204 83,388 216,522 133,133 318,216 522,216 204,0 388,-83 522,-216 133,-133 216,-318 216,-522 0,-204 -83,-388 -216,-522zm6124 3126c-176,-176 -419,-284 -687,-284 -268,0 -511,109 -687,284 -176,176 -284,419 -284,687 0,268 109,511 284,687 176,176 419,284 687,284 268,0 511,-109 687,-284 176,-176 284,-419 284,-687 0,-268 -109,-511 -284,-687zm7125 1052c-218,-218 -519,-353 -852,-353 -333,0 -634,135 -852,353 -218,218 -353,519 -353,852 0,333 135,634 353,852 218,218 519,353 852,353 333,0 634,-135 852,-353 218,-218 353,-519 353,-852 0,-333 -135,-634 -353,-852zm-15970 -12461c1153,-1401 2441,-2729 3843,-3899 2956,-2467 6423,-4245 10196,-4555 3779,-311 7849,850 11999,4262 1386,1140 2779,2528 4170,4195 127,152 122,371 -3,516 -1390,1665 -2782,3052 -4167,4191 -4149,3412 -8220,4572 -11999,4262 -3773,-310 -7240,-2088 -10196,-4555 -1403,-1171 -2693,-2501 -3847,-3905 -125,-152 -119,-368 5,-512zm4355 -3286c-1283,1071 -2467,2276 -3534,3545 1066,1270 2250,2474 3534,3545 2839,2369 6155,4076 9746,4371 3586,295 7461,-817 11430,-4080 1273,-1047 2558,-2317 3848,-3836 -1290,-1518 -2575,-2789 -3848,-3836 -3969,-3264 -7844,-4375 -11430,-4080 -3591,295 -6908,2001 -9746,4371zm12531 1129c84,68 165,140 241,216 96,96 185,198 267,306 4,-2 8,-5 12,-7l2347 -1396c-203,-301 -435,-581 -691,-837 -253,-253 -531,-483 -828,-685l-1329 2374c-6,10 -12,20 -18,29zm897 1218c88,224 148,461 178,707 4,0 8,0 13,0l2731 -36c-51,-741 -245,-1443 -554,-2079l-2340 1392c-9,6 -19,11 -28,15zm167 1503c-37,245 -104,481 -198,702 4,2 7,4 10,6l2384 1335c310,-635 505,-1336 558,-2077l-2721 36c-11,0 -22,0 -33,-1zm-607 1387c-68,84 -140,165 -216,241 -96,96 -198,185 -306,267 2,4 5,8 7,12l1396 2347c301,-203 581,-435 837,-691 253,-253 483,-531 685,-828l-2374 -1330c-10,-6 -20,-12 -29,-18zm-1218 897c-224,88 -461,148 -707,178 0,4 0,8 0,13l36 2731c741,-51 1443,-245 2079,-554l-1392 -2340c-6,-9 -11,-19 -15,-28zm-1503 167c-245,-37 -481,-104 -702,-198 -2,4 -4,7 -6,10l-1335 2384c635,310 1336,505 2077,558l-36 -2721c0,-11 0,-22 1,-33zm-1387 -607c-84,-68 -165,-140 -241,-216 -96,-96 -185,-198 -267,-306 -4,2 -8,5 -12,7l-2347 1396c203,301 435,581 691,837 253,253 531,483 828,685l1330 -2374c6,-10 12,-20 18,-29zm-897 -1218c-88,-224 -148,-461 -178,-707 -4,0 -8,0 -13,0l-2731 36c51,741 245,1443 554,2079l2340 -1392c9,-6 19,-11 28,-15zm-167 -1503c37,-245 104,-481 198,-702 -4,-2 -7,-4 -10,-6l-2384 -1335c-310,635 -505,1336 -558,2077l2721 -36c11,0 22,0 33,1zm607 -1387c68,-84 140,-165 216,-241 96,-96 198,-185 306,-267 -2,-4 -5,-8 -7,-12l-1396 -2347c-301,203 -581,435 -837,691 -253,253 -483,531 -685,828l2374 1330c10,6 20,12 29,18zm1218 -897c224,-88 461,-148 707,-178 0,-4 0,-8 0,-13l-36 -2731c-741,51 -1443,245 -2079,554l1392 2340c6,9 11,19 15,28zm1064 -3735c1783,0 3398,723 4566,1891 1169,1169 1891,2783 1891,4566 0,1783 -723,3398 -1891,4566 -1169,1169 -2783,1891 -4566,1891 -1783,0 -3398,-723 -4566,-1891 -1169,-1169 -1891,-2783 -1891,-4566 0,-1783 723,-3398 1891,-4566 1169,-1169 2783,-1891 4566,-1891zm1501 4957c-384,-384 -915,-622 -1501,-622 -586,0 -1117,238 -1501,622 -384,384 -622,915 -622,1501 0,586 238,1117 622,1501 384,384 915,622 1501,622 586,0 1117,-238 1501,-622 384,-384 622,-915 622,-1501 0,-586 -238,-1117 -622,-1501z"/></g><text x="0" y="60015" fill="#000000" font-size="5px" font-weight="bold" font-family="'Helvetica Neue', Helvetica, Arial-Unicode, Arial, Sans-serif">Created by Olena Panasovska</text><text x="0" y="60020" fill="#000000" font-size="5px" font-weight="bold" font-family="'Helvetica Neue', Helvetica, Arial-Unicode, Arial, Sans-serif">from the Noun Project</text></svg>