<svg id="Capa_1" enable-background="new 0 0 512 512" height="512" viewBox="0 0 512 512" width="512" fill="white" xmlns="http://www.w3.org/2000/svg"><g><path d="m431 424.58v-126.039l28.417-56.833c4.986-9.973-2.266-21.708-13.417-21.708h-15v-25c0-15.637-2.167-31.228-6.434-46.515l8.489-3.831c8.089-3.65 11.257-13.487 6.82-21.172l-30-51.962c-4.437-7.685-14.54-9.86-21.746-4.68l-7.515 5.402c-22.167-22.464-50.079-38.556-80.615-46.478l.927-9.271c.883-8.831-6.051-16.493-14.926-16.493h-60c-8.874 0-15.809 7.662-14.926 16.493l.927 9.271c-30.537 7.922-58.448 24.014-80.615 46.478l-7.515-5.402c-7.206-5.18-17.309-3.006-21.746 4.68l-30 51.962c-4.437 7.685-1.268 17.522 6.82 21.172l8.489 3.831c-4.267 15.287-6.434 30.877-6.434 46.515v25h-15c-11.151 0-18.403 11.735-13.417 21.708l28.417 56.833v126.039c-17.459 6.192-30 22.865-30 42.42v30c0 8.284 6.716 15 15 15h120c8.284 0 15-6.716 15-15v-30c0-19.555-12.541-36.228-30-42.42v-126.039l28.416-56.833c4.987-9.973-2.265-21.708-13.416-21.708h-15v-25c0-2.899.16-5.784.451-8.65 6.819 2.564 14.568-.139 18.258-6.529l20-34.64c3.676-6.366 2.169-14.392-3.408-19.024 4.678-3.398 9.672-6.294 14.922-8.655 1.208 7.162 7.413 12.498 14.777 12.498h40c7.363 0 13.568-5.336 14.777-12.499 5.25 2.362 10.244 5.258 14.922 8.655-5.577 4.632-7.083 12.658-3.408 19.024l20 34.64c3.69 6.391 11.439 9.094 18.258 6.529.291 2.867.451 5.752.451 8.65v25h-15c-11.151 0-18.403 11.735-13.417 21.708l28.417 56.834v126.039c-17.459 6.192-30 22.865-30 42.42v30c0 8.284 6.716 15 15 15h120c8.284 0 15-6.716 15-15v-30c0-19.555-12.541-36.228-30-42.42zm-269.271-174.58-15 30h-41.459l-15-30zm-50.729-30v-25c0-11.392 1.396-22.776 4.156-34.005l27.855 12.571c-1.333 7.045-2.011 14.214-2.011 21.434v25zm30 90v112h-30v-112zm30 172h-90v-15c0-8.271 6.729-15 15-15h60c8.271 0 15 6.729 15 15zm-.485-328.936-64.122-28.938 13.426-23.253 57.122 41.062zm10.514-45.136-24.93-17.921c16.663-15.822 36.895-27.483 58.929-33.965l3.044 30.438c-13.578 4.738-26.102 11.988-37.043 21.448zm81.396-7.928h-12.85l-7-70h26.85zm159.304 150-15 30h-41.459l-15-30zm-20.729 60v112h-30v-112zm-32.011-136.435 27.855-12.571c2.76 11.229 4.156 22.613 4.156 34.006v25h-30v-25c0-7.22-.678-14.389-2.011-21.435zm-75.062-87.086 3.044-30.438c22.035 6.483 42.266 18.143 58.929 33.965l-24.93 17.921c-10.94-9.459-23.464-16.709-37.043-21.448zm41.133 55.457 57.122-41.062 13.426 23.253-64.122 28.938zm95.94 340.064h-90v-15c0-8.271 6.729-15 15-15h60c8.271 0 15 6.729 15 15z"/></g></svg>