<?xml version="1.0" encoding="iso-8859-1"?>
<!-- Generator: Adobe Illustrator 19.0.0, SVG Export Plug-In . SVG Version: 6.00 Build 0)  -->
<svg version="1.1" id="Capa_1" xmlns="http://www.w3.org/2000/svg" xmlns:xlink="http://www.w3.org/1999/xlink" x="0px" y="0px"
	 viewBox="0 0 512.001 512.001" fill="white" style="enable-background:new 0 0 512.001 512.001;" xml:space="preserve">
<g>
	<g>
		<path d="M511.964,350.767c-0.462-10.89-5.138-20.947-13.165-28.32c-4.036-3.707-8.148-7.309-12.327-10.812v-78.701
			c0-4.205-1.765-8.217-4.865-11.058c-18.242-16.72-38.781-30.858-61.368-42.285v-18.067c0-8.284-6.716-15-15-15s-15,6.716-15,15
			v4.956c-3.928-1.469-7.894-2.885-11.923-4.208c-18.225-5.987-37.558-10.503-57.856-13.532v-15.042c0-8.284-6.716-15-15-15
			s-15,6.716-15,15v11.711c-11.199-0.84-22.641-1.273-34.321-1.273c-12.076,0-23.897,0.466-35.459,1.364v-11.802
			c0-8.284-6.716-15-15-15s-15,6.716-15,15v15.218c-19.897,3.028-38.867,7.479-56.763,13.355c-4.403,1.446-8.735,2.993-13.016,4.612
			v-5.359c0-8.284-6.716-15-15-15s-15,6.716-15,15v18.618c-22.167,11.334-42.328,25.29-60.243,41.745
			c-3.095,2.843-4.855,6.854-4.853,11.056l0.047,78.414c-4.292,3.589-8.51,7.286-12.651,11.089
			C5.175,329.819,0.5,339.877,0.038,350.767c-0.462,10.89,3.344,21.308,10.716,29.333c15.219,16.571,41.083,17.67,57.656,2.449
			c6.837-6.28,14.163-12.348,21.774-18.034c48.179-35.989,105.517-55.012,165.816-55.012s117.637,19.022,165.816,55.012
			c7.605,5.681,14.932,11.748,21.775,18.034c7.55,6.935,17.351,10.754,27.597,10.754c11.397,0,22.353-4.813,30.058-13.202
			C508.62,372.074,512.426,361.656,511.964,350.767z M420.24,213.687c12.927,7.579,25.016,16.23,36.233,25.965v49.41
			c-11.681-7.876-23.779-15.033-36.233-21.447V213.687z M320.461,179.057c25.111,4.049,48.391,10.602,69.779,19.629v55.194
			c-22.456-9.052-45.822-15.821-69.779-20.173V179.057z M220.681,175.567c11.484-0.945,23.299-1.432,35.459-1.432
			c11.758,0,23.192,0.459,34.321,1.345v54.065c-11.4-1.091-22.896-1.652-34.46-1.652c-11.855,0-23.638,0.596-35.32,1.742V175.567z
			 M120.902,199.131c21.367-9.129,44.646-15.776,69.779-19.906v54.633c-23.963,4.413-47.329,11.251-69.779,20.368V199.131z
			 M90.902,214.313v53.746c-12.041,6.243-23.746,13.182-35.062,20.795l-0.03-49.214C66.69,230.18,78.395,221.737,90.902,214.313z
			 M479.152,359.807c-2.07,2.255-4.898,3.496-7.963,3.496c-2.71,0-5.303-1.012-7.302-2.848c-7.587-6.97-15.702-13.69-24.116-19.976
			c-53.403-39.892-116.95-60.977-183.77-60.977S125.634,300.587,72.23,340.48c-8.421,6.291-16.535,13.012-24.114,19.974
			c-4.387,4.031-11.236,3.741-15.268-0.648c-1.952-2.125-2.96-4.884-2.837-7.767c0.123-2.884,1.36-5.547,3.486-7.499
			c60.83-55.875,139.85-86.646,222.504-86.646s161.675,30.771,222.504,86.646c2.125,1.952,3.363,4.615,3.486,7.499
			C482.114,354.922,481.106,357.681,479.152,359.807z"/>
	</g>
</g>
<g>
</g>
<g>
</g>
<g>
</g>
<g>
</g>
<g>
</g>
<g>
</g>
<g>
</g>
<g>
</g>
<g>
</g>
<g>
</g>
<g>
</g>
<g>
</g>
<g>
</g>
<g>
</g>
<g>
</g>
</svg>
