<?xml version="1.0" encoding="utf-8"?>
<!-- Generator: Adobe Illustrator 26.0.1, SVG Export Plug-In . SVG Version: 6.00 Build 0)  -->
<svg version="1.1" xmlns="http://www.w3.org/2000/svg" xmlns:xlink="http://www.w3.org/1999/xlink" x="0px" y="0px"
	 viewBox="0 0 100 100" style="enable-background:new 0 0 100 100;" xml:space="preserve">
<style type="text/css">
	.st0{fill:#242C3C;}
	.st1{fill:#D9D9D9;}
	.st2{fill:#FFFFFF;}
	.st3{opacity:0.5;fill:#D9D9D9;}
	.st4{fill:none;}
	.st5{fill:#222221;}
	.st6{fill:#17C8CC;}
	.st7{fill:#03EAFC;}
	.st8{fill:#CE4C36;}
	.st9{fill:#ED5B3A;}
</style>
<g id="BACKGROUND">
</g>
<g id="OBJECTS">
	<g>
		<rect x="2.7" y="48.5" class="st0" width="7.3" height="2.8"/>
		<g>
			
				<ellipse transform="matrix(8.029433e-02 -0.9968 0.9968 8.029433e-02 -3.8526 95.8238)" class="st1" cx="50" cy="50" rx="47.3" ry="47.3"/>
			<path class="st2" d="M92.1,50c0,23.3-18.9,42.1-42.1,42.1C26.7,92.1,7.9,73.3,7.9,50C7.9,26.7,26.7,7.9,50,7.9
				C73.3,7.9,92.1,26.7,92.1,50z"/>
			<path class="st3" d="M62.8,53.7L77,50l-14.1-3.7c-0.3-0.9-0.6-1.9-1.1-2.7l7.3-12.5l-12.4,7.3c-1-0.6-2-1-3-1.3L50,23L46.4,37
				c-1.1,0.3-2.2,0.7-3.2,1.3l-12.2-7.2l7.2,12.3c-0.5,0.9-0.9,1.9-1.2,2.9L23,50l14,3.7c0.3,1,0.7,2,1.3,3l-7.4,12.6l12.7-7.5
				c0.8,0.4,1.7,0.8,2.6,1.1L50,77l3.7-14.1c0.9-0.3,1.8-0.6,2.6-1.1l12.7,7.5l-7.4-12.7C62.1,55.7,62.6,54.7,62.8,53.7z M41.2,53.2
				c-0.1-0.3-0.2-0.7-0.3-1c-0.2-0.7-0.3-1.4-0.3-2.2c0-0.7,0.1-1.3,0.2-1.9c0.1-0.4,0.2-0.8,0.4-1.3c0.9-2.6,3-4.6,5.6-5.6
				c0.3-0.1,0.6-0.2,0.9-0.3c0.7-0.2,1.5-0.3,2.3-0.3c0.8,0,1.6,0.1,2.3,0.3c0.3,0.1,0.6,0.2,0.9,0.3c1.5,0.6,2.9,1.5,3.9,2.7
				c0.3,0.3,0.5,0.7,0.7,1c0.2,0.3,0.3,0.6,0.5,0.9c1.2,2.5,1.2,5.4,0,7.9c-0.2,0.4-0.4,0.8-0.7,1.2c-0.3,0.5-0.7,1-1.2,1.4
				c-0.4,0.4-0.9,0.8-1.4,1.2c-0.4,0.3-0.8,0.5-1.2,0.7c-2.5,1.2-5.4,1.2-7.9,0c-0.3-0.1-0.6-0.3-0.9-0.5c-0.4-0.2-0.7-0.5-1-0.7
				C42.8,56.1,41.8,54.7,41.2,53.2z"/>
			<path class="st4" d="M45.9,38.9c-3.3,1.2-6,3.9-7.2,7.2l5.7-1.5L45.9,38.9z"/>
			<path class="st4" d="M54.1,61.4c3.3-1.2,6-3.9,7.2-7.2l-5.7,1.5L54.1,61.4z"/>
			<path class="st4" d="M38.7,54.3c1.2,3.3,3.9,6,7.2,7.2l-1.5-5.7L38.7,54.3z"/>
			<path class="st4" d="M61.3,46.1c-1.2-3.3-3.9-6-7.2-7.2l1.5,5.7L61.3,46.1z"/>
			<path class="st4" d="M61.8,47.8l-1.4,2.4l1.4,2.4c0.2-0.8,0.3-1.6,0.3-2.4C62,49.3,61.9,48.6,61.8,47.8z"/>
			<path class="st4" d="M47.5,61.9c0.8,0.2,1.6,0.3,2.5,0.3c1,0,1.9-0.1,2.8-0.4l-2.6-1.5L47.5,61.9z"/>
			<path class="st4" d="M38.3,47.2c-0.2,0.9-0.4,1.9-0.4,2.9c0,1,0.1,2,0.4,2.9l1.7-2.9L38.3,47.2z"/>
			<path class="st4" d="M52.8,38.5c-0.9-0.2-1.9-0.4-2.8-0.4c-0.9,0-1.7,0.1-2.5,0.3l2.7,1.6L52.8,38.5z"/>
			<rect x="48.8" y="2.9" class="st5" width="2.8" height="7.2"/>
			<rect x="48.4" y="90.2" class="st5" width="2.8" height="7.2"/>
			<rect x="90" y="49" class="st5" width="7.2" height="2.8"/>
			<rect x="77.4" y="18.1" transform="matrix(0.7072 -0.707 0.707 0.7072 9.9644 62.9803)" class="st5" width="7.2" height="2.8"/>
			
				<rect x="15.3" y="79.5" transform="matrix(0.707 -0.7072 0.7072 0.707 -51.6262 37.1013)" class="st5" width="7.2" height="2.8"/>
			
				<rect x="79.3" y="77.6" transform="matrix(0.7071 -0.7071 0.7071 0.7071 -33.7746 80.8334)" class="st5" width="2.8" height="7.2"/>
			<rect x="17.9" y="15.5" transform="matrix(0.707 -0.7072 0.7072 0.707 -7.8732 19.2496)" class="st5" width="2.8" height="7.2"/>
			<path class="st5" d="M50,100C22.4,100,0,77.6,0,50S22.4,0,50,0c27.6,0,50,22.4,50,50S77.6,100,50,100z M50,5.5
				C25.4,5.5,5.5,25.4,5.5,50c0,24.6,20,44.5,44.5,44.5c24.6,0,44.5-20,44.5-44.5C94.5,25.4,74.6,5.5,50,5.5z"/>
			<g>
				<g>
					<g>
						<path class="st5" d="M47,20.5v-7.3h1.9l1.5,2.7c0.4,0.8,0.9,1.7,1.2,2.5h0c-0.1-1-0.1-2-0.1-3.1v-2.1H53v7.3h-1.7l-1.6-2.8
							c-0.4-0.8-0.9-1.7-1.3-2.6l0,0c0,1,0.1,2,0.1,3.2v2.2H47z"/>
					</g>
				</g>
				<g>
					<g>
						<path class="st5" d="M47.8,85.1c0.4,0.2,1.1,0.5,1.8,0.5c0.8,0,1.2-0.3,1.2-0.8c0-0.5-0.3-0.7-1.2-1c-1.2-0.4-2-1.1-2-2.2
							c0-1.3,1-2.2,2.8-2.2c0.8,0,1.4,0.2,1.9,0.4L51.9,81c-0.3-0.1-0.8-0.3-1.5-0.3c-0.7,0-1.1,0.3-1.1,0.7c0,0.5,0.4,0.7,1.4,1
							c1.3,0.5,1.9,1.2,1.9,2.2c0,1.2-0.9,2.3-3,2.3c-0.8,0-1.7-0.2-2.1-0.4L47.8,85.1z"/>
					</g>
				</g>
			</g>
			<g>
				<g>
					<path class="st5" d="M14.3,54l-1.7-7.3h1.8l0.6,3c0.2,0.9,0.3,1.8,0.4,2.6h0c0.1-0.8,0.3-1.7,0.5-2.6l0.6-3h1.8l0.6,3.1
						c0.2,0.9,0.3,1.6,0.4,2.5h0c0.1-0.8,0.3-1.7,0.4-2.6l0.6-3h1.7L20,54h-1.8l-0.6-3.2c-0.1-0.7-0.3-1.4-0.3-2.3h0
						c-0.1,0.8-0.3,1.5-0.4,2.3L16.1,54H14.3z"/>
				</g>
				<g>
					<g>
						<path class="st5" d="M87.1,50.2h-2.7V52h3v1.4h-4.7V46h4.5v1.4h-2.9v1.5h2.7V50.2z"/>
					</g>
				</g>
			</g>
			<g>
				<g>
					<polygon class="st6" points="50,40.6 86,50 50,59.4 					"/>
					<polygon class="st7" points="50,50 86,50 50,59.4 					"/>
					<polygon class="st8" points="50,59.4 14,50 50,40.6 					"/>
					<polygon class="st9" points="50,59.4 14,50 50,50 					"/>
				</g>
				<ellipse transform="matrix(0.1646 -0.9864 0.9864 0.1646 -7.5482 91.0867)" class="st5" cx="50" cy="50" rx="9.4" ry="9.4"/>
				<g>
					
						<ellipse transform="matrix(7.603682e-02 -0.9971 0.9971 7.603682e-02 -3.6569 96.0527)" class="st2" cx="50" cy="50" rx="5.5" ry="5.5"/>
					<path class="st5" d="M55.9,50c0,3.2-2.6,5.9-5.9,5.9c-3.2,0-5.9-2.6-5.9-5.9c0-3.2,2.6-5.9,5.9-5.9
						C53.2,44.1,55.9,46.8,55.9,50z M44.9,50c0,2.8,2.3,5.1,5.1,5.1c2.8,0,5.1-2.3,5.1-5.1c0-2.8-2.3-5.1-5.1-5.1
						C47.2,44.9,44.9,47.2,44.9,50z"/>
				</g>
			</g>
		</g>
	</g>
</g>
<g id="DESIGNED_BY_FREEPIK">
</g>
</svg>
