<?xml version="1.0"?>
<svg xmlns="http://www.w3.org/2000/svg" xmlns:xlink="http://www.w3.org/1999/xlink" xmlns:svgjs="http://svgjs.com/svgjs" version="1.1" width="512" height="512" x="0" y="0" viewBox="0 0 512 512" style="enable-background:new 0 0 512 512" xml:space="preserve" class=""><g>
<g xmlns="http://www.w3.org/2000/svg">
	<path d="M474.047,121.802c-2.899-4.702-9.061-6.163-13.761-3.263c-4.701,2.899-6.161,9.061-3.263,13.761   C479.905,169.401,492,212.176,492,256c0,130.131-105.869,236-236,236C129.22,492,25.487,391.509,20.227,266H56.25   C61.479,371.653,149.073,456,256,456c110.28,0,200-89.72,200-200S366.28,56,256,56c-34.764,0-69.006,9.06-99.025,26.198   c-4.796,2.738-6.464,8.847-3.726,13.643c2.738,4.797,8.846,6.464,13.642,3.727C193.895,84.149,224.708,76,256,76   c95.896,0,174.51,75.382,179.718,170h-40.074c-1.624-22.86-8.802-44.932-21.006-64.364c-13.508-21.508-32.911-39.209-55.58-50.663   c-7.686-3.883-15.767-7.063-24.021-9.455c-5.303-1.539-10.851,1.516-12.388,6.821c-1.537,5.305,1.517,10.851,6.821,12.388   c7.066,2.048,13.986,4.772,20.567,8.098c8.866,4.479,16.999,9.935,24.3,16.196l-28.482,28.482C292.17,182.563,274.842,176,256,176   c-40.724,0-74.413,30.593-79.353,70h-40.222c3.059-37.087,23.022-70.585,54.73-90.99c4.645-2.989,5.986-9.177,2.998-13.821   c-2.989-4.644-9.176-5.984-13.821-2.997C140.049,164.115,116,208.155,116,256c0,5.522,4.477,10,10,10h50.647   c4.939,39.407,38.629,70,79.353,70c19.066,0,37.534-6.82,52.001-19.204c4.195-3.592,4.686-9.904,1.094-14.1   c-3.591-4.196-9.904-4.685-14.1-1.094C284.149,310.887,270.301,316,256,316c-33.084,0-60-26.916-60-60s26.916-60,60-60   s60,26.916,60,60c0,5.522,4.478,10,10,10s10-4.478,10-10c0-18.076-6.033-34.765-16.182-48.176l28.554-28.554   C365.964,200.4,376,227.308,376,256c0,30.21-11.264,59.075-31.717,81.278c-3.742,4.063-3.482,10.389,0.579,14.13   c1.922,1.771,4.351,2.646,6.772,2.646c2.697,0,5.387-1.085,7.357-3.225c21.597-23.444,34.412-53.254,36.652-84.829h40.073   C430.51,360.618,351.896,436,256,436c-45.654,0-87.385-17.094-119.151-45.207l28.285-28.286C190.446,384.183,222.277,396,256,396   c5.522,0,10-4.478,10-10s-4.478-10-10-10c-32.281,0-62.544-12.621-85.254-35.551c-3.495-4.023-12.496-14.602-15.426-18.996   c-3.063-4.596-9.272-5.838-13.867-2.773c-4.595,3.063-5.837,9.272-2.773,13.867c2.675,4.013,8.306,10.842,12.421,15.709   l-28.484,28.484C93.663,344.784,76,302.417,76,256c0-29.525,7.301-58.803,21.113-84.667c2.602-4.872,0.762-10.931-4.11-13.532   c-4.873-2.6-10.93-0.76-13.532,4.11C65.679,187.738,57.749,216.619,56.273,246H20.227C25.487,120.491,129.22,20,256,20   c39.292,0,78.188,9.848,112.484,28.478c4.854,2.639,10.925,0.838,13.561-4.014c2.637-4.854,0.839-10.925-4.014-13.561   C340.813,10.687,298.616,0,256,0C187.62,0,123.333,26.629,74.981,74.98C26.628,123.333,0,187.62,0,256   s26.628,132.667,74.981,181.02C123.333,485.371,187.62,512,256,512s132.667-26.629,181.02-74.98   C485.371,388.667,512,324.38,512,256C512,208.466,498.876,162.061,474.047,121.802z" fill="#84808f" data-original="#000000" style=""/>
</g>
</g></svg>
