<?xml version="1.0" encoding="iso-8859-1"?>
<!-- Generator: Adobe Illustrator 19.0.0, SVG Export Plug-In . SVG Version: 6.00 Build 0)  -->
<svg version="1.1" id="Capa_1" xmlns="http://www.w3.org/2000/svg" xmlns:xlink="http://www.w3.org/1999/xlink" x="0px" y="0px"
	 viewBox="0 0 512.001 512.001" fill="white" style="enable-background:new 0 0 512.001 512.001;" xml:space="preserve">
<g>
	<g>
		<path d="M299.685,321.499h-35.429c-2.528-9.252-6.196-18.107-10.952-26.439l25.053-25.052c1.37-1.371,2.14-3.229,2.14-5.167
			s-0.77-3.796-2.14-5.167l-32.647-32.646c-2.853-2.852-7.479-2.852-10.332,0l-25.053,25.053
			c-8.331-4.756-17.186-8.424-26.439-10.953v-35.429c0-4.036-3.271-7.306-7.306-7.306h-46.169c-4.035,0-7.306,3.271-7.306,7.306
			v35.429c-9.254,2.529-18.107,6.197-26.438,10.953l-25.053-25.053c-2.854-2.851-7.479-2.853-10.332,0l-32.647,32.646
			c-1.37,1.371-2.14,3.229-2.14,5.167s0.77,3.796,2.14,5.167l25.053,25.052c-4.756,8.333-8.424,17.188-10.953,26.439H7.306
			c-4.035,0-7.306,3.271-7.306,7.306v46.169c0,4.035,3.271,7.306,7.306,7.306h35.429c2.528,9.252,6.196,18.107,10.953,26.438
			L28.634,433.77c-2.853,2.854-2.853,7.479,0,10.333l32.647,32.647c2.853,2.852,7.479,2.852,10.332,0l25.053-25.053
			c8.333,4.756,17.187,8.424,26.438,10.952v35.429c0,4.036,3.271,7.306,7.306,7.306h46.169c4.035,0,7.306-3.271,7.306-7.306V462.65
			c9.251-2.528,18.106-6.196,26.439-10.952l25.053,25.053c2.853,2.852,7.479,2.852,10.332,0l32.647-32.647
			c2.854-2.854,2.854-7.479,0-10.333l-25.053-25.053c4.756-8.333,8.424-17.187,10.952-26.438h35.429
			c4.035,0,7.306-3.271,7.306-7.306v-46.169C306.991,324.769,303.72,321.499,299.685,321.499z M292.38,367.666L292.38,367.666
			h-33.849c-3.433,0-6.404,2.391-7.137,5.745c-2.532,11.573-7.059,22.502-13.456,32.481c-1.853,2.89-1.443,6.681,0.985,9.109
			l23.935,23.935l-22.314,22.314l-23.935-23.935c-2.428-2.428-6.219-2.838-9.108-0.985c-9.981,6.397-20.909,10.924-32.482,13.455
			c-3.354,0.734-5.745,3.704-5.745,7.138v33.848h-31.557v-33.848c0-3.433-2.391-6.403-5.745-7.138
			c-11.573-2.531-22.501-7.058-32.481-13.455c-2.889-1.852-6.68-1.441-9.108,0.985L66.448,461.25l-22.314-22.314l23.935-23.935
			c2.428-2.428,2.838-6.219,0.985-9.11c-6.396-9.978-10.924-20.906-13.456-32.48c-0.733-3.354-3.704-5.745-7.137-5.745H14.612
			v-31.556H48.46c3.433,0,6.404-2.391,7.137-5.745c2.532-11.573,7.059-22.502,13.456-32.482c1.853-2.89,1.443-6.681-0.985-9.109
			L44.133,264.84l22.314-22.313l23.935,23.935c2.427,2.428,6.218,2.835,9.109,0.985c9.977-6.396,20.905-10.923,32.481-13.456
			c3.354-0.733,5.745-3.704,5.745-7.137v-33.848h31.557v33.848c0,3.433,2.391,6.403,5.745,7.138
			c11.575,2.532,22.504,7.06,32.482,13.456c2.892,1.853,6.681,1.442,9.109-0.985l23.935-23.935l22.314,22.313l-23.935,23.934
			c-2.428,2.428-2.838,6.219-0.985,9.109c6.397,9.98,10.924,20.909,13.456,32.482c0.733,3.354,3.704,5.745,7.137,5.745h33.848
			V367.666z"/>
	</g>
</g>
<g>
	<g>
		<path d="M219.541,338.217c-4.853-23.545-22.076-42.848-44.947-50.38c-3.832-1.261-7.963,0.822-9.225,4.655
			c-1.262,3.833,0.821,7.963,4.654,9.225c17.916,5.899,31.406,21.015,35.206,39.45c0.713,3.454,3.754,5.833,7.148,5.833
			c0.489,0,0.985-0.049,1.483-0.152C217.812,346.034,220.355,342.169,219.541,338.217z"/>
	</g>
</g>
<g>
	<g>
		<path d="M212.375,366.145c-3.779-1.417-7.989,0.498-9.406,4.277c-7.688,20.511-27.569,34.291-49.473,34.291
			c-29.127,0-52.824-23.697-52.824-52.825c0-24.348,16.489-45.431,40.097-51.271c3.917-0.968,6.307-4.93,5.338-8.846
			c-0.969-3.918-4.935-6.305-8.847-5.338c-30.147,7.456-51.201,34.372-51.201,65.455c0,37.185,30.252,67.437,67.437,67.437
			c27.962,0,53.342-17.592,63.156-43.776C218.068,371.772,216.153,367.561,212.375,366.145z"/>
	</g>
</g>
<g>
	<g>
		<path d="M504.694,191.124h-25.769c-1.831-6.331-4.351-12.415-7.532-18.186l18.221-18.22c1.37-1.371,2.14-3.229,2.14-5.167
			s-0.77-3.796-2.14-5.167l-24.947-24.947c-2.854-2.852-7.479-2.852-10.332,0l-18.221,18.221c-5.77-3.181-11.854-5.7-18.185-7.532
			v-25.769c0-4.036-3.271-7.306-7.306-7.306h-35.281c-4.035,0-7.306,3.271-7.306,7.306v25.769
			c-6.331,1.831-12.415,4.35-18.185,7.532l-18.221-18.221c-2.853-2.852-7.479-2.852-10.332,0l-24.947,24.947
			c-1.37,1.371-2.14,3.229-2.14,5.167s0.77,3.796,2.14,5.167l18.221,18.22c-3.181,5.771-5.701,11.854-7.532,18.186h-25.769
			c-4.035,0-7.306,3.271-7.306,7.306v35.281c0,4.036,3.271,7.306,7.306,7.306h25.769c1.831,6.331,4.351,12.416,7.532,18.186
			l-18.221,18.22c-2.854,2.854-2.854,7.479,0,10.333l24.947,24.948c1.37,1.37,3.228,2.14,5.166,2.14s3.796-0.77,5.166-2.14
			l18.221-18.221c5.77,3.18,11.854,5.7,18.185,7.531v25.769c0,4.036,3.271,7.306,7.306,7.306h35.281
			c4.035,0,7.306-3.271,7.306-7.306v-25.769c6.33-1.83,12.414-4.349,18.185-7.532l18.221,18.222c1.37,1.37,3.228,2.14,5.166,2.14
			s3.796-0.77,5.166-2.14l24.947-24.948c2.853-2.854,2.853-7.479,0-10.333l-18.22-18.221c3.182-5.771,5.701-11.854,7.532-18.185
			h25.769c4.035,0,7.306-3.271,7.306-7.306v-35.28C512,194.395,508.729,191.124,504.694,191.124z M473.245,226.405
			c-3.433,0-6.404,2.391-7.137,5.745c-1.892,8.647-5.272,16.809-10.048,24.26c-1.853,2.89-1.443,6.681,0.985,9.108l17.071,17.072
			l-14.615,14.615l-17.071-17.072c-2.427-2.427-6.217-2.837-9.108-0.985c-7.452,4.776-15.614,8.157-24.26,10.047
			c-3.354,0.734-5.745,3.704-5.745,7.138v24.144h-20.668v-24.144c0-3.433-2.391-6.403-5.745-7.138
			c-8.648-1.891-16.81-5.271-24.259-10.047c-2.891-1.852-6.681-1.441-9.109,0.985l-17.071,17.072L311.85,282.59l17.071-17.071
			c2.428-2.428,2.838-6.219,0.985-9.11c-4.775-7.449-8.155-15.611-10.048-24.26c-0.734-3.353-3.704-5.744-7.137-5.744h-24.143
			v-20.668h24.143c3.433,0,6.403-2.391,7.137-5.744c1.893-8.649,5.273-16.811,10.048-24.26c1.853-2.891,1.443-6.682-0.985-9.11
			l-17.071-17.071l14.615-14.614l17.071,17.071c2.428,2.428,6.219,2.837,9.108,0.985c7.45-4.775,15.612-8.155,24.261-10.048
			c3.354-0.733,5.744-3.704,5.744-7.137v-24.143h20.668v24.143c0,3.433,2.39,6.403,5.744,7.137
			c8.648,1.893,16.811,5.273,24.261,10.048c2.892,1.853,6.681,1.442,9.108-0.985l17.071-17.071l14.615,14.614l-17.071,17.071
			c-2.428,2.428-2.838,6.219-0.985,9.11c4.775,7.45,8.156,15.611,10.048,24.259c0.734,3.354,3.704,5.745,7.137,5.745h24.143v20.668
			H473.245z"/>
	</g>
</g>
<g>
	<g>
		<path d="M438.455,225.895c-3.763-1.456-7.994,0.408-9.453,4.172c-1.948,5.023-4.873,9.508-8.695,13.328
			c-15.067,15.067-39.582,15.067-54.649,0c-7.299-7.299-11.318-17.002-11.318-27.324c0-10.322,4.02-20.025,11.318-27.324
			c15.066-15.067,39.582-15.068,54.649,0c3.817,3.817,6.741,8.296,8.688,13.311c1.46,3.762,5.692,5.627,9.455,4.166
			c3.762-1.46,5.627-5.694,4.166-9.455c-2.687-6.919-6.716-13.094-11.977-18.355c-20.764-20.763-54.549-20.765-75.314,0
			c-10.059,10.058-15.598,23.432-15.598,37.657c0,14.225,5.54,27.599,15.598,37.657c10.383,10.383,24.018,15.574,37.657,15.572
			c13.636-0.001,27.276-5.191,37.657-15.572c5.267-5.267,9.3-11.45,11.986-18.38C444.084,231.587,442.217,227.355,438.455,225.895z"
			/>
	</g>
</g>
<g>
	<g>
		<path d="M297.26,80.578h-19.095c-1.323-4.309-3.048-8.471-5.159-12.454l13.503-13.502c1.37-1.371,2.14-3.229,2.14-5.167
			c0-1.938-0.77-3.796-2.14-5.167l-19.614-19.614c-1.37-1.37-3.228-2.14-5.166-2.14s-3.796,0.77-5.166,2.14L243.06,38.177
			c-3.984-2.111-8.146-3.836-12.454-5.159V13.923c0-4.036-3.271-7.306-7.306-7.306h-27.738c-4.035,0-7.306,3.271-7.306,7.306v19.095
			c-4.308,1.323-8.471,3.048-12.454,5.159l-13.503-13.503c-1.37-1.37-3.228-2.14-5.166-2.14s-3.796,0.77-5.166,2.14l-19.614,19.614
			c-1.37,1.371-2.14,3.229-2.14,5.167s0.77,3.796,2.14,5.167l13.503,13.502c-2.111,3.982-3.836,8.145-5.159,12.454H121.6
			c-4.035,0-7.306,3.271-7.306,7.306v27.739c0,4.035,3.271,7.306,7.306,7.306h19.095c1.323,4.309,3.047,8.471,5.159,12.454
			l-13.503,13.502c-1.37,1.371-2.14,3.229-2.14,5.167s0.77,3.796,2.14,5.167l19.614,19.614c1.37,1.37,3.228,2.14,5.166,2.14
			s3.796-0.77,5.166-2.14l13.503-13.503c3.983,2.111,8.146,3.836,12.454,5.159v19.095c0,4.036,3.271,7.306,7.306,7.306h27.74
			c4.035,0,7.306-3.271,7.306-7.306v-19.095c4.309-1.323,8.471-3.048,12.454-5.159l13.503,13.503c1.37,1.37,3.228,2.14,5.166,2.14
			s3.796-0.77,5.166-2.14l19.614-19.614c1.37-1.371,2.14-3.229,2.14-5.167s-0.77-3.796-2.14-5.167l-13.503-13.502
			c2.111-3.983,3.836-8.145,5.159-12.454h19.095c4.035,0,7.306-3.271,7.306-7.306V87.884
			C304.566,83.848,301.295,80.578,297.26,80.578z M289.954,108.316h-17.419c-3.433,0-6.403,2.391-7.137,5.745
			c-1.447,6.614-4.035,12.86-7.69,18.564c-1.853,2.89-1.443,6.681,0.985,9.109l12.318,12.317l-9.282,9.282l-12.318-12.319
			c-2.427-2.428-6.218-2.838-9.109-0.985c-5.704,3.656-11.95,6.244-18.564,7.691c-3.354,0.734-5.745,3.704-5.745,7.138v17.419
			h-13.126v-17.419c0-3.433-2.391-6.403-5.745-7.138c-6.614-1.446-12.86-4.034-18.564-7.691c-2.891-1.853-6.682-1.441-9.109,0.985
			l-12.318,12.319l-9.282-9.282l12.318-12.317c2.428-2.428,2.838-6.219,0.985-9.109c-3.655-5.704-6.243-11.95-7.69-18.564
			c-0.734-3.354-3.704-5.745-7.137-5.745h-17.419V95.19h17.419c3.433,0,6.403-2.391,7.137-5.744
			c1.447-6.616,4.035-12.862,7.69-18.565c1.853-2.89,1.443-6.681-0.985-9.109l-12.318-12.317l9.282-9.282l12.318,12.319
			c2.428,2.428,6.218,2.838,9.109,0.985c5.704-3.657,11.95-6.244,18.564-7.691c3.354-0.734,5.745-3.704,5.745-7.138V21.229h13.126
			v17.419c0,3.433,2.391,6.403,5.745,7.138c6.614,1.447,12.86,4.035,18.564,7.691c2.891,1.854,6.682,1.442,9.109-0.985
			l12.318-12.319l9.282,9.282l-12.318,12.317c-2.428,2.428-2.838,6.219-0.985,9.109c3.656,5.704,6.243,11.951,7.69,18.565
			c0.734,3.353,3.704,5.744,7.137,5.744h17.419V108.316z"/>
	</g>
</g>
<g>
	<g>
		<path d="M209.43,65.021c-20.254,0-36.732,16.478-36.732,36.733s16.478,36.732,36.732,36.732c20.254,0,36.733-16.478,36.733-36.733
			S229.684,65.021,209.43,65.021z M209.43,123.873c-12.197,0-22.12-9.923-22.12-22.12c0-12.197,9.923-22.12,22.12-22.12
			c12.197,0,22.12,9.923,22.12,22.12C231.55,113.949,221.627,123.873,209.43,123.873z"/>
	</g>
</g>
<g>
	<g>
		<path d="M340.182,41.854c-0.007,0-0.014,0-0.021,0c-4.025,0-7.294,3.257-7.306,7.285l-0.013,4.484
			c-0.012,4.035,3.25,7.316,7.285,7.327c0.007,0,0.014,0,0.021,0c4.025,0,7.294-3.257,7.306-7.285l0.013-4.484
			C347.478,45.144,344.217,41.865,340.182,41.854z"/>
	</g>
</g>
<g>
	<g>
		<path d="M340.095,71.452c-0.007,0-0.014,0-0.021,0c-4.025,0-7.294,3.257-7.306,7.285l-0.013,4.483
			c-0.011,4.036,3.25,7.316,7.285,7.327c0.007,0,0.014,0,0.021,0c4.025,0,7.294-3.257,7.306-7.285l0.013-4.483
			C347.392,74.743,344.13,71.462,340.095,71.452z"/>
	</g>
</g>
<g>
	<g>
		<path d="M357.173,58.944l-4.483-0.013c-0.008,0-0.015,0-0.022,0c-4.025,0-7.294,3.257-7.306,7.284
			c-0.012,4.035,3.249,7.315,7.284,7.328l4.483,0.013c0.008,0,0.015,0,0.022,0c4.025,0,7.294-3.257,7.306-7.284
			C364.469,62.236,361.208,58.956,357.173,58.944z"/>
	</g>
</g>
<g>
	<g>
		<path d="M327.576,58.858l-4.483-0.013c-0.008,0-0.015,0-0.022,0c-4.025,0-7.294,3.257-7.306,7.284
			c-0.012,4.036,3.249,7.316,7.284,7.328l4.483,0.013c0.008,0,0.015,0,0.022,0c4.025,0,7.294-3.257,7.306-7.284
			C334.872,62.15,331.611,58.87,327.576,58.858z"/>
	</g>
</g>
<g>
	<g>
		<path d="M87.524,141.707c-0.008,0-0.015,0-0.022,0c-4.025,0-7.294,3.257-7.306,7.284l-0.013,4.484
			c-0.013,4.035,3.249,7.316,7.284,7.328c0.008,0,0.015,0,0.022,0c4.025,0,7.294-3.257,7.306-7.284l0.013-4.484
			C94.82,144.999,91.559,141.719,87.524,141.707z"/>
	</g>
</g>
<g>
	<g>
		<path d="M87.437,171.305c-0.007,0-0.014,0-0.021,0c-4.025,0-7.294,3.257-7.306,7.285l-0.013,4.484
			c-0.011,4.036,3.25,7.316,7.285,7.327c0.007,0,0.014,0,0.021,0c4.025,0,7.294-3.257,7.306-7.285l0.013-4.484
			C94.733,174.595,91.472,171.316,87.437,171.305z"/>
	</g>
</g>
<g>
	<g>
		<path d="M104.515,158.798l-4.483-0.013c-0.008,0-0.015,0-0.022,0c-4.025,0-7.294,3.257-7.306,7.284
			c-0.013,4.035,3.248,7.315,7.284,7.328l4.483,0.013c0.008,0,0.015,0,0.022,0c4.025,0,7.294-3.257,7.306-7.284
			C111.811,162.09,108.55,158.81,104.515,158.798z"/>
	</g>
</g>
<g>
	<g>
		<path d="M74.917,158.711l-4.483-0.013c-0.008,0-0.015,0-0.022,0c-4.025,0-7.294,3.257-7.306,7.284
			c-0.012,4.035,3.249,7.316,7.284,7.328l4.483,0.013c0.008,0,0.015,0,0.022,0c4.025,0,7.294-3.257,7.306-7.284
			C82.213,162.003,78.952,158.723,74.917,158.711z"/>
	</g>
</g>
<g>
	<g>
		<path d="M345.958,346.688c-0.007,0-0.014,0-0.021,0c-4.025,0-7.294,3.257-7.306,7.285l-0.013,4.483
			c-0.012,4.035,3.25,7.315,7.285,7.327c0.007,0,0.014,0,0.021,0c4.025,0,7.294-3.257,7.306-7.285l0.013-4.483
			C353.254,349.978,349.993,346.699,345.958,346.688z"/>
	</g>
</g>
<g>
	<g>
		<path d="M345.873,376.285c-0.008,0-0.015,0-0.022,0c-4.025,0-7.294,3.257-7.306,7.284l-0.013,4.483
			c-0.012,4.036,3.249,7.316,7.284,7.328c0.008,0,0.015,0,0.022,0c4.025,0,7.294-3.257,7.306-7.284l0.013-4.483
			C353.169,379.577,349.908,376.298,345.873,376.285z"/>
	</g>
</g>
<g>
	<g>
		<path d="M362.949,363.777l-4.483-0.013c-0.008,0-0.015,0-0.022,0c-4.025,0-7.294,3.257-7.306,7.284
			c-0.012,4.036,3.249,7.316,7.284,7.328l4.483,0.013c0.008,0,0.015,0,0.022,0c4.025,0,7.294-3.257,7.306-7.284
			C370.246,367.069,366.984,363.79,362.949,363.777z"/>
	</g>
</g>
<g>
	<g>
		<path d="M333.352,363.691l-4.483-0.013c-0.008,0-0.015,0-0.022,0c-4.025,0-7.294,3.257-7.306,7.284
			c-0.012,4.036,3.249,7.316,7.284,7.328l4.483,0.013c0.008,0,0.015,0,0.022,0c4.025,0,7.294-3.257,7.306-7.284
			C340.648,366.983,337.387,363.704,333.352,363.691z"/>
	</g>
</g>
<g>
</g>
<g>
</g>
<g>
</g>
<g>
</g>
<g>
</g>
<g>
</g>
<g>
</g>
<g>
</g>
<g>
</g>
<g>
</g>
<g>
</g>
<g>
</g>
<g>
</g>
<g>
</g>
<g>
</g>
</svg>
