<?xml version="1.0" standalone="no"?>
<!DOCTYPE svg PUBLIC "-//W3C//DTD SVG 20010904//EN"
 "http://www.w3.org/TR/2001/REC-SVG-20010904/DTD/svg10.dtd">
<svg version="1.0" xmlns="http://www.w3.org/2000/svg"
 width="1280.000000pt" height="1280.000000pt" viewBox="0 0 1280.000000 1280.000000"
 preserveAspectRatio="xMidYMid meet">
<metadata>
Created by potrace 1.15, written by Peter Selinger 2001-2017
</metadata>
<g transform="translate(0.000000,1280.000000) scale(0.100000,-0.100000)"
fill="#FADD57" stroke="none">
<path d="M5058 12693 c7 -3 16 -2 19 1 4 3 -2 6 -13 5 -11 0 -14 -3 -6 -6z"/>
<path d="M5100 12683 c8 -3 44 -30 80 -59 54 -44 70 -64 93 -120 16 -37 26
-76 23 -88 -3 -13 -24 -30 -53 -43 -74 -35 -95 -56 -83 -85 l10 -23 -3 24 c-1
13 4 26 11 28 8 3 12 -8 12 -39 0 -31 -3 -39 -10 -28 -8 13 -10 13 -10 -1 0
-20 -77 -36 -94 -19 -13 13 -29 13 -21 0 3 -5 -3 -10 -14 -10 -12 0 -21 7 -21
16 0 9 5 12 13 8 9 -6 9 -4 1 7 -14 17 -37 146 -29 160 4 5 1 8 -5 7 -6 -2
-27 35 -46 82 l-34 85 -70 38 c-85 46 -92 36 -11 -16 58 -37 59 -39 94 -135
l35 -98 -42 -86 -41 -87 -58 -7 c-65 -8 -76 -18 -118 -117 -17 -40 -31 -59
-46 -63 -19 -5 -23 -13 -23 -49 0 -23 -12 -74 -26 -111 -31 -83 -40 -183 -26
-311 11 -107 7 -139 -18 -146 -38 -10 -43 8 -14 60 l28 49 -30 84 -29 83 -54
19 c-30 10 -56 16 -58 14 -3 -2 18 -12 46 -21 59 -19 59 -19 87 -107 l22 -67
-34 -54 c-34 -55 -55 -66 -118 -67 -64 -1 -136 -133 -155 -283 -13 -105 -43
-188 -111 -315 -35 -64 -40 -82 -40 -138 0 -64 0 -64 -35 -81 -22 -10 -35 -24
-35 -36 0 -13 -5 -17 -17 -13 -62 19 -219 48 -282 52 -91 7 -366 -19 -387 -36
-7 -7 -14 -18 -14 -24 0 -6 -11 -33 -25 -60 -23 -46 -25 -60 -25 -192 0 -165
17 -337 36 -376 23 -44 18 -65 -17 -72 -17 -3 -35 -3 -41 0 -5 3 -34 3 -64 -1
l-54 -6 -64 -132 c-35 -73 -77 -169 -92 -213 l-28 -82 12 -136 12 -137 -27
-24 c-23 -20 -39 -24 -90 -25 -75 0 -113 -13 -120 -41 -3 -12 -24 -58 -47
-102 l-41 -82 1 -258 1 -259 -36 4 c-68 9 -181 -33 -181 -66 0 -6 -19 -47 -42
-91 l-42 -80 1 -249 c1 -137 5 -252 10 -257 8 -8 131 -33 224 -45 l47 -7 6
-281 c3 -154 8 -300 12 -323 l6 -43 -54 0 c-30 0 -103 -3 -162 -7 l-107 -6
-24 -41 c-13 -23 -44 -103 -70 -178 -51 -153 -50 -119 -25 -453 5 -66 7 -187
3 -270 -4 -126 -2 -173 17 -295 18 -117 23 -195 25 -405 3 -267 7 -320 27
-368 18 -45 4 -158 -25 -204 -26 -42 -27 -47 -45 -298 -6 -72 -23 -193 -40
-270 -25 -112 -32 -174 -37 -315 -6 -169 -6 -177 19 -250 14 -41 34 -114 45
-163 18 -82 18 -94 4 -195 -12 -84 -13 -131 -5 -217 9 -100 15 -120 59 -220
28 -60 57 -129 66 -151 l16 -42 -46 -73 c-82 -133 -100 -215 -108 -499 -3
-113 -11 -263 -17 -335 -12 -140 -16 -199 -17 -257 -1 -30 -6 -39 -30 -51 -23
-12 -28 -12 -24 -2 3 10 -2 12 -18 8 -16 -4 -20 -3 -15 6 6 9 0 10 -20 5 -21
-5 -25 -4 -19 6 5 9 4 11 -4 6 -8 -6 -9 -11 -1 -20 8 -10 4 -13 -17 -12 -16 1
-31 6 -35 11 -4 6 -8 0 -8 -13 0 -13 4 -20 10 -17 5 3 10 1 10 -4 0 -18 -18
-12 -29 8 -12 22 -52 36 -44 15 2 -7 12 -10 21 -7 13 4 14 3 3 -5 -11 -8 -11
-10 0 -14 9 -3 8 -6 -5 -11 -9 -4 -15 -3 -12 1 3 5 -4 16 -15 25 -21 19 -44
23 -34 7 9 -14 -26 -12 -55 4 -16 9 -32 11 -46 6 -19 -8 -23 -5 -29 18 -4 15
-10 21 -12 14 -6 -16 25 -64 37 -57 5 3 11 1 14 -4 12 -19 -16 -23 -35 -5 -24
21 -65 28 -48 8 15 -18 1 -55 -19 -53 -32 3 -43 -1 -36 -13 5 -7 3 -8 -5 -3
-7 4 -10 16 -8 27 3 11 0 21 -9 25 -8 3 -13 12 -10 20 4 9 1 13 -6 10 -7 -2
-14 -10 -14 -18 -3 -31 -5 -33 -14 -19 -5 8 -12 11 -16 7 -4 -4 -2 -13 4 -19
17 -17 15 -28 -7 -28 -14 0 -18 -6 -16 -25 2 -14 -1 -25 -7 -25 -6 0 -7 7 -4
16 6 16 -9 54 -28 66 -8 5 -7 8 2 8 6 0 11 4 10 9 -3 8 2 11 18 11 4 0 1 -7
-6 -15 -9 -11 -9 -15 -1 -15 7 0 9 -4 6 -10 -3 -5 1 -10 11 -10 13 0 14 3 5
14 -10 11 -7 17 10 30 13 8 20 19 16 22 -4 4 -13 1 -21 -5 -8 -7 -17 -8 -20
-3 -3 6 1 15 9 22 8 7 15 18 15 24 -1 6 -11 -2 -24 -18 -13 -16 -29 -25 -35
-22 -7 5 -9 1 -5 -8 3 -9 1 -16 -5 -16 -6 0 -11 5 -11 10 0 6 -7 10 -15 10 -8
0 -15 -8 -15 -17 0 -14 2 -15 9 -5 7 11 9 11 14 -2 4 -9 1 -16 -5 -16 -7 0 -6
-5 2 -15 11 -13 10 -14 -4 -9 -9 3 -16 11 -16 16 0 6 -6 8 -14 5 -9 -4 -20 6
-30 26 -8 18 -16 28 -16 23 0 -5 -7 -3 -15 4 -28 24 -16 -10 12 -35 16 -13 25
-26 22 -29 -11 -11 -60 13 -57 28 2 8 -1 15 -7 16 -17 3 -17 -18 2 -38 22 -23
27 -43 11 -40 -8 2 -13 -7 -13 -22 0 -14 -4 -27 -10 -29 -11 -4 -35 -34 -31
-39 2 -1 16 4 32 13 16 8 30 11 32 5 2 -5 10 -6 18 -3 8 3 14 0 14 -5 0 -6
-14 -9 -32 -7 -27 4 -35 0 -44 -20 -11 -22 -9 -26 24 -45 27 -17 37 -18 43 -8
5 7 3 16 -4 20 -8 5 -6 8 6 8 13 0 16 -5 11 -24 -4 -18 -1 -25 17 -29 12 -3
30 -2 40 4 25 13 29 11 22 -8 -5 -14 -1 -13 25 6 28 20 32 20 32 5 0 -10 -3
-14 -7 -11 -3 4 -17 0 -30 -9 -19 -12 -27 -13 -39 -3 -12 10 -13 9 -9 -4 4 -8
14 -17 24 -20 10 -2 18 -11 18 -20 0 -9 -4 -14 -9 -11 -5 3 -6 10 -3 15 4 5
-1 9 -9 9 -21 0 -20 -16 1 -24 13 -5 14 -9 4 -19 -10 -9 -16 -8 -28 8 -14 18
-15 18 -9 2 3 -10 6 -21 6 -23 0 -2 8 -4 18 -5 11 0 12 -2 4 -6 -7 -3 -22 3
-33 13 -15 14 -22 15 -32 5 -9 -10 -8 -11 7 -5 13 5 17 4 13 -3 -10 -16 15
-32 38 -23 11 4 20 13 20 21 1 8 7 13 14 11 7 -1 12 6 11 15 -4 32 0 44 10 38
6 -4 17 -1 25 5 8 7 15 8 15 3 0 -5 -9 -15 -20 -23 -29 -21 -25 -26 23 -23
l42 2 -29 -16 c-21 -11 -25 -17 -16 -23 9 -6 2 -10 -21 -13 l-34 -4 37 -1 c46
-2 58 -19 24 -32 -14 -5 -26 -11 -26 -14 0 -7 44 6 57 16 7 5 17 7 23 3 5 -3
10 1 10 9 0 10 6 13 16 9 12 -4 13 -7 3 -14 -8 -4 -10 -12 -5 -16 4 -4 14 1
22 11 12 17 14 18 14 3 0 -20 4 -21 31 -7 13 7 19 7 19 0 0 -5 -8 -10 -17 -10
-15 0 -16 -2 -3 -10 12 -7 11 -12 -8 -28 -12 -11 -22 -25 -22 -31 0 -7 -5 -9
-12 -5 -7 5 -8 3 -4 -5 6 -9 13 -8 29 6 11 10 17 12 13 6 -4 -8 -1 -13 8 -13
9 0 13 6 10 14 -6 17 26 57 39 49 5 -3 3 -9 -4 -14 -9 -6 -10 -12 -4 -16 15
-11 12 -39 -3 -35 -14 2 -16 -24 -3 -32 5 -3 12 1 15 10 3 8 10 12 16 9 6 -4
24 1 42 9 39 20 50 13 11 -8 -19 -11 -23 -15 -10 -16 9 0 17 -6 17 -12 0 -7 5
-5 11 5 12 21 31 23 23 2 -5 -11 -2 -14 12 -8 11 3 22 11 26 17 5 7 8 4 8 -6
0 -12 8 -18 23 -18 18 0 19 2 7 10 -12 8 -10 10 8 10 14 0 21 4 17 11 -4 6 2
5 14 -3 12 -7 24 -21 27 -30 3 -10 11 -15 20 -11 8 3 14 2 13 -3 -4 -21 2 -24
24 -10 12 7 36 16 52 20 l30 6 -25 -15 c-15 -8 -19 -14 -10 -14 8 -1 21 3 29
8 10 7 19 4 28 -7 11 -16 12 -16 13 1 0 9 4 17 9 17 5 0 7 -10 5 -22 l-5 -23
12 22 c9 17 18 22 37 18 14 -2 29 -10 33 -17 7 -10 11 -10 21 1 7 8 8 11 2 8
-13 -8 -40 20 -30 30 3 3 6 0 6 -8 1 -10 5 -8 15 5 13 17 15 17 15 4 0 -22 16
-32 26 -17 4 8 3 9 -4 5 -7 -4 -12 -3 -12 3 0 5 4 12 9 15 12 8 22 -20 15 -41
-5 -17 -5 -17 9 -1 11 14 16 15 26 5 10 -9 11 -8 5 8 -6 16 -5 18 7 8 16 -15
49 -17 49 -3 0 6 7 10 15 10 18 0 20 -26 3 -33 -7 -3 -3 -4 8 -4 15 1 20 6 16
17 -4 12 -2 13 9 3 7 -7 23 -13 36 -13 12 0 27 -8 32 -17 6 -10 11 -13 11 -7
0 6 -7 17 -15 24 -21 17 -19 30 5 30 13 0 17 -5 14 -14 -3 -8 3 -19 14 -25 22
-12 32 -6 32 21 0 10 4 18 8 18 5 0 8 -10 8 -21 -1 -12 6 -24 14 -26 13 -4 13
-3 0 6 -13 10 -13 12 0 21 8 5 20 9 25 9 6 0 5 -3 -2 -5 -14 -6 26 -51 41 -46
5 2 13 -3 19 -10 6 -9 7 -8 3 5 -4 14 -1 16 18 11 13 -3 33 -1 44 5 11 6 22 7
26 4 12 -13 48 -14 40 -1 -4 7 -3 8 4 4 6 -4 9 -13 6 -21 -4 -8 -10 -13 -14
-10 -5 3 -11 2 -14 -3 -2 -4 7 -9 20 -10 14 -1 23 2 19 7 -3 5 -1 12 5 16 6 3
13 0 16 -8 4 -11 22 -14 75 -12 38 1 69 -3 69 -8 0 -5 11 -7 25 -5 14 3 25 1
25 -5 0 -5 9 -7 20 -4 11 3 20 2 20 -2 0 -4 12 -8 28 -9 46 -2 67 -7 74 -17 5
-6 8 -5 8 3 0 10 6 9 28 -2 18 -9 33 -11 44 -5 11 6 19 6 23 -1 4 -6 11 -7 17
-4 6 4 14 0 19 -7 5 -9 9 -10 9 -2 0 6 9 9 22 5 15 -4 19 -2 13 7 -6 10 -3 11
14 1 12 -6 27 -9 34 -6 7 2 4 5 -6 5 -10 1 -15 5 -12 11 8 13 48 7 53 -8 2 -7
11 -8 27 -2 12 5 26 6 30 2 10 -10 137 -10 157 0 13 6 16 5 12 -5 -7 -20 29
-27 52 -10 18 13 17 14 -8 8 -17 -5 -28 -3 -28 3 0 16 42 11 64 -7 17 -14 19
-14 14 -1 -4 10 3 20 17 26 20 10 22 8 18 -10 -4 -21 -4 -21 11 -2 9 11 16 24
16 29 0 4 4 6 9 3 5 -4 11 0 14 6 3 7 4 2 3 -12 -3 -34 -15 -52 -28 -44 -7 5
-8 2 -4 -5 6 -9 13 -8 27 5 10 9 18 19 17 23 0 3 0 15 2 26 l1 20 8 -20 c5
-11 6 -26 3 -34 -3 -8 5 -4 18 9 l23 23 13 -24 c7 -13 10 -28 7 -32 -3 -5 4
-4 16 2 11 7 21 19 21 27 0 8 5 12 10 9 8 -5 8 -11 0 -20 -21 -25 8 -26 32 0
23 24 24 24 36 5 7 -12 8 -20 2 -20 -5 0 -10 5 -10 12 0 6 -3 8 -6 5 -8 -7 14
-37 27 -37 4 0 6 9 4 20 -3 15 1 20 18 20 12 0 18 -4 12 -8 -5 -4 -11 -12 -12
-19 -4 -18 24 -5 32 15 6 15 8 15 15 -3 l9 -20 1 20 c1 18 2 19 13 3 9 -11 18
-14 28 -7 10 6 10 9 2 9 -7 0 -13 5 -13 11 0 7 7 8 18 4 20 -8 24 -9 75 -1 24
4 37 2 37 -5 0 -8 4 -8 12 -2 7 6 22 9 33 7 11 -1 23 2 27 9 6 9 8 9 8 0 0 -7
7 -10 15 -7 9 4 15 1 15 -7 0 -8 6 -5 15 7 13 17 14 17 15 2 0 -9 5 -20 12
-24 6 -4 8 -3 4 4 -3 6 -2 13 4 17 5 3 10 0 10 -7 0 -9 3 -9 10 2 7 11 10 11
10 2 0 -7 5 -10 10 -7 6 4 7 12 3 18 -4 7 1 6 11 -2 15 -12 19 -13 26 -1 10
16 40 22 40 8 0 -5 -9 -12 -20 -15 -11 -3 -20 -9 -20 -14 0 -12 17 -11 25 1 3
5 16 10 27 10 12 0 18 -3 15 -6 -4 -4 3 -15 15 -25 29 -26 33 -24 13 7 -9 15
-12 24 -7 20 6 -3 12 -3 15 1 2 5 2 3 1 -4 -2 -6 5 -13 14 -15 9 -2 17 -11 17
-21 0 -9 5 -17 10 -16 6 0 9 10 8 22 l-2 22 15 -22 c13 -19 20 -21 37 -12 16
9 19 9 15 -3 -5 -11 4 -14 43 -11 39 2 47 0 43 -12 -4 -8 -1 -15 5 -15 6 0 11
5 11 11 0 8 4 8 13 1 8 -7 18 -7 27 -2 8 5 18 6 22 4 5 -3 11 2 14 10 3 9 10
13 15 10 5 -3 7 -10 4 -15 -4 -5 0 -9 8 -9 7 0 20 11 27 25 7 14 15 23 17 21
5 -5 -18 -48 -32 -59 -6 -5 -2 -6 8 -3 10 3 21 6 23 6 3 0 3 4 0 9 -7 11 34 2
52 -12 6 -5 12 -5 12 -1 0 5 -9 15 -21 22 -12 7 -18 16 -15 19 3 3 13 0 22 -7
13 -11 17 -11 23 -1 7 10 13 11 31 1 12 -7 20 -8 16 -2 -3 5 1 12 9 16 8 3 17
1 20 -3 2 -5 21 -8 40 -6 34 2 41 -6 36 -38 -1 -5 3 -6 8 -2 6 3 8 12 5 19 -4
11 3 12 35 6 29 -5 38 -4 34 5 -2 7 1 16 8 21 7 4 10 3 5 -4 -3 -6 -1 -14 5
-17 5 -4 8 -13 5 -21 -3 -8 -1 -14 4 -14 6 0 10 6 10 14 0 8 5 18 12 22 7 5 8
2 3 -7 -6 -11 -5 -11 5 -2 8 7 22 8 41 3 16 -5 29 -6 29 -2 0 4 5 0 10 -8 8
-13 11 -13 19 -1 7 11 10 10 15 -6 4 -11 3 -29 0 -39 -6 -14 -2 -12 14 6 l21
25 -6 -25 -5 -25 17 24 c15 20 20 22 29 9 6 -7 26 -20 44 -28 28 -11 35 -11
42 0 4 7 13 9 19 5 9 -5 9 -11 -1 -23 -11 -13 -11 -14 1 -8 8 5 17 3 23 -5 7
-12 9 -11 7 1 -1 8 -1 22 0 30 1 13 2 13 11 0 5 -8 7 -23 4 -33 -3 -10 -2 -17
3 -16 4 1 16 -1 25 -5 9 -4 25 -6 35 -3 12 3 8 5 -9 6 -30 1 -34 8 -17 31 9
12 10 11 5 -4 -6 -18 -6 -19 11 -4 14 12 24 13 43 6 15 -6 20 -12 12 -15 -7
-3 -19 1 -27 7 -11 9 -15 9 -15 1 0 -6 5 -11 10 -11 6 0 10 -8 10 -17 0 -16 2
-16 11 -3 9 13 11 13 16 1 4 -11 10 -9 23 9 13 17 17 19 17 5 0 -20 -50 -47
-71 -39 -12 5 -15 2 -10 -10 6 -14 1 -16 -37 -10 -24 4 -49 10 -54 15 -6 4
-53 6 -106 5 l-95 -2 -72 -50 c-39 -27 -74 -56 -77 -64 -4 -9 3 -7 17 6 13 12
48 38 78 58 52 34 59 36 135 36 44 0 107 -7 139 -14 l60 -14 68 34 c37 19 68
29 68 24 0 -6 5 -8 10 -5 6 4 7 11 4 17 -5 7 -2 8 5 4 7 -5 10 -15 6 -23 -4
-13 -3 -14 10 -3 13 11 19 10 34 -5 19 -16 19 -16 14 4 -3 11 -9 18 -14 15 -5
-3 -9 0 -9 6 0 6 -6 8 -12 4 -10 -5 -10 -4 -2 6 14 14 58 4 48 -11 -3 -6 5 -8
21 -5 21 4 26 2 21 -11 -6 -14 -4 -14 11 -2 15 12 16 12 11 -2 -4 -10 -1 -16
8 -16 8 0 14 4 14 9 0 4 7 8 16 8 8 0 12 5 8 11 -3 6 7 4 23 -5 27 -14 31 -13
47 2 16 16 17 16 10 0 -5 -14 -1 -18 19 -18 14 0 37 -4 51 -9 18 -7 28 -6 36
4 10 12 15 12 37 -2 14 -9 28 -12 31 -7 4 5 15 10 25 10 13 1 15 -2 8 -10 -7
-8 -4 -12 10 -13 11 -1 17 3 13 9 -4 7 1 8 16 3 20 -6 22 -4 16 11 -7 17 -6
17 12 -1 11 -11 17 -24 14 -29 -2 -4 -8 -2 -13 5 -7 11 -9 10 -9 -5 0 -12 5
-16 14 -13 8 3 17 1 20 -6 3 -7 5 -6 5 3 -2 32 1 39 18 33 12 -5 15 -2 10 10
-6 15 -4 16 14 6 11 -6 27 -8 35 -5 9 4 14 -2 14 -16 0 -20 1 -21 20 -3 11 10
23 15 27 12 3 -4 1 -7 -6 -7 -22 0 -6 -23 17 -25 24 -2 30 10 10 18 -7 2 -1 4
14 3 31 -1 34 -6 16 -24 -7 -7 -8 -12 -2 -12 6 0 19 9 29 20 11 13 25 18 37
14 14 -4 17 -1 12 13 -3 10 -2 14 3 8 4 -5 14 -10 22 -10 8 0 16 -7 18 -15 4
-13 3 -13 -6 0 -13 18 -23 9 -11 -10 7 -12 12 -11 29 4 12 11 21 14 21 8 0 -6
7 -9 16 -5 13 5 13 7 2 14 -7 5 -8 9 -3 9 6 0 15 -4 20 -9 6 -5 19 -11 30 -13
11 -1 23 -7 26 -12 4 -5 10 1 14 13 3 11 11 21 17 21 5 0 8 -6 5 -14 -4 -10 0
-14 12 -13 13 1 17 6 13 17 -5 13 -3 13 11 1 9 -7 14 -18 11 -23 -4 -6 3 -5
15 1 11 7 21 14 21 17 0 3 -6 2 -12 -2 -8 -4 -10 -3 -5 2 13 14 30 11 45 -6
12 -13 13 -13 8 3 -3 11 -2 16 4 12 6 -3 10 1 10 10 0 9 5 13 10 10 8 -5 7
-11 0 -20 -9 -11 -2 -13 40 -9 38 3 52 0 56 -11 4 -8 16 -15 27 -15 20 0 20 0
1 15 -12 10 -14 14 -4 13 8 -2 23 -13 34 -24 19 -20 21 -21 34 -5 13 15 13 15
8 -1 -3 -12 0 -18 10 -18 8 0 13 4 9 9 -3 5 -1 12 4 15 5 4 12 2 16 -4 10 -16
35 -12 35 7 0 15 1 15 18 0 10 -10 22 -14 26 -10 4 4 4 0 1 -9 -8 -19 13 -34
27 -20 6 6 6 12 -1 16 -14 9 -14 36 0 36 5 0 7 -5 4 -10 -7 -12 12 -40 26 -40
5 0 6 7 3 15 -4 8 -1 15 5 15 6 0 11 -4 11 -10 0 -5 7 -10 16 -10 11 0 15 -6
11 -20 -3 -12 -1 -18 5 -14 5 3 8 15 5 25 -4 14 0 19 14 19 21 0 25 -20 7 -38
-8 -8 -8 -12 -1 -12 6 0 14 7 17 16 3 8 11 12 17 8 8 -4 9 1 4 17 -3 13 -3 19
2 14 4 -6 20 -12 36 -13 20 -3 27 1 27 15 1 14 4 11 16 -9 15 -29 27 -38 18
-14 -3 9 3 17 18 22 38 13 63 9 62 -8 -1 -10 4 -14 12 -11 12 4 12 8 2 21 -11
13 -10 15 3 10 13 -5 16 -2 11 15 -5 21 -5 21 12 5 19 -19 56 -24 56 -8 0 6
-5 10 -11 10 -5 0 -7 5 -4 11 4 6 16 -1 30 -17 16 -19 25 -23 30 -14 5 8 4 11
-2 7 -6 -4 -13 2 -16 13 -4 16 -2 18 12 10 25 -13 71 -20 71 -11 0 4 -5 12
-11 18 -9 9 -7 11 7 8 11 -1 18 -8 16 -14 -1 -6 3 -11 9 -11 5 0 7 -5 3 -12
-4 -7 -3 -8 5 -4 6 4 9 12 6 17 -4 5 0 18 8 29 12 18 15 18 20 6 4 -9 2 -15
-2 -13 -5 1 -9 -2 -9 -8 -1 -5 5 -9 13 -7 7 1 16 -2 20 -8 3 -6 16 2 30 18 20
21 27 24 34 13 7 -11 9 -11 14 0 4 10 6 10 6 2 1 -16 31 -17 31 -2 0 5 4 7 10
4 21 -13 54 -14 69 -2 11 9 13 9 8 0 -5 -7 1 -16 13 -23 15 -8 20 -8 18 2 -2
7 9 12 30 13 17 0 32 -4 32 -8 0 -5 6 -7 13 -4 6 2 11 10 9 17 -2 8 3 10 13 7
8 -4 26 -2 39 3 17 6 26 5 30 -3 3 -7 3 -1 0 12 -4 16 -3 21 5 17 6 -4 11 0
11 10 0 16 1 16 15 -2 13 -17 14 -18 15 -1 0 10 7 20 16 24 10 4 14 13 10 27
-5 20 -4 20 9 3 7 -11 13 -24 11 -30 -1 -7 2 -2 8 11 5 12 14 22 19 22 5 0 4
6 -2 13 -8 11 -6 13 12 13 17 -1 21 4 19 19 -3 16 -1 18 9 8 7 -7 22 -13 32
-13 16 0 17 2 7 15 -7 9 -10 18 -6 22 3 3 6 1 6 -5 0 -7 8 -5 19 5 11 9 18 20
15 25 -3 4 7 3 22 -2 22 -9 25 -8 20 5 -3 10 1 15 12 16 10 0 12 3 5 6 -22 8
-14 21 9 15 17 -4 20 -2 15 11 -3 9 -2 16 3 14 5 -1 16 7 24 18 11 14 18 16
23 9 6 -9 12 -8 21 2 11 12 10 14 -5 15 -14 0 -13 3 5 12 19 8 26 8 33 -4 8
-10 9 -8 4 9 -8 27 10 53 31 45 8 -3 14 1 14 10 0 8 47 53 105 99 236 187 276
209 372 212 55 1 61 3 46 14 -12 9 -37 12 -78 9 l-60 -4 -1 28 c-1 16 3 29 7
29 5 0 9 4 9 9 0 14 -72 2 -90 -14 -9 -8 -20 -15 -25 -15 -5 0 -19 -10 -32
-22 -13 -12 -23 -17 -24 -12 0 5 -1 86 -3 179 -2 157 -4 175 -28 230 -41 96
-60 174 -53 214 4 20 22 70 40 113 l34 76 0 565 c0 536 -1 567 -19 616 -25 63
-25 98 -2 153 14 37 17 77 17 273 l0 230 -33 85 c-39 99 -38 125 10 234 l31
71 -7 177 c-7 184 -10 201 -64 319 -30 67 -44 79 -89 79 -25 0 -25 1 -17 48 4
26 8 176 7 334 l0 286 33 7 c37 6 61 34 99 117 24 50 25 62 25 237 l0 184 -61
116 c-34 64 -72 128 -85 142 l-25 26 1 239 c1 232 0 243 -23 306 -27 71 -62
130 -100 171 -19 21 -42 30 -120 44 l-97 17 0 111 c0 62 -5 137 -11 166 -6 30
-11 68 -11 84 0 20 -2 24 -5 10 -4 -14 -26 23 -78 130 -88 182 -118 216 -203
240 -35 10 -67 25 -72 35 -21 40 -22 95 -1 155 15 44 21 90 23 170 2 98 0 116
-23 171 -15 37 -23 69 -19 80 4 10 4 28 -1 39 -6 17 -8 17 -8 3 -1 -24 -24
-23 -46 2 -10 11 -42 28 -72 37 -53 17 -63 29 -41 51 16 16 108 16 108 0 0 -6
3 -8 7 -5 3 4 13 1 22 -6 14 -10 14 -10 4 4 -7 9 -10 19 -6 22 3 4 -27 7 -68
7 -63 0 -76 -3 -87 -20 -13 -21 -41 -26 -58 -11 -5 4 -27 13 -49 19 -22 5 -67
20 -100 32 -33 11 -66 23 -74 26 -11 4 -10 9 6 27 14 15 22 41 26 84 3 34 3
64 0 66 -7 7 -104 -39 -115 -55 -6 -8 -8 25 -5 90 l5 104 -24 -23 c-30 -28
-32 -39 -2 -13 20 18 21 18 15 1 -4 -10 -7 -63 -7 -118 0 -77 -3 -99 -14 -99
-7 0 -19 -7 -26 -15 -18 -22 -170 -20 -170 2 0 21 29 73 40 73 6 0 10 7 10 16
0 8 4 12 10 9 6 -4 7 1 3 11 -5 15 -10 13 -30 -12 -12 -16 -31 -45 -40 -64
l-18 -35 -3 31 c-2 17 1 65 7 108 7 62 6 86 -6 122 -8 25 -13 60 -11 79 7 57
-8 26 -26 -54 -9 -40 -16 -104 -16 -142 0 -55 -3 -69 -15 -69 -8 0 -15 -4 -15
-9 0 -5 8 -8 18 -7 13 1 18 -8 20 -38 3 -37 2 -39 -14 -25 -16 12 -17 12 -11
-3 4 -12 1 -18 -9 -18 -12 0 -13 8 -8 36 5 25 3 35 -4 30 -6 -3 -13 2 -16 11
-2 10 -2 -4 1 -32 4 -35 2 -47 -5 -40 -16 16 -30 150 -27 259 l3 99 59 58 c38
39 71 63 97 70 44 12 44 22 -2 13 -17 -3 -56 -29 -86 -56 -52 -46 -56 -48 -57
-26 -1 23 -1 23 -9 -2 l-8 -25 -1 24 c-1 13 -13 39 -27 58 -40 53 -47 87 -20
112 17 16 25 18 34 9 8 -8 9 -6 5 10 -3 12 -11 26 -18 32 -8 6 -11 18 -9 25 4
10 -2 13 -25 10 -17 -2 -31 -2 -31 1 0 2 15 17 33 34 29 26 34 28 54 14 12 -8
26 -14 30 -14 4 0 -7 10 -25 21 l-32 21 -35 -26 c-19 -15 -38 -39 -41 -54 -14
-62 -14 -62 -42 -56 -15 4 -32 12 -39 18 -13 12 -34 116 -26 129 2 4 22 16 44
27 21 11 39 23 39 25 0 5 -41 -13 -82 -35 -12 -7 -20 -3 -32 15 -9 14 -25 25
-36 25 -33 0 -43 43 -32 135 5 44 8 105 7 136 -3 56 -2 57 27 63 17 3 41 6 54
6 17 0 25 7 30 28 4 15 27 66 50 114 76 152 125 285 125 342 1 95 -131 345
-201 381 -73 38 -10 91 97 82 80 -6 76 1 -7 13 -54 8 -68 6 -101 -11 -22 -11
-39 -26 -39 -34 0 -20 -20 -18 -50 5 l-25 19 23 24 c18 19 22 33 19 58 l-4 34
-1 -31 c-1 -17 -9 -38 -19 -45 -15 -13 -16 -11 -10 25 5 32 -1 56 -35 135 -60
142 -121 260 -190 367 l-61 95 2 164 c0 90 -3 175 -9 189 -10 27 13 122 44
187 l17 34 -20 -25 c-11 -14 -27 -51 -36 -83 -20 -72 -38 -66 -32 12 2 31 2
44 0 29 -6 -40 -18 -34 -33 15 -19 63 -82 197 -93 197 -5 0 -4 7 3 15 10 12
10 15 -4 15 -9 0 -16 -7 -16 -16 0 -26 -23 -10 -47 32 -13 21 -23 35 -23 30 0
-5 -11 1 -26 15 -23 21 -24 25 -8 36 15 11 14 12 -7 11 -66 -4 -89 2 -89 23 0
11 5 30 11 41 8 14 8 18 0 14 -6 -4 -14 -20 -18 -37 l-8 -30 -70 62 c-60 53
-69 66 -68 93 2 29 1 29 -9 -6 -9 -35 -38 -54 -38 -25 0 9 -2 9 -8 0 -6 -9
-27 3 -75 41 -63 50 -72 54 -137 60 -39 4 -79 5 -89 1 -15 -5 -18 -1 -15 22 3
25 3 24 -6 -4 -7 -21 -17 -33 -28 -33 -14 0 -17 7 -14 39 4 36 9 43 63 76 32
20 59 39 59 41 0 6 -55 -26 -102 -58 -17 -12 -28 -29 -28 -42 0 -43 -12 -86
-25 -86 -6 0 -16 16 -22 35 -6 19 -7 33 -3 30 5 -3 11 -1 15 5 3 5 -3 10 -13
10 -11 0 -25 7 -32 15 -19 22 -34 18 -59 -16 -18 -24 -29 -30 -54 -27 -28 3
-32 7 -38 43 -4 22 -12 51 -18 65 -11 24 -11 23 -6 -7 3 -18 8 -46 11 -63 5
-23 3 -30 -9 -30 -11 0 -17 17 -22 70 -4 39 -10 70 -14 70 -4 0 -4 -21 0 -47
4 -27 8 -57 8 -68 l0 -20 -9 20 c-7 17 -9 17 -9 3 -1 -29 -20 -21 -63 25 -22
23 -35 35 -29 26 9 -13 8 -18 -4 -23 -22 -8 -30 20 -15 52 6 15 8 24 4 20 -4
-4 -13 0 -21 10 -14 16 -14 16 -8 -3 4 -11 7 -26 6 -32 -1 -7 -2 -21 -3 -32
-4 -36 -33 -14 -57 45 -21 50 -35 67 -92 109 -38 28 -76 51 -86 52 -13 2 -14
1 -3 -4z m308 -250 c-2 -9 -15 -20 -30 -24 -25 -6 -28 -5 -28 17 0 20 5 24 31
24 23 0 30 -4 27 -17z m-68 -9 c0 -8 -4 -12 -10 -9 -5 3 -10 10 -10 16 0 5 5
9 10 9 6 0 10 -7 10 -16z m-20 -18 c0 -3 -4 -8 -10 -11 -5 -3 -10 -1 -10 4 0
6 5 11 10 11 6 0 10 -2 10 -4z m133 -42 c-8 -22 -23 -6 -23 24 1 25 2 26 15 9
7 -11 11 -25 8 -33z m243 8 c-9 -8 -26 10 -26 26 1 15 2 15 15 -2 8 -11 13
-21 11 -24z m-271 -10 c6 -37 -16 -102 -35 -102 -5 0 -15 -3 -24 -6 -11 -4
-16 -1 -16 11 0 10 5 13 12 9 8 -5 9 -2 4 11 -4 11 -10 38 -13 61 -5 36 -3 43
13 47 45 11 52 8 59 -31z m-95 -49 c0 -63 -2 -69 -26 -80 -23 -11 -26 -10 -21
6 2 10 1 36 -2 57 -9 47 5 84 31 84 16 0 18 -9 18 -67z m-63 -17 l3 -73 -33 6
c-30 6 -32 9 -35 56 -3 41 0 52 20 67 13 10 28 18 33 18 6 0 11 -33 12 -74z
m269 52 c-1 -21 -26 -40 -26 -19 0 6 6 11 13 12 9 0 9 2 -1 6 -6 2 -10 9 -6
14 10 16 21 9 20 -13z m114 -17 c-1 -25 -1 -25 -15 -7 -19 26 -19 47 0 40 8
-4 15 -18 15 -33z m-170 10 c0 -6 -4 -13 -10 -16 -5 -3 -10 1 -10 9 0 9 5 16
10 16 6 0 10 -4 10 -9z m139 -18 c10 -21 9 -28 -1 -34 -25 -16 -41 -10 -34 14
3 12 6 28 6 35 0 21 16 13 29 -15z m91 7 c13 -25 5 -40 -21 -40 -14 0 -19 7
-19 30 0 35 23 41 40 10z m281 -10 c16 -12 33 -20 35 -17 3 3 -4 11 -16 17
-12 6 -19 14 -16 17 3 3 24 -9 46 -27 29 -23 38 -36 31 -43 -8 -8 -15 -7 -23
2 -11 10 -9 11 7 6 20 -7 20 -6 1 9 -21 17 -32 12 -38 -18 -1 -11 -15 -23 -31
-29 -23 -7 -34 -4 -74 25 -26 19 -50 45 -54 58 -5 16 -7 19 -8 8 -1 -17 -21
-26 -21 -10 0 39 106 40 161 2z m-1012 -45 l0 -64 -35 -7 c-19 -3 -37 -4 -40
-1 -6 6 58 137 68 137 4 0 7 -29 7 -65z m521 21 c0 -27 -29 -44 -41 -24 -8 13
16 48 33 48 4 0 8 -11 8 -24z m50 -11 c0 -8 -6 -15 -14 -15 -17 0 -28 14 -19
24 12 12 33 6 33 -9z m280 5 c13 -8 13 -10 -2 -10 -9 0 -20 5 -23 10 -8 13 5
13 25 0z m-403 -22 c-3 -8 -6 -5 -6 6 -1 11 2 17 5 13 3 -3 4 -12 1 -19z m813
-53 c18 -19 30 -38 27 -42 -8 -7 -77 55 -77 69 0 16 17 7 50 -27z m-90 -26 c0
-16 -4 -29 -10 -29 -5 0 -10 5 -10 11 0 5 -5 7 -10 4 -15 -9 -40 14 -40 36 0
20 38 30 58 16 6 -5 12 -22 12 -38z m-80 16 c0 -17 -2 -18 -24 -9 -23 9 -20
24 4 24 11 0 20 -7 20 -15z m109 -37 c0 -28 -2 -30 -9 -13 -12 28 -12 45 0 45
6 0 10 -15 9 -32z m56 -28 c12 -12 35 -23 51 -26 34 -6 38 -9 29 -23 -4 -7
-28 0 -66 19 -33 17 -57 35 -54 40 9 14 16 12 40 -10z m115 -45 c10 -12 10
-15 -4 -15 -9 0 -16 7 -16 15 0 8 2 15 4 15 2 0 9 -7 16 -15z m95 -33 c21 -23
36 -45 33 -48 -7 -6 -88 75 -88 88 0 16 14 6 55 -40z m-65 -18 c0 -14 -3 -14
-15 -4 -8 7 -15 14 -15 16 0 2 7 4 15 4 8 0 15 -7 15 -16z m209 -86 c10 -30 9
-31 -4 -14 -8 11 -15 26 -15 33 0 22 8 14 19 -19z m-2348 -1270 c-4 -17 -12
-33 -19 -36 -15 -5 -15 10 0 43 16 35 27 31 19 -7z m-151 -152 c0 -3 -4 -8
-10 -11 -5 -3 -10 -1 -10 4 0 6 5 11 10 11 6 0 10 -2 10 -4z m2940 -1217 c0
-10 -4 -19 -10 -19 -5 0 -10 12 -10 26 0 14 4 23 10 19 6 -3 10 -15 10 -26z
m69 -27 c12 -32 13 -45 4 -50 -7 -5 -9 -13 -3 -21 13 -21 1 -41 -25 -41 -38 0
-39 18 -5 56 37 43 33 59 -5 18 l-26 -29 6 30 c3 17 12 35 20 41 12 9 12 13
-3 28 -16 17 -16 18 2 14 12 -2 25 -19 35 -46z m-82 -34 c-3 -7 -5 -2 -5 12 0
14 2 19 5 13 2 -7 2 -19 0 -25z m120 -70 c-3 -8 -6 -5 -6 6 -1 11 2 17 5 13 3
-3 4 -12 1 -19z m160 10 c-2 -7 -10 -30 -18 -50 -7 -21 -17 -38 -21 -38 -14 0
-9 55 8 78 16 23 39 30 31 10z m23 -25 c0 -5 -7 -17 -15 -27 -15 -20 -20 -10
-9 18 6 16 24 22 24 9z m-125 -94 c11 -17 -1 -21 -15 -4 -8 9 -8 15 -2 15 6 0
14 -5 17 -11z m85 -115 c0 -8 -4 -12 -10 -9 -5 3 -10 13 -10 21 0 8 5 12 10 9
6 -3 10 -13 10 -21z m206 -234 c-7 -87 -17 -174 -21 -178 -5 -6 -16 235 -10
251 17 54 16 53 27 27 6 -14 7 -58 4 -100z m360 -110 c-4 -28 -9 -57 -12 -65
-9 -23 -24 -18 -25 8 -1 14 -4 10 -9 -13 -6 -30 -8 -32 -15 -15 -5 11 -15 25
-23 31 -23 17 -2 64 38 86 19 10 39 18 44 18 5 0 6 -22 2 -50z m-125 -73 c-13
-13 -26 -3 -16 12 3 6 11 8 17 5 6 -4 6 -10 -1 -17z m569 -227 c0 -5 -2 -10
-4 -10 -3 0 -8 5 -11 10 -3 6 -1 10 4 10 6 0 11 -4 11 -10z m-2584 -865 c4
-27 6 -68 6 -90 0 -37 0 -38 7 -10 7 30 7 30 19 -16 6 -26 15 -55 18 -65 7
-18 6 -18 -13 1 -11 11 -18 27 -16 35 4 11 3 12 -4 3 -7 -9 -20 -1 -52 31
l-43 44 15 58 c9 33 21 73 27 89 l13 30 8 -30 c5 -16 12 -52 15 -80z m-14
-152 c32 -32 58 -62 58 -67 0 -6 -17 6 -37 26 -21 20 -50 41 -65 47 -18 7 -28
18 -28 31 0 11 3 20 7 20 4 0 33 -26 65 -57z m-36 -22 c18 -11 43 -35 58 -53
23 -30 25 -43 23 -104 -2 -56 -5 -70 -19 -74 -15 -4 -12 -11 17 -42 19 -20 35
-40 35 -45 0 -4 9 -14 20 -20 10 -7 22 -29 26 -49 4 -21 13 -49 20 -63 8 -14
14 -36 14 -49 0 -13 4 -31 10 -41 10 -19 34 -278 28 -305 -2 -14 -9 -12 -41
10 -47 32 -259 104 -302 103 -27 -1 -26 -2 10 -10 116 -24 273 -90 344 -145 1
-2 11 -47 20 -101 16 -100 17 -203 0 -203 -5 0 -9 4 -9 8 0 5 -7 17 -15 28
-15 17 -15 16 -2 -11 9 -19 17 -83 21 -175 l6 -145 -24 45 c-14 25 -34 70 -46
101 -12 32 -41 77 -67 105 l-45 49 39 -50 c22 -27 50 -77 63 -110 13 -33 38
-89 55 -125 26 -52 33 -81 36 -140 l4 -75 -50 -6 -50 -6 52 -1 51 -2 7 -77 c4
-42 4 -108 0 -147 -11 -93 -11 -156 -2 -241 16 -147 19 -211 8 -195 -16 22
-13 3 4 -30 10 -20 12 -36 6 -52 -5 -13 -17 -54 -27 -93 -13 -53 -19 -65 -25
-50 -5 12 -6 2 -2 -22 3 -24 2 -43 -3 -43 -4 0 -34 18 -66 41 -32 22 -58 38
-58 35 0 -2 27 -24 60 -47 53 -37 60 -46 60 -75 0 -30 -3 -34 -26 -34 -72 0
-254 -61 -254 -86 0 -3 19 6 43 20 40 23 171 56 223 56 23 0 24 -3 24 -58 0
-32 7 -110 16 -173 9 -63 16 -165 15 -227 l-2 -113 30 -35 c37 -42 38 -62 7
-146 -31 -83 -44 -254 -26 -343 7 -33 11 -74 11 -91 -1 -20 11 -48 37 -85 36
-50 40 -60 45 -139 6 -105 -19 -218 -73 -330 -37 -74 -49 -143 -50 -283 l0
-38 -27 20 c-16 10 -59 30 -97 42 -49 17 -85 39 -128 77 -77 68 -87 67 -18 -3
44 -45 71 -62 145 -91 139 -55 130 -25 131 -434 2 -465 -1 -425 34 -462 17
-17 35 -49 41 -72 12 -45 0 -97 -53 -234 -21 -55 -28 -90 -28 -142 0 -42 -4
-70 -10 -70 -11 0 -10 31 6 225 4 44 4 77 1 74 -4 -3 -15 -40 -25 -83 -16 -67
-20 -75 -31 -62 -23 27 -34 19 -27 -19 12 -62 -2 -119 -32 -133 -33 -15 -86
-16 -76 -1 4 8 1 8 -13 0 -23 -12 -63 -11 -63 2 0 4 -5 5 -10 2 -6 -4 -8 -11
-5 -16 4 -5 2 -9 -4 -9 -5 0 -11 10 -13 22 -2 12 -10 23 -18 25 -12 4 -13 3
-1 -5 7 -5 10 -15 6 -21 -5 -9 -10 -9 -21 0 -7 6 -11 15 -8 20 3 5 -2 9 -10 9
-9 0 -15 -5 -13 -12 5 -24 -30 -18 -41 7 -6 14 -17 25 -24 25 -9 0 -9 -3 2
-10 8 -5 11 -12 7 -16 -3 -4 -14 -1 -24 7 -14 12 -15 12 -9 0 6 -9 5 -12 -5
-9 -8 3 -13 11 -12 17 2 6 -8 11 -22 11 -17 0 -25 -6 -26 -17 0 -14 -2 -13 -9
5 -11 26 -37 29 -43 5 -3 -11 -5 -7 -6 10 -1 33 -18 35 -31 5 -7 -19 -9 -19
-9 -5 -1 10 -5 15 -11 12 -5 -3 -10 -2 -10 4 0 6 16 13 36 17 20 4 47 17 61
30 14 13 29 24 33 24 4 0 20 -19 36 -42 26 -39 29 -41 32 -20 5 31 -16 79 -40
96 -18 13 -16 15 27 36 49 24 130 29 164 10 16 -8 19 -8 15 3 -15 39 -89 46
-166 17 -28 -11 -53 -18 -55 -16 -3 3 61 91 82 111 33 34 93 71 148 91 47 18
55 23 34 23 -15 1 -41 -6 -57 -14 -18 -10 -30 -11 -30 -5 0 15 -34 -4 -81 -47
-21 -19 -39 -30 -39 -24 0 21 -28 11 -49 -16 l-20 -28 1 37 c1 38 14 48 66 48
12 0 22 5 22 11 0 8 -14 10 -42 6 -24 -2 -37 -3 -30 0 17 7 15 23 -3 23 -13 0
-15 59 -15 473 l0 472 -25 60 c-31 74 -31 81 0 156 l24 61 3 717 c1 394 2 775
2 846 0 138 -6 162 -84 339 l-22 48 22 62 c12 33 36 92 52 131 l30 69 -3 291
c-3 277 14 933 25 965 6 18 24 233 32 384 4 75 2 122 -7 148 -12 36 -10 41 35
130 25 51 49 108 52 126 5 24 11 32 22 27 12 -4 12 -3 3 8 -8 11 -5 40 15 126
15 61 30 111 33 111 3 0 20 -9 37 -19z m130 -157 c17 -41 10 -77 -14 -72 -13
2 -18 16 -20 56 -4 62 12 69 34 16z m18 -110 c3 -8 2 -12 -4 -9 -6 3 -10 10
-10 16 0 14 7 11 14 -7z m-3979 -5714 c-4 -6 -1 -18 6 -27 11 -13 11 -15 -6
-12 -21 5 -27 29 -10 41 14 11 17 10 10 -2z m208 -17 c-3 -7 -6 -13 -8 -13 -2
0 -5 6 -8 13 -3 8 1 14 8 14 7 0 11 -6 8 -14z m-422 -46 c-10 -9 -11 -8 -5 6
3 10 9 15 12 12 3 -3 0 -11 -7 -18z m200 7 c8 4 5 0 -6 -9 -12 -9 -21 -11 -23
-5 -2 5 -9 7 -15 3 -7 -4 -6 1 2 11 10 12 16 14 21 5 4 -6 14 -8 21 -5z m66
-4 c2 -23 -13 -35 -23 -19 -5 8 -3 9 6 4 10 -6 12 -4 7 7 -3 9 -3 19 0 22 9 8
9 8 10 -14z m-473 -25 c-4 -8 -1 -15 5 -15 6 0 11 5 11 12 0 9 3 9 11 1 7 -7
9 -20 5 -30 -6 -15 -8 -15 -16 -3 -6 8 -10 11 -10 5 0 -14 -20 17 -20 33 0 6
4 12 10 12 5 0 7 -7 4 -15z m121 -5 c-3 -5 -11 -10 -16 -10 -6 0 -7 5 -4 10 3
6 11 10 16 10 6 0 7 -4 4 -10z m-45 -10 c8 -5 11 -10 5 -10 -5 0 -17 5 -25 10
-8 5 -10 10 -5 10 6 0 17 -5 25 -10z m130 -24 c0 -3 -4 -8 -10 -11 -5 -3 -10
-1 -10 4 0 6 5 11 10 11 6 0 10 -2 10 -4z m3657 -18 c-3 -8 -6 -5 -6 6 -1 11
2 17 5 13 3 -3 4 -12 1 -19z m-3780 -14 c-3 -3 -12 -4 -19 -1 -8 3 -5 6 6 6
11 1 17 -2 13 -5z m-28 -17 c-2 -1 -13 -9 -24 -17 -19 -14 -19 -14 -6 3 7 9
18 17 24 17 6 0 8 -1 6 -3z m51 -17 c0 -5 -2 -10 -4 -10 -3 0 -8 5 -11 10 -3
6 -1 10 4 10 6 0 11 -4 11 -10z m-114 -9 c-3 -5 -15 -7 -26 -4 -28 7 -25 13 6
13 14 0 23 -4 20 -9z m4424 -6 c0 -8 -2 -15 -4 -15 -2 0 -6 7 -10 15 -3 8 -1
15 4 15 6 0 10 -7 10 -15z m3545 -35 c-3 -4 -22 -18 -42 -30 -38 -22 -38 -20
5 32 13 16 47 14 37 -2z m-7895 5 c0 -2 -10 -10 -22 -16 -21 -11 -22 -11 -9 4
13 16 31 23 31 12z m150 -37 c0 -4 -4 -8 -9 -8 -6 0 -12 4 -15 8 -3 5 1 9 9 9
8 0 15 -4 15 -9z m-15 -38 c-8 -13 18 -18 39 -8 14 8 17 7 13 -4 -2 -7 -10
-12 -17 -10 -11 2 -11 0 -1 -12 8 -10 9 -16 1 -21 -6 -3 -7 -11 -4 -17 4 -7 2
-8 -5 -4 -6 4 -18 4 -24 -1 -7 -4 -4 0 6 10 19 17 19 18 1 38 -19 21 -29 53
-13 43 5 -3 7 -9 4 -14z m75 -84 c0 -3 -4 -8 -10 -11 -5 -3 -10 -1 -10 4 0 6
5 11 10 11 6 0 10 -2 10 -4z m-50 -10 c0 -3 -4 -8 -10 -11 -5 -3 -10 -1 -10 4
0 6 5 11 10 11 6 0 10 -2 10 -4z m180 -37 c0 -5 -4 -7 -10 -4 -5 3 -10 1 -10
-6 0 -7 -3 -10 -6 -6 -8 7 4 27 17 27 5 0 9 -5 9 -11z m30 -39 c0 -5 -5 -10
-11 -10 -5 0 -7 5 -4 10 3 6 8 10 11 10 2 0 4 -4 4 -10z m161 -43 c-10 -9 -11
-8 -5 6 3 10 9 15 12 12 3 -3 0 -11 -7 -18z m149 -20 c0 -2 -9 -12 -20 -22
-24 -21 -27 -14 -4 9 15 15 24 20 24 13z m-76 -57 c-6 -6 -10 -3 -10 10 0 13
4 16 10 10 7 -7 7 -13 0 -20z m1996 -80 c0 -5 -5 -10 -11 -10 -5 0 -7 5 -4 10
3 6 8 10 11 10 2 0 4 -4 4 -10z m-658 -7 c-6 -2 -10 -8 -7 -13 3 -4 -4 -6 -16
-3 -16 4 -17 8 -7 14 7 5 20 8 28 8 10 0 11 -2 2 -6z m618 -3 c0 -5 -2 -10 -4
-10 -3 0 -8 5 -11 10 -3 6 -1 10 4 10 6 0 11 -4 11 -10z m889 -52 c-12 -21
-24 -24 -16 -4 3 8 1 17 -6 19 -7 3 -2 4 10 4 17 -1 20 -4 12 -19z m-99 -12
c0 -3 -4 -8 -10 -11 -5 -3 -10 -1 -10 4 0 6 5 11 10 11 6 0 10 -2 10 -4z m184
-4 c3 -5 -1 -9 -9 -9 -8 0 -15 4 -15 9 0 4 4 8 9 8 6 0 12 -4 15 -8z m-39 -12
c3 -6 -1 -7 -9 -4 -18 7 -21 14 -7 14 6 0 13 -4 16 -10z m735 -76 c0 -2 -7 -4
-15 -4 -8 0 -15 4 -15 10 0 5 7 7 15 4 8 -4 15 -8 15 -10z m490 -44 c0 -5 -4
-10 -10 -10 -5 0 -10 5 -10 10 0 6 5 10 10 10 6 0 10 -4 10 -10z m1833 -60 c3
-11 1 -18 -4 -14 -5 3 -9 12 -9 20 0 20 7 17 13 -6z m124 -2 c-3 -8 -6 -5 -6
6 -1 11 2 17 5 13 3 -3 4 -12 1 -19z"/>
<path d="M7790 8615 c0 -8 2 -15 4 -15 2 0 6 7 10 15 3 8 1 15 -4 15 -6 0 -10
-7 -10 -15z"/>
<path d="M5860 6170 c6 -11 13 -20 16 -20 2 0 0 9 -6 20 -6 11 -13 20 -16 20
-2 0 0 -9 6 -20z"/>
<path d="M5789 5581 c-25 -6 -109 -93 -151 -156 -11 -17 -5 -13 14 10 70 85
121 135 137 135 9 0 23 5 31 10 16 11 9 11 -31 1z"/>
<path d="M5554 4424 c-18 -14 -18 -15 4 -4 12 6 22 13 22 15 0 8 -5 6 -26 -11z"/>
<path d="M5665 1130 c-7 -11 22 -26 32 -16 4 3 -1 6 -11 6 -9 0 -14 5 -11 10
3 6 4 10 1 10 -3 0 -8 -5 -11 -10z"/>
<path d="M5451 12514 c0 -11 3 -14 6 -6 3 7 2 16 -1 19 -3 4 -6 -2 -5 -13z"/>
<path d="M6060 12506 c0 -2 7 -7 16 -10 8 -3 12 -2 9 4 -6 10 -25 14 -25 6z"/>
<path d="M5182 12480 c0 -14 2 -19 5 -12 2 6 2 18 0 25 -3 6 -5 1 -5 -13z"/>
<path d="M5461 12474 c0 -11 3 -14 6 -6 3 7 2 16 -1 19 -3 4 -6 -2 -5 -13z"/>
<path d="M5180 12438 c0 -9 5 -20 10 -23 13 -8 13 5 0 25 -8 13 -10 13 -10 -2z"/>
<path d="M6110 12410 c0 -6 -10 -15 -22 -20 -20 -8 -19 -9 10 -6 40 3 44 7 26
24 -9 8 -14 9 -14 2z"/>
<path d="M6180 12383 c8 -3 18 -11 22 -17 5 -7 8 -4 8 7 0 11 -7 17 -22 16
-16 0 -18 -2 -8 -6z"/>
<path d="M6132 12340 c0 -19 2 -27 5 -17 2 9 2 25 0 35 -3 9 -5 1 -5 -18z"/>
<path d="M5119 12283 c-13 -16 -12 -17 4 -4 16 13 21 21 13 21 -2 0 -10 -8
-17 -17z"/>
<path d="M6438 12223 c12 -2 32 -2 45 0 12 2 2 4 -23 4 -25 0 -35 -2 -22 -4z"/>
<path d="M4308 11723 c6 -2 18 -2 25 0 6 3 1 5 -13 5 -14 0 -19 -2 -12 -5z"/>
<path d="M7353 9085 c0 -22 2 -30 4 -17 2 12 2 30 0 40 -3 9 -5 -1 -4 -23z"/>
<path d="M8298 8506 c-2 -19 -1 -43 3 -53 5 -11 8 2 8 35 1 59 -5 69 -11 18z"/>
<path d="M8297 8410 c3 -11 7 -20 9 -20 2 0 4 9 4 20 0 11 -4 20 -9 20 -5 0
-7 -9 -4 -20z"/>
<path d="M8368 7733 c6 -2 18 -2 25 0 6 3 1 5 -13 5 -14 0 -19 -2 -12 -5z"/>
<path d="M8410 7725 c0 -2 18 -14 40 -25 22 -11 40 -18 40 -15 0 2 -18 14 -40
25 -22 11 -40 18 -40 15z"/>
<path d="M8500 7677 c0 -3 12 -12 26 -22 15 -9 23 -12 20 -6 -7 11 -46 35 -46
28z"/>
<path d="M8621 7513 c7 -12 15 -20 18 -17 3 2 -3 12 -13 22 -17 16 -18 16 -5
-5z"/>
<path d="M8641 7464 c0 -11 3 -14 6 -6 3 7 2 16 -1 19 -3 4 -6 -2 -5 -13z"/>
<path d="M8652 7420 c0 -14 2 -19 5 -12 2 6 2 18 0 25 -3 6 -5 1 -5 -13z"/>
<path d="M8661 7374 c0 -11 3 -14 6 -6 3 7 2 16 -1 19 -3 4 -6 -2 -5 -13z"/>
<path d="M1550 1370 c0 -6 7 -10 15 -10 8 0 15 2 15 4 0 2 -7 6 -15 10 -8 3
-15 1 -15 -4z"/>
<path d="M557 1359 c7 -7 15 -10 18 -7 3 3 -2 9 -12 12 -14 6 -15 5 -6 -5z"/>
<path d="M1080 1370 c-1 -3 -3 -16 -6 -30 -3 -21 -2 -22 7 -7 6 10 8 23 5 30
-2 7 -5 10 -6 7z"/>
<path d="M1661 1364 c-1 -7 -10 -14 -21 -17 -11 -3 -20 -11 -20 -19 0 -11 2
-11 9 0 4 8 11 13 15 12 16 -4 29 7 23 21 -3 7 -6 9 -6 3z"/>
<path d="M895 1350 c-3 -6 1 -7 9 -4 18 7 21 14 7 14 -6 0 -13 -4 -16 -10z"/>
<path d="M1330 1350 c0 -5 5 -10 11 -10 5 0 7 5 4 10 -3 6 -8 10 -11 10 -2 0
-4 -4 -4 -10z"/>
<path d="M1790 1356 c0 -2 7 -7 16 -10 8 -3 12 -2 9 4 -6 10 -25 14 -25 6z"/>
<path d="M1303 1319 c-2 -23 3 -25 10 -4 4 8 3 16 -1 19 -4 3 -9 -4 -9 -15z"/>
<path d="M1021 1321 c-8 -5 -9 -11 -3 -15 5 -3 12 1 16 9 6 17 6 18 -13 6z"/>
<path d="M1659 1304 l-24 -27 23 6 c26 6 28 -1 5 -19 -16 -11 -15 -12 12 -9
17 2 31 4 32 4 1 1 -4 13 -12 28 -8 15 -12 30 -9 35 10 17 -3 7 -27 -18z"/>
<path d="M1855 1320 c-3 -5 -1 -10 4 -10 6 0 11 5 11 10 0 6 -2 10 -4 10 -3 0
-8 -4 -11 -10z"/>
<path d="M786 1303 c-6 -14 -5 -15 5 -6 7 7 10 15 7 18 -3 3 -9 -2 -12 -12z"/>
<path d="M933 1303 c0 -7 3 -11 5 -8 3 3 11 0 18 -6 9 -8 11 -6 7 9 -5 21 -30
26 -30 5z"/>
<path d="M1101 1299 c-6 -16 -5 -29 3 -38 9 -12 8 -13 -6 -8 -10 3 -20 2 -23
-3 -4 -6 5 -10 19 -10 27 0 43 15 26 25 -15 9 -12 23 7 27 15 3 15 4 0 17 -15
12 -18 10 -26 -10z"/>
<path d="M1158 1303 c7 -3 16 -2 19 1 4 3 -2 6 -13 5 -11 0 -14 -3 -6 -6z"/>
<path d="M1207 1291 c-3 -14 0 -21 9 -21 16 0 18 9 5 28 -6 10 -10 9 -14 -7z"/>
<path d="M1230 1303 c0 -7 5 -15 10 -18 7 -4 7 -13 0 -25 -8 -16 -8 -18 5 -14
8 3 12 10 9 15 -3 5 0 9 5 9 6 0 11 -9 11 -20 0 -11 5 -20 11 -20 5 0 8 4 4 9
-3 5 -1 12 5 16 5 3 10 14 10 23 0 15 -2 15 -10 2 -9 -13 -11 -13 -20 0 -5 8
-10 11 -10 5 0 -5 -7 -1 -15 9 -8 11 -15 15 -15 9z"/>
<path d="M1427 1303 c-3 -5 -2 -15 2 -22 7 -10 10 -10 16 -1 4 6 3 16 -3 22
-5 5 -12 6 -15 1z"/>
<path d="M1318 1289 c-4 -9 -1 -22 5 -28 9 -9 8 -11 -5 -6 -11 4 -18 2 -18 -4
0 -12 27 -15 33 -3 2 4 1 18 -3 32 -5 20 -7 22 -12 9z"/>
<path d="M1370 1270 c0 -5 5 -10 11 -10 5 0 7 5 4 10 -3 6 -8 10 -11 10 -2 0
-4 -4 -4 -10z"/>
<path d="M996 1259 c3 -5 -2 -21 -9 -36 -11 -21 -12 -31 -3 -38 17 -15 53 -16
53 -1 0 8 -9 13 -23 11 -12 -1 -21 3 -19 9 2 11 15 45 21 57 2 3 -3 6 -11 6
-8 0 -12 -4 -9 -8z"/>
<path d="M1184 1255 c3 -10 -1 -15 -12 -16 -14 0 -14 -2 3 -9 11 -5 14 -9 8
-9 -7 -1 -13 -6 -13 -12 0 -5 5 -7 10 -4 6 3 13 -1 16 -9 3 -9 11 -13 17 -9 5
3 7 1 3 -5 -10 -17 10 -24 23 -8 10 11 8 16 -8 21 -21 6 -36 38 -27 54 3 5 -1
12 -10 15 -12 4 -15 2 -10 -9z"/>
<path d="M1218 1223 c14 -26 51 -40 62 -23 6 9 9 9 12 -1 3 -9 6 -8 11 4 5 13
0 17 -21 18 -15 1 -31 1 -36 0 -4 -1 -15 4 -24 11 -13 11 -14 10 -4 -9z"/>
<path d="M1340 1230 c0 -6 -5 -8 -12 -4 -7 4 -8 3 -4 -4 4 -7 2 -12 -3 -12 -6
0 -11 -4 -11 -10 0 -5 7 -10 15 -10 8 0 15 6 15 14 0 8 5 16 12 18 9 3 9 6 0
12 -7 4 -12 2 -12 -4z"/>
<path d="M556 1215 c4 -8 7 -15 9 -15 2 0 5 7 9 15 3 9 0 15 -9 15 -9 0 -12
-6 -9 -15z"/>
<path d="M776 1218 c3 -5 10 -6 15 -3 13 9 11 12 -6 12 -8 0 -12 -4 -9 -9z"/>
<path d="M1130 1223 c0 -4 16 -25 36 -46 28 -30 32 -38 20 -43 -9 -3 -16 -10
-16 -16 0 -5 5 -6 10 -3 14 9 13 -8 -2 -23 -9 -9 -9 -12 0 -12 7 0 15 6 18 14
3 8 12 12 19 10 7 -3 16 0 21 7 4 8 3 10 -4 5 -7 -4 -12 -3 -12 3 0 6 -8 7
-17 4 -15 -6 -16 -4 -5 9 16 20 7 43 -24 56 -13 7 -23 17 -22 23 2 6 -3 14 -9
16 -7 3 -13 1 -13 -4z"/>
<path d="M1055 1209 c-11 -17 1 -21 15 -4 8 9 8 15 2 15 -6 0 -14 -5 -17 -11z"/>
<path d="M1104 1204 c9 -8 13 -21 10 -27 -5 -9 -3 -8 6 0 11 10 11 15 0 28 -7
8 -17 15 -22 15 -5 0 -2 -7 6 -16z"/>
<path d="M760 1190 c-9 -6 -10 -10 -3 -10 6 0 15 5 18 10 8 12 4 12 -15 0z"/>
<path d="M800 1195 c0 -3 10 -16 21 -28 l21 -22 -11 22 c-11 22 -31 40 -31 28z"/>
<path d="M847 1185 c-4 -8 -1 -17 6 -21 7 -4 9 -4 5 1 -4 4 -3 14 3 22 7 8 8
13 1 13 -5 0 -12 -7 -15 -15z"/>
<path d="M896 1187 c3 -10 9 -15 12 -12 3 3 0 11 -7 18 -10 9 -11 8 -5 -6z"/>
<path d="M1070 1179 c0 -5 -5 -7 -12 -3 -7 4 -8 3 -4 -4 4 -6 13 -9 21 -6 8 4
12 10 9 15 -7 12 -14 11 -14 -2z"/>
<path d="M1289 1174 c-9 -11 -9 -14 0 -14 8 0 9 -5 2 -19 -6 -10 -7 -22 -3
-26 4 -5 2 -5 -4 -2 -6 3 -21 -3 -32 -14 -22 -20 -30 -35 -13 -25 5 4 11 3 14
-1 2 -5 2 -1 0 7 -3 12 -1 12 13 -2 16 -16 11 -44 -6 -33 -5 3 -11 1 -14 -4
-8 -12 21 -8 34 5 7 7 7 19 1 36 -8 22 -7 26 7 23 9 -2 19 -4 22 -4 3 -1 -2
-5 -10 -11 -12 -8 -12 -10 4 -16 14 -5 15 -9 4 -15 -9 -6 -6 -9 11 -9 23 0 23
1 8 18 -13 14 -14 21 -5 30 9 9 8 12 -5 12 -9 0 -17 7 -17 15 0 8 5 15 11 15
6 0 8 7 5 16 -5 13 -2 15 14 11 11 -3 18 -2 15 3 -9 15 -44 18 -56 4z"/>
<path d="M680 1172 c0 -5 7 -15 15 -22 8 -7 15 -9 15 -6 0 4 -7 14 -15 22 -8
9 -15 11 -15 6z"/>
<path d="M1262 1158 c1 -16 6 -28 10 -28 11 0 10 22 -2 40 -8 11 -9 9 -8 -12z"/>
<path d="M796 1153 c-6 -14 -5 -15 5 -6 7 7 10 15 7 18 -3 3 -9 -2 -12 -12z"/>
<path d="M1143 1163 c-7 -3 -13 -11 -13 -19 0 -8 -4 -14 -10 -14 -5 0 -10 -8
-10 -17 1 -17 1 -17 11 -1 5 10 16 15 24 12 8 -4 15 -1 15 6 0 6 -4 8 -10 5
-5 -3 -10 -2 -10 4 0 5 6 11 13 14 6 2 10 7 7 9 -3 3 -11 3 -17 1z"/>
<path d="M1236 1161 c-4 -7 -5 -15 -2 -18 9 -9 19 4 14 18 -4 11 -6 11 -12 0z"/>
<path d="M885 1149 c-11 -17 1 -21 15 -4 8 9 8 15 2 15 -6 0 -14 -5 -17 -11z"/>
<path d="M1041 1144 c0 -11 3 -14 6 -6 3 7 2 16 -1 19 -3 4 -6 -2 -5 -13z"/>
<path d="M1060 1129 c-7 -11 -9 -23 -7 -26 3 -2 8 5 12 16 3 11 14 22 23 24
16 4 16 5 0 6 -10 0 -22 -8 -28 -20z"/>
<path d="M845 1130 c3 -5 8 -10 11 -10 2 0 4 5 4 10 0 6 -5 10 -11 10 -5 0 -7
-4 -4 -10z"/>
<path d="M950 1130 c-13 -8 -12 -10 3 -10 9 0 17 5 17 10 0 12 -1 12 -20 0z"/>
<path d="M1090 1090 c0 -5 5 -10 11 -10 5 0 7 5 4 10 -3 6 -8 10 -11 10 -2 0
-4 -4 -4 -10z"/>
<path d="M1061 1081 c-8 -5 -9 -11 -3 -15 5 -3 12 1 16 9 6 17 6 18 -13 6z"/>
<path d="M945 1070 c4 -6 11 -8 16 -5 14 9 11 15 -7 15 -8 0 -12 -5 -9 -10z"/>
<path d="M1075 1051 c-3 -5 -2 -12 3 -15 5 -3 9 1 9 9 0 17 -3 19 -12 6z"/>
<path d="M1140 1051 c0 -5 11 -8 24 -7 13 0 22 4 19 9 -6 10 -43 9 -43 -2z"/>
<path d="M1290 1031 c0 -5 7 -14 15 -21 13 -10 15 -9 15 9 0 12 -6 21 -15 21
-8 0 -15 -4 -15 -9z"/>
<path d="M1333 1034 c3 -3 2 -17 -3 -30 -7 -18 -6 -22 5 -18 27 11 29 54 3 54
-6 0 -9 -3 -5 -6z"/>
<path d="M1215 1010 c-3 -6 1 -7 9 -4 18 7 21 14 7 14 -6 0 -13 -4 -16 -10z"/>
<path d="M1383 1006 c-30 -14 -29 -21 1 -24 19 -1 24 3 23 18 -1 11 -1 19 -2
19 0 -1 -10 -6 -22 -13z"/>
<path d="M1428 1010 c14 -16 16 -34 3 -26 -11 7 -8 -21 4 -31 4 -4 5 -2 1 5
-4 7 -1 12 8 12 22 0 20 14 -6 36 -13 10 -17 12 -10 4z"/>
<path d="M1315 950 c3 -5 8 -10 11 -10 2 0 4 5 4 10 0 6 -5 10 -11 10 -5 0 -7
-4 -4 -10z"/>
<path d="M1359 948 c10 -14 18 -15 32 -7 10 5 19 12 19 15 0 2 -8 0 -18 -5
-13 -7 -23 -6 -32 2 -12 10 -12 9 -1 -5z"/>
<path d="M1280 925 c0 -9 6 -12 15 -9 8 4 15 7 15 9 0 2 -7 5 -15 9 -9 3 -15
0 -15 -9z"/>
<path d="M1545 929 c-11 -17 1 -21 15 -4 8 9 8 15 2 15 -6 0 -14 -5 -17 -11z"/>
<path d="M1390 912 c0 -5 11 -17 25 -26 14 -9 25 -12 25 -6 0 5 -4 10 -9 10
-5 0 -17 7 -25 16 -9 8 -16 11 -16 6z"/>
<path d="M1375 870 c-3 -5 -1 -10 4 -10 6 0 11 5 11 10 0 6 -2 10 -4 10 -3 0
-8 -4 -11 -10z"/>
<path d="M1401 864 c0 -11 3 -14 6 -6 3 7 2 16 -1 19 -3 4 -6 -2 -5 -13z"/>
<path d="M1180 860 c0 -5 5 -10 11 -10 5 0 7 5 4 10 -3 6 -8 10 -11 10 -2 0
-4 -4 -4 -10z"/>
<path d="M1487 856 c-5 -11 -3 -15 5 -10 8 5 9 1 5 -12 -5 -14 -2 -12 13 6 17
22 20 23 20 6 0 -11 3 -17 6 -13 4 3 4 14 0 23 -5 13 -9 14 -20 5 -11 -9 -15
-9 -18 1 -3 8 -7 6 -11 -6z"/>
<path d="M1607 854 c-4 -4 -7 -17 -7 -30 0 -12 -6 -25 -12 -27 -10 -4 -10 -6
0 -6 7 -1 17 11 23 26 10 28 8 49 -4 37z"/>
<path d="M1676 842 c-3 -6 -1 -14 5 -17 14 -9 20 -2 10 14 -6 8 -11 9 -15 3z"/>
<path d="M1633 824 c0 -7 6 -10 14 -7 7 3 13 8 13 12 0 4 -6 8 -13 8 -8 0 -14
-6 -14 -13z"/>
<path d="M1647 789 c-5 -20 -5 -20 14 -3 23 20 23 24 5 24 -7 0 -16 -9 -19
-21z"/>
<path d="M1995 720 c3 -5 11 -10 16 -10 6 0 7 5 4 10 -3 6 -11 10 -16 10 -6 0
-7 -4 -4 -10z"/>
<path d="M2535 670 c3 -5 8 -10 11 -10 2 0 4 5 4 10 0 6 -5 10 -11 10 -5 0 -7
-4 -4 -10z"/>
<path d="M3970 569 c0 -18 2 -19 15 -9 8 7 15 16 15 21 0 5 -7 9 -15 9 -9 0
-15 -9 -15 -21z"/>
<path d="M4590 570 c0 -5 5 -10 11 -10 5 0 7 5 4 10 -3 6 -8 10 -11 10 -2 0
-4 -4 -4 -10z"/>
<path d="M4655 561 c-3 -5 -2 -12 3 -15 5 -3 9 1 9 9 0 17 -3 19 -12 6z"/>
<path d="M5166 513 c-10 -10 -7 -25 3 -19 5 4 11 1 13 -6 3 -7 7 -8 10 -3 7
12 -17 37 -26 28z"/>
<path d="M5223 503 c-15 -5 -17 -23 -4 -23 5 0 11 7 15 15 3 8 4 15 3 14 -1 0
-8 -3 -14 -6z"/>
<path d="M5260 500 c-9 -6 -10 -10 -3 -10 6 0 15 5 18 10 8 12 4 12 -15 0z"/>
<path d="M4980 478 c0 -4 6 -8 14 -8 8 0 17 4 20 8 2 4 -4 8 -15 8 -10 0 -19
-4 -19 -8z"/>
<path d="M5530 464 c0 -8 5 -12 10 -9 6 4 8 11 5 16 -9 14 -15 11 -15 -7z"/>
<path d="M5793 365 c0 -8 4 -12 9 -9 5 3 6 10 3 15 -9 13 -12 11 -12 -6z"/>
<path d="M6190 339 c0 -5 5 -7 10 -4 6 3 10 8 10 11 0 2 -4 4 -10 4 -5 0 -10
-5 -10 -11z"/>
<path d="M6603 322 c-9 -6 -6 -11 8 -21 12 -7 18 -8 14 -2 -3 6 -1 11 4 11 6
0 11 5 11 10 0 12 -20 13 -37 2z"/>
<path d="M8105 320 c-3 -5 1 -10 9 -10 9 0 16 5 16 10 0 6 -4 10 -9 10 -6 0
-13 -4 -16 -10z"/>
<path d="M6804 298 c-4 -7 -4 -10 1 -6 4 4 14 3 22 -4 7 -6 16 -8 19 -5 3 3
-3 10 -15 16 -15 8 -22 8 -27 -1z"/>
<path d="M6951 301 c-8 -5 -9 -11 -3 -15 5 -3 12 1 16 9 6 17 6 18 -13 6z"/>
<path d="M7803 285 c0 -8 4 -15 9 -15 4 0 8 4 8 9 0 6 -4 12 -8 15 -5 3 -9 -1
-9 -9z"/>
<path d="M7930 290 c-9 -6 -10 -10 -3 -10 6 0 15 5 18 10 8 12 4 12 -15 0z"/>
<path d="M6665 280 c12 -5 14 -9 6 -9 -8 -1 -12 -3 -9 -6 3 -3 18 1 34 10 l29
15 -40 -1 c-31 0 -36 -2 -20 -9z"/>
<path d="M6722 274 c-7 -8 -8 -14 -3 -14 10 0 25 19 20 25 -2 1 -10 -3 -17
-11z"/>
<path d="M7426 268 c3 -5 10 -6 15 -3 13 9 11 12 -6 12 -8 0 -12 -4 -9 -9z"/>
<path d="M5380 180 c-6 -11 -8 -20 -6 -20 3 0 10 9 16 20 6 11 8 20 6 20 -3 0
-10 -9 -16 -20z"/>
<path d="M5350 130 c-6 -11 -8 -20 -6 -20 3 0 10 9 16 20 6 11 8 20 6 20 -3 0
-10 -9 -16 -20z"/>
<path d="M5303 48 c-15 -20 -25 -38 -20 -38 3 0 12 11 21 25 17 26 16 35 -1
13z"/>
</g>
</svg>
