<svg xmlns="http://www.w3.org/2000/svg" xmlns:xlink="http://www.w3.org/1999/xlink" version="1.1" x="0px" y="0px" viewBox="0 0 100 125" style="enable-background:new 0 0 100 100;" xml:space="preserve"><path d="M5,90c0,1.381,1.119,2.5,2.5,2.5h20h45h20c1.381,0,2.5-1.119,2.5-2.5V52.5c0-24.853-20.147-45-45-45h0   c-24.853,0-45,20.147-45,45V90z M32.416,16.583l5.757,13.898c-1.416,0.763-2.75,1.66-3.986,2.672L23.558,22.523   C26.221,20.171,29.196,18.166,32.416,16.583z M25,87.5H10V80h15V87.5z M25,75H10v-7.5h15V75z M25,62.5H10V55h15V62.5z M25.125,50   H10.086c0.226-3.641,0.943-7.149,2.082-10.464l13.896,5.755C25.607,46.806,25.287,48.38,25.125,50z M14.082,34.917   c1.583-3.22,3.589-6.195,5.941-8.858l10.629,10.629c-1.012,1.236-1.908,2.57-2.672,3.986L14.082,34.917z M47.5,87.5H30v-35   c0-5.512,2.241-10.509,5.86-14.13c0.002-0.002,0.004-0.003,0.006-0.005s0.003-0.004,0.005-0.006   c3.064-3.061,7.118-5.12,11.63-5.686V87.5z M47.5,27.625c-1.62,0.162-3.194,0.482-4.709,0.939l-5.756-13.896   c3.315-1.139,6.823-1.857,10.465-2.082V27.625z M67.584,16.583c3.22,1.583,6.195,3.589,8.858,5.941L65.813,33.152   c-1.236-1.012-2.57-1.908-3.986-2.672L67.584,16.583z M52.5,12.586c3.641,0.226,7.149,0.943,10.465,2.082l-5.756,13.896   c-1.515-0.457-3.089-0.777-4.709-0.939V12.586z M70,87.5H52.5V32.674c4.512,0.566,8.566,2.625,11.63,5.686   c0.002,0.002,0.003,0.004,0.005,0.006s0.004,0.003,0.006,0.005C67.759,41.991,70,46.988,70,52.5V87.5z M72.019,40.673   c-0.764-1.416-1.66-2.75-2.672-3.986l10.629-10.629c2.352,2.663,4.358,5.638,5.941,8.858L72.019,40.673z M73.936,45.291   l13.896-5.755c1.139,3.315,1.857,6.823,2.082,10.464H74.875C74.713,48.38,74.393,46.806,73.936,45.291z M90,87.5H75V80h15V87.5z    M90,75H75v-7.5h15V75z M90,62.5H75V55h15V62.5z"/></svg>