<svg width="132" height="24" viewBox="0 0 132 24" fill="none" xmlns="http://www.w3.org/2000/svg">
<path d="M11.4404 1.67188V23H7.06055V1.67188H11.4404ZM18.0029 1.67188V5.11426H0.600586V1.67188H18.0029ZM24.3604 0.5V23H20.1416V0.5H24.3604ZM23.7598 14.5186H22.6025C22.6123 13.415 22.7588 12.3994 23.042 11.4717C23.3252 10.5342 23.7305 9.72363 24.2578 9.04004C24.7852 8.34668 25.415 7.80957 26.1475 7.42871C26.8896 7.04785 27.71 6.85742 28.6084 6.85742C29.3896 6.85742 30.0977 6.96973 30.7324 7.19434C31.377 7.40918 31.9287 7.76074 32.3877 8.24902C32.8564 8.72754 33.2178 9.35742 33.4717 10.1387C33.7256 10.9199 33.8525 11.8672 33.8525 12.9805V23H29.6045V12.9512C29.6045 12.248 29.502 11.6963 29.2969 11.2959C29.1016 10.8857 28.8135 10.5977 28.4326 10.4316C28.0615 10.2559 27.6025 10.168 27.0557 10.168C26.4502 10.168 25.9326 10.2803 25.5029 10.5049C25.083 10.7295 24.7461 11.042 24.4922 11.4424C24.2383 11.833 24.0527 12.292 23.9355 12.8193C23.8184 13.3467 23.7598 13.9131 23.7598 14.5186ZM44.3555 23.293C43.125 23.293 42.0215 23.0977 41.0449 22.707C40.0684 22.3066 39.2383 21.7549 38.5547 21.0518C37.8809 20.3486 37.3633 19.5332 37.002 18.6055C36.6406 17.668 36.46 16.6719 36.46 15.6172V15.0312C36.46 13.8301 36.6309 12.7314 36.9727 11.7354C37.3145 10.7393 37.8027 9.875 38.4375 9.14258C39.082 8.41016 39.8633 7.84863 40.7812 7.45801C41.6992 7.05762 42.7344 6.85742 43.8867 6.85742C45.0098 6.85742 46.0059 7.04297 46.875 7.41406C47.7441 7.78516 48.4717 8.3125 49.0576 8.99609C49.6533 9.67969 50.1025 10.5 50.4053 11.457C50.708 12.4043 50.8594 13.459 50.8594 14.6211V16.3789H38.2617V13.5664H46.7139V13.2441C46.7139 12.6582 46.6064 12.1357 46.3916 11.6768C46.1865 11.208 45.874 10.8369 45.4541 10.5635C45.0342 10.29 44.4971 10.1533 43.8428 10.1533C43.2861 10.1533 42.8076 10.2754 42.4072 10.5195C42.0068 10.7637 41.6797 11.1055 41.4258 11.5449C41.1816 11.9844 40.9961 12.502 40.8691 13.0977C40.752 13.6836 40.6934 14.3281 40.6934 15.0312V15.6172C40.6934 16.252 40.7812 16.8379 40.957 17.375C41.1426 17.9121 41.4014 18.376 41.7334 18.7666C42.0752 19.1572 42.4854 19.46 42.9639 19.6748C43.4521 19.8896 44.0039 19.9971 44.6191 19.9971C45.3809 19.9971 46.0889 19.8506 46.7432 19.5576C47.4072 19.2549 47.9785 18.8008 48.457 18.1953L50.5078 20.4219C50.1758 20.9004 49.7217 21.3594 49.1455 21.7988C48.5791 22.2383 47.8955 22.5996 47.0947 22.8828C46.2939 23.1562 45.3809 23.293 44.3555 23.293ZM63.0029 1.67188H66.7236L72.2021 17.3311L77.6807 1.67188H81.4014L73.6963 23H70.708L63.0029 1.67188ZM60.9961 1.67188H64.7021L65.376 16.9355V23H60.9961V1.67188ZM79.7021 1.67188H83.4229V23H79.0283V16.9355L79.7021 1.67188ZM95.5664 19.4258V12.3652C95.5664 11.8574 95.4834 11.4229 95.3174 11.0615C95.1514 10.6904 94.8926 10.4023 94.541 10.1973C94.1992 9.99219 93.7549 9.88965 93.208 9.88965C92.7393 9.88965 92.334 9.97266 91.9922 10.1387C91.6504 10.2949 91.3867 10.5244 91.2012 10.8271C91.0156 11.1201 90.9229 11.4668 90.9229 11.8672H86.7041C86.7041 11.1934 86.8604 10.5537 87.1729 9.94824C87.4854 9.34277 87.9395 8.81055 88.5352 8.35156C89.1309 7.88281 89.8389 7.5166 90.6592 7.25293C91.4893 6.98926 92.417 6.85742 93.4424 6.85742C94.6729 6.85742 95.7666 7.0625 96.7236 7.47266C97.6807 7.88281 98.4326 8.49805 98.9795 9.31836C99.5361 10.1387 99.8145 11.1641 99.8145 12.3945V19.1768C99.8145 20.0459 99.8682 20.7588 99.9756 21.3154C100.083 21.8623 100.239 22.3408 100.444 22.751V23H96.1816C95.9766 22.5703 95.8203 22.0332 95.7129 21.3887C95.6152 20.7344 95.5664 20.0801 95.5664 19.4258ZM96.123 13.3467L96.1523 15.7344H93.7939C93.2373 15.7344 92.7539 15.7979 92.3438 15.9248C91.9336 16.0518 91.5967 16.2324 91.333 16.4668C91.0693 16.6914 90.874 16.9551 90.7471 17.2578C90.6299 17.5605 90.5713 17.8926 90.5713 18.2539C90.5713 18.6152 90.6543 18.9424 90.8203 19.2354C90.9863 19.5186 91.2256 19.7432 91.5381 19.9092C91.8506 20.0654 92.2168 20.1436 92.6367 20.1436C93.2715 20.1436 93.8232 20.0166 94.292 19.7627C94.7607 19.5088 95.1221 19.1963 95.376 18.8252C95.6396 18.4541 95.7764 18.1025 95.7861 17.7705L96.8994 19.5576C96.7432 19.958 96.5283 20.373 96.2549 20.8027C95.9912 21.2324 95.6543 21.6377 95.2441 22.0186C94.834 22.3896 94.3408 22.6973 93.7646 22.9414C93.1885 23.1758 92.5049 23.293 91.7139 23.293C90.708 23.293 89.7949 23.0928 88.9746 22.6924C88.1641 22.2822 87.5195 21.7207 87.041 21.0078C86.5723 20.2852 86.3379 19.4648 86.3379 18.5469C86.3379 17.7168 86.4941 16.9795 86.8066 16.335C87.1191 15.6904 87.5781 15.1484 88.1836 14.709C88.7988 14.2598 89.5654 13.9229 90.4834 13.6982C91.4014 13.4639 92.4658 13.3467 93.6768 13.3467H96.123ZM115.679 19.7041V23H103.638V19.7041H115.679ZM115.444 9.58203L105.337 23H102.51V20.4951L112.573 7.15039H115.444V9.58203ZM113.95 7.15039V10.4609H102.744V7.15039H113.95ZM125.391 23.293C124.16 23.293 123.057 23.0977 122.08 22.707C121.104 22.3066 120.273 21.7549 119.59 21.0518C118.916 20.3486 118.398 19.5332 118.037 18.6055C117.676 17.668 117.495 16.6719 117.495 15.6172V15.0312C117.495 13.8301 117.666 12.7314 118.008 11.7354C118.35 10.7393 118.838 9.875 119.473 9.14258C120.117 8.41016 120.898 7.84863 121.816 7.45801C122.734 7.05762 123.77 6.85742 124.922 6.85742C126.045 6.85742 127.041 7.04297 127.91 7.41406C128.779 7.78516 129.507 8.3125 130.093 8.99609C130.688 9.67969 131.138 10.5 131.44 11.457C131.743 12.4043 131.895 13.459 131.895 14.6211V16.3789H119.297V13.5664H127.749V13.2441C127.749 12.6582 127.642 12.1357 127.427 11.6768C127.222 11.208 126.909 10.8369 126.489 10.5635C126.069 10.29 125.532 10.1533 124.878 10.1533C124.321 10.1533 123.843 10.2754 123.442 10.5195C123.042 10.7637 122.715 11.1055 122.461 11.5449C122.217 11.9844 122.031 12.502 121.904 13.0977C121.787 13.6836 121.729 14.3281 121.729 15.0312V15.6172C121.729 16.252 121.816 16.8379 121.992 17.375C122.178 17.9121 122.437 18.376 122.769 18.7666C123.11 19.1572 123.521 19.46 123.999 19.6748C124.487 19.8896 125.039 19.9971 125.654 19.9971C126.416 19.9971 127.124 19.8506 127.778 19.5576C128.442 19.2549 129.014 18.8008 129.492 18.1953L131.543 20.4219C131.211 20.9004 130.757 21.3594 130.181 21.7988C129.614 22.2383 128.931 22.5996 128.13 22.8828C127.329 23.1562 126.416 23.293 125.391 23.293Z" fill="white"/>
</svg>
