<svg width="116" height="117" viewBox="0 0 116 117" fill="none" xmlns="http://www.w3.org/2000/svg">
<rect width="116" height="117" fill="url(#paint0_linear_42_351)"/>
<line y1="-2" x2="104" y2="-2" transform="matrix(1 -0.000181824 0.000178755 1 6 9.09668)" stroke="black" stroke-width="4"/>
<path d="M66.4967 108.904L110 108.904" stroke="black" stroke-width="4"/>
<path d="M6 108.933L50.4272 108.917" stroke="black" stroke-width="4"/>
<line x1="26" y1="27.2478" x2="66" y2="27.2478" stroke="black" stroke-width="4"/>
<path d="M66 48.4102L87.5686 48.4761" stroke="black" stroke-width="4"/>
<line x1="66.4967" y1="67.5237" x2="110" y2="67.5237" stroke="black" stroke-width="4"/>
<path d="M19.5948 67.5066H50.4272" stroke="black" stroke-width="4"/>
<path d="M26.5 46.4592L46.1046 46.4592" stroke="black" stroke-width="4"/>
<path d="M6 89.7607L89.6078 89.2083" stroke="black" stroke-width="4"/>
<path d="M28.4314 46.4392L28.4314 69.5237" stroke="black" stroke-width="4"/>
<path d="M48.4078 65.5557L48.4078 109.932" stroke="black" stroke-width="4"/>
<path d="M46.1046 26.7498L46.1046 48.4764" stroke="black" stroke-width="4"/>
<line x1="8" y1="7.05981" x2="8" y2="48.4102" stroke="black" stroke-width="4"/>
<line x1="8" y1="68.5813" x2="8" y2="90.9869" stroke="black" stroke-width="4"/>
<line x1="8" y1="68.5813" x2="8" y2="90.9869" stroke="black" stroke-width="4"/>
<path d="M67.8562 47.1184L67.8562 69.524" stroke="black" stroke-width="4"/>
<path d="M110 27.2307L87 27.3624" stroke="black" stroke-width="4"/>
<path d="M89 26.7498L89 7.06002" stroke="black" stroke-width="4"/>
<path d="M53.5817 7.05981L53.5817 28.7864" stroke="black" stroke-width="4"/>
<path d="M109.3 46.4392L109.3 110.94" stroke="black" stroke-width="4"/>
<ellipse cx="58.4575" cy="100.45" rx="6.45752" ry="6.45009" fill="#641F32"/>
<defs>
<linearGradient id="paint0_linear_42_351" x1="58" y1="0" x2="58" y2="187.5" gradientUnits="userSpaceOnUse">
<stop stop-color="#A296B6"/>
<stop offset="1" stop-color="white" stop-opacity="0"/>
</linearGradient>
</defs>
</svg>
