<svg id="Capa_1" enable-background="new 0 0 512 512" height="512" viewBox="0 0 512 512" width="512" fill="white" xmlns="http://www.w3.org/2000/svg"><g><path d="m512 437c0-8.284-6.716-15-15-15h-104.678c2.226-54.157 15.932-109.092 29.231-162.367 14.969-59.96 30.447-121.961 30.447-184.633 0-41.355-33.645-75-75-75h-302c-41.355 0-75 33.645-75 75 0 8.284 6.716 15 15 15h104.687c-2.227 54.155-15.94 109.093-29.24 162.367-14.969 59.96-30.447 121.961-30.447 184.633 0 41.355 33.645 75 75 75h302.001c41.354 0 74.999-33.645 74.999-75zm-479.43-377c6.191-17.461 22.874-30 42.43-30s36.239 12.539 42.43 30zm57.43 377c0-58.984 15.024-119.166 29.553-177.367 14.969-59.96 30.447-121.961 30.447-184.633 0-16.871-5.603-32.456-15.041-45h242.041c24.813 0 45 20.187 45 45 0 58.984-15.024 119.166-29.553 177.367-13.774 55.172-27.968 112.073-30.149 169.633h-167.298c-8.284 0-15 6.716-15 15 0 24.813-20.187 45-45 45s-45-20.187-45-45zm347 45h-242.056c6.568-8.727 11.29-18.919 13.549-30h270.927c-6.192 17.459-22.865 30-42.42 30z"/><path d="m195 150h176.995c8.284 0 15-6.716 15-15s-6.716-15-15-15h-176.995c-8.284 0-15 6.716-15 15s6.716 15 15 15z"/><path d="m180.921 210h179.055c8.284 0 15-6.716 15-15s-6.716-15-15-15h-179.055c-8.284 0-15 6.716-15 15s6.716 15 15 15z"/><path d="m166.863 270h178.273c8.284 0 15-6.716 15-15s-6.716-15-15-15h-178.273c-8.284 0-15 6.716-15 15s6.716 15 15 15z"/><path d="m152.023 330h179.056c8.284 0 15-6.716 15-15s-6.716-15-15-15h-179.056c-8.284 0-15 6.716-15 15s6.716 15 15 15z"/></g></svg>