<?xml version="1.0" encoding="iso-8859-1"?>
<!-- Generator: Adobe Illustrator 19.0.0, SVG Export Plug-In . SVG Version: 6.00 Build 0)  -->
<svg version="1.1" id="Capa_1" xmlns="http://www.w3.org/2000/svg" xmlns:xlink="http://www.w3.org/1999/xlink" x="0px" y="0px"
	 viewBox="0 0 512.001 512.001" fill="white" style="enable-background:new 0 0 512.001 512.001;" xml:space="preserve">
<g>
	<g>
		<path d="M505.619,232.875c-6.78-4.76-16.136-3.123-20.896,3.657l-1.974,2.812l-95.984-51.813
			c-0.381-0.206-0.772-0.388-1.167-0.559v-57.414h2.55c17.424,0,33.803-8.514,43.813-22.772l2.31-3.289
			c4.761-6.78,3.124-16.135-3.655-20.896c-6.777-4.76-16.135-3.124-20.896,3.656l-1.975,2.813l-95.984-51.813
			c-2.188-1.182-4.638-1.8-7.125-1.8h-33.654c-0.198-8.112-6.822-14.63-14.981-14.63c-8.159,0-14.783,6.519-14.981,14.63h-33.654
			c-2.487,0-4.937,0.619-7.125,1.8L104.257,89.07l-1.975-2.813c-4.76-6.78-14.115-8.416-20.896-3.656
			c-6.779,4.761-8.416,14.116-3.655,20.896l2.309,3.288c10.011,14.26,26.39,22.773,43.813,22.773h2.55v57.415
			c-0.395,0.171-0.786,0.353-1.167,0.559l-95.984,51.813l-1.974-2.812c-4.761-6.781-14.117-8.417-20.896-3.657
			c-6.78,4.76-8.417,14.116-3.657,20.896l2.31,3.289c10.011,14.26,26.39,22.773,43.814,22.773h23.217v119.484H57.669
			c-8.284,0-15,6.716-15,15v43.637c-5.95,2.133-12.051,3.218-18.246,3.218c-8.284,0-15,6.716-15,15s6.716,15,15,15
			c16.152,0,31.681-4.591,46.155-13.645c7.238-4.528,16.231-4.529,23.474-0.001c14.479,9.055,30.01,13.646,46.163,13.646
			c16.151,0,31.681-4.591,46.157-13.645c7.237-4.529,16.232-4.529,23.472-0.001c14.479,9.055,30.01,13.646,46.163,13.646
			c16.15,0,31.68-4.59,46.158-13.642c7.236-4.525,16.227-4.525,23.463,0c14.478,9.052,30.007,13.642,46.157,13.642
			c16.151,0,31.681-4.591,46.156-13.645c7.237-4.528,16.231-4.529,23.473-0.001c14.479,9.055,30.01,13.646,46.163,13.646
			c8.284,0,15-6.716,15-15s-6.716-15-15-15c-6.194,0-12.295-1.084-18.246-3.217v-43.638c0-8.284-6.716-15-15-15h-14.396V279.833
			h23.217c17.425,0,33.804-8.514,43.814-22.772l2.31-3.29C514.036,246.991,512.4,237.635,505.619,232.875z M211.155,65.456h89.691
			l63.175,34.102H147.98L211.155,65.456z M355.599,129.558v56.173H156.401v-56.173H355.599z M136.15,215.731h239.701l63.176,34.102
			H72.974L136.15,215.731z M294.226,333.331h-76.451c-24.813,0-45,20.187-45,45v20.987h-70.71V281.154h307.871v118.164h0h-70.71
			v-20.987C339.226,353.518,319.039,333.331,294.226,333.331z M309.226,378.331v19.988H202.775v-19.988c0-8.271,6.729-15,15-15
			h76.451C302.497,363.331,309.226,370.06,309.226,378.331z M402.032,452.095c-9.632,6.023-19.808,9.078-30.247,9.078
			c-10.439,0-20.618-3.055-30.252-9.078c-16.788-10.498-38.485-10.498-55.273-0.001c-9.635,6.024-19.813,9.079-30.253,9.079
			c-10.441,0-20.621-3.056-30.256-9.081c-16.795-10.504-38.498-10.503-55.289,0.003c-9.632,6.023-19.808,9.078-30.247,9.078
			c-10.441,0-20.621-3.056-30.256-9.081c-11.216-7.015-24.62-9.337-37.29-6.982v-15.792h366.662v15.793
			C426.657,442.753,413.249,445.076,402.032,452.095z"/>
	</g>
</g>
<g>
</g>
<g>
</g>
<g>
</g>
<g>
</g>
<g>
</g>
<g>
</g>
<g>
</g>
<g>
</g>
<g>
</g>
<g>
</g>
<g>
</g>
<g>
</g>
<g>
</g>
<g>
</g>
<g>
</g>
</svg>
